%TF.GenerationSoftware,Altium Limited,Altium Designer,25.7.1 (20)*%
G04 Layer_Color=8421504*
%FSLAX45Y45*%
%MOMM*%
%TF.SameCoordinates,9EBC04B8-5010-450C-815D-03E4C15FF4C1*%
%TF.FilePolarity,Positive*%
%TF.FileFunction,Paste,Top*%
%TF.Part,Single*%
G01*
G75*
%TA.AperFunction,SMDPad,CuDef*%
%ADD11R,1.15000X0.40000*%
%ADD12R,1.80000X2.23000*%
%ADD13R,1.68000X2.95000*%
%ADD14R,0.85000X0.30000*%
%ADD15R,1.23000X1.80000*%
%ADD16R,0.78000X0.99000*%
%ADD17R,0.95000X0.80000*%
%ADD18R,0.35000X1.15000*%
%ADD19R,0.99000X0.78000*%
%ADD20R,2.23000X1.80000*%
%ADD21R,0.95000X1.40000*%
%ADD22R,1.72500X2.23500*%
%ADD23R,0.51000X0.40500*%
%ADD24R,0.80000X0.95000*%
%ADD25R,1.80000X1.23000*%
%ADD26R,0.20000X0.80000*%
%ADD27R,1.40000X0.95000*%
%ADD28R,1.20000X0.60000*%
%ADD29R,1.80000X1.00000*%
%ADD30R,0.98000X3.40000*%
%ADD31R,1.00000X1.75000*%
%ADD32R,0.99000X0.40500*%
%ADD33R,0.70000X0.45000*%
%ADD34R,2.10000X2.30000*%
%ADD35R,2.30000X2.10000*%
%ADD36R,1.70000X0.25000*%
%ADD37R,1.75000X1.00000*%
%ADD38R,0.80000X0.20000*%
%ADD40R,0.90000X1.40000*%
%ADD42R,5.40000X2.90000*%
%ADD45R,0.20000X1.45000*%
%ADD46R,0.25000X0.45000*%
G36*
X2526552Y1877399D02*
X2506552D01*
X2506550Y1927399D01*
X2496552D01*
Y1937397D01*
X2496502Y1937399D01*
X2446552D01*
Y1957399D01*
X2526552D01*
Y1877399D01*
D02*
G37*
G36*
X2806549Y1937399D02*
X2756549Y1937397D01*
Y1927399D01*
X2746551D01*
X2746549Y1927349D01*
Y1877399D01*
X2726549D01*
Y1957399D01*
X2806549D01*
Y1937399D01*
D02*
G37*
G36*
X2526552Y2157401D02*
X2446552D01*
Y2177401D01*
X2496552Y2177403D01*
Y2187401D01*
X2506550D01*
X2506552Y2187451D01*
Y2237401D01*
X2526552D01*
Y2157401D01*
D02*
G37*
G36*
X2746551Y2187401D02*
X2756549D01*
Y2177403D01*
X2756599Y2177401D01*
X2806549D01*
Y2157401D01*
X2726549D01*
Y2237401D01*
X2746549D01*
X2746551Y2187401D01*
D02*
G37*
D11*
X7860800Y3018000D02*
D03*
Y2953000D02*
D03*
Y3083000D02*
D03*
X7670800D02*
D03*
Y2953000D02*
D03*
D12*
X11214202Y5181600D02*
D03*
Y4800600D02*
D03*
Y4419600D02*
D03*
X11391665Y2646147D02*
D03*
X11384705Y2320747D02*
D03*
X11385970Y1995348D02*
D03*
X11506200Y5181600D02*
D03*
Y4800600D02*
D03*
Y4419600D02*
D03*
X11677969Y1995348D02*
D03*
X11676703Y2320747D02*
D03*
X11683663Y2646147D02*
D03*
D13*
X10515600Y4597400D02*
D03*
D14*
X10660598Y4497400D02*
D03*
Y4447398D02*
D03*
Y4547398D02*
D03*
Y4597400D02*
D03*
Y4647397D02*
D03*
Y4697400D02*
D03*
Y4747402D02*
D03*
X10370602D02*
D03*
Y4697400D02*
D03*
Y4647397D02*
D03*
Y4597400D02*
D03*
Y4547398D02*
D03*
Y4497400D02*
D03*
Y4447398D02*
D03*
D15*
X9855150Y4555302D02*
D03*
X9512300Y4555299D02*
D03*
X1254948Y2739202D02*
D03*
Y3001198D02*
D03*
X9855150Y4817298D02*
D03*
X9512300Y4817300D02*
D03*
D16*
X10541300Y4076700D02*
D03*
X10401300D02*
D03*
X2861351Y2425700D02*
D03*
X3001350D02*
D03*
X4945634Y4137650D02*
D03*
X4805629D02*
D03*
D17*
X10991793Y2340599D02*
D03*
X5636448Y4486900D02*
D03*
X1320800Y2190600D02*
D03*
Y2030600D02*
D03*
X2270948Y1108700D02*
D03*
Y948700D02*
D03*
X10991793Y2180600D02*
D03*
X11360093Y3792200D02*
D03*
Y3632200D02*
D03*
X4760148Y4415800D02*
D03*
Y4575800D02*
D03*
X5636448Y4326900D02*
D03*
D18*
X10422499Y2236201D02*
D03*
X10532501D02*
D03*
D19*
X10045700Y2527300D02*
D03*
X1661348Y2921000D02*
D03*
X3340100Y2641295D02*
D03*
X2489200Y952195D02*
D03*
Y1092200D02*
D03*
X3340100Y2781300D02*
D03*
X1661348Y3061000D02*
D03*
X10045700Y2667305D02*
D03*
D20*
X9740900Y2425802D02*
D03*
Y2717800D02*
D03*
D21*
X7924302Y2243303D02*
D03*
X7734300D02*
D03*
X7264400D02*
D03*
X7454402D02*
D03*
X7728199Y2751303D02*
D03*
X7918201D02*
D03*
X7270999D02*
D03*
X7461001D02*
D03*
X7270501Y2497303D02*
D03*
X7460498D02*
D03*
X7734300D02*
D03*
X7924302D02*
D03*
D22*
X4943719Y5080091D02*
D03*
X7632700Y4821403D02*
D03*
X5649148Y5080000D02*
D03*
D23*
X4833950Y5178999D02*
D03*
Y5113000D02*
D03*
Y5047000D02*
D03*
Y4981001D02*
D03*
X7742469Y4920488D02*
D03*
Y4854489D02*
D03*
Y4788489D02*
D03*
Y4722490D02*
D03*
X5758917Y4981087D02*
D03*
Y5047092D02*
D03*
Y5113091D02*
D03*
Y5179090D02*
D03*
D24*
X7661900Y4533897D02*
D03*
X2697500Y1104900D02*
D03*
X2151553Y1981200D02*
D03*
X1821200Y939596D02*
D03*
X2357506Y146106D02*
D03*
X7501900Y4533897D02*
D03*
X2857500Y1104900D02*
D03*
Y901700D02*
D03*
X2697500D02*
D03*
X1981200Y939596D02*
D03*
X1550848Y927100D02*
D03*
X1991548Y1981200D02*
D03*
X2197506Y146106D02*
D03*
X9922500Y4076700D02*
D03*
X9762500D02*
D03*
X1390848Y927100D02*
D03*
D25*
X4237798Y2832100D02*
D03*
X4499799D02*
D03*
D26*
X2646548Y2197400D02*
D03*
X2606548D02*
D03*
X2686548D02*
D03*
X2616551Y1917400D02*
D03*
X2656550D02*
D03*
X2566548Y2197400D02*
D03*
Y1917400D02*
D03*
X2696550D02*
D03*
D27*
X2283648Y1428999D02*
D03*
X10795000Y2355600D02*
D03*
Y2165600D02*
D03*
X2283648Y1619001D02*
D03*
D28*
X5041550Y4324600D02*
D03*
Y4419600D02*
D03*
Y4514600D02*
D03*
X5291550D02*
D03*
Y4419600D02*
D03*
Y4324600D02*
D03*
D29*
X10566400Y2616200D02*
D03*
X10326400D02*
D03*
D30*
X10632778Y5047432D02*
D03*
X10395778D02*
D03*
D31*
X6588902Y2916398D02*
D03*
X6288898D02*
D03*
X8828827Y4830699D02*
D03*
X8841598Y2870200D02*
D03*
X6550802Y4508503D02*
D03*
Y5067300D02*
D03*
X6250798Y4508503D02*
D03*
Y5067300D02*
D03*
X3888598Y5194300D02*
D03*
X9128826Y4830699D02*
D03*
X9141602Y2870200D02*
D03*
Y2595499D02*
D03*
X9131300Y5105400D02*
D03*
X8831301D02*
D03*
X8841598Y2595499D02*
D03*
X4188602Y5194300D02*
D03*
D32*
X7431466Y4854489D02*
D03*
Y4788489D02*
D03*
Y4920488D02*
D03*
Y4722490D02*
D03*
X5144948Y4981001D02*
D03*
Y5047000D02*
D03*
Y5113000D02*
D03*
Y5178999D02*
D03*
X5447919Y5179090D02*
D03*
Y5113091D02*
D03*
Y5047092D02*
D03*
Y4981087D02*
D03*
D33*
X7289797Y4501398D02*
D03*
Y4566402D02*
D03*
D34*
X7010400Y4807798D02*
D03*
Y4377802D02*
D03*
D35*
X2485949Y2933700D02*
D03*
X2055952D02*
D03*
D36*
X2721549Y2057400D02*
D03*
Y2002399D02*
D03*
Y2112401D02*
D03*
D37*
X787400Y3198002D02*
D03*
X4709348Y1145398D02*
D03*
Y1445402D02*
D03*
X787400Y2897998D02*
D03*
D38*
X2486548Y2037400D02*
D03*
Y1997400D02*
D03*
Y2077400D02*
D03*
Y2117400D02*
D03*
D40*
X1578549Y1206500D02*
D03*
Y1524000D02*
D03*
X1388552Y1206500D02*
D03*
Y1524000D02*
D03*
D42*
X3794948Y1140602D02*
D03*
Y2110598D02*
D03*
D45*
X10477500Y2251202D02*
D03*
D46*
X10552501Y2396200D02*
D03*
X10502499D02*
D03*
X10452501D02*
D03*
X10402499D02*
D03*
%TF.MD5,c582c901abd9487fce8fd980dcffa4fa*%
M02*
