%TF.GenerationSoftware,Altium Limited,Altium Designer,25.7.1 (20)*%
G04 Layer_Color=16711935*
%FSLAX45Y45*%
%MOMM*%
%TF.SameCoordinates,9EBC04B8-5010-450C-815D-03E4C15FF4C1*%
%TF.FilePolarity,Negative*%
%TF.FileFunction,Soldermask,Bot*%
%TF.Part,Single*%
G01*
G75*
%TA.AperFunction,ComponentPad*%
%ADD107C,1.71120*%
%ADD108R,1.71120X1.71120*%
%ADD109O,2.70320X3.20320*%
%ADD110R,1.61920X1.61920*%
%ADD111C,1.61920*%
%TA.AperFunction,ViaPad*%
%ADD112C,0.80320*%
D107*
X444500Y5232400D02*
D03*
X12293600Y5181600D02*
D03*
Y2946400D02*
D03*
X444500Y4127500D02*
D03*
D108*
Y4978400D02*
D03*
Y3873500D02*
D03*
X12293600Y2692400D02*
D03*
Y4927600D02*
D03*
D109*
X1200150Y4946650D02*
D03*
X3549650Y3854450D02*
D03*
X1225550Y3841750D02*
D03*
X3524250Y4959350D02*
D03*
D110*
X1851848Y698500D02*
D03*
D111*
X2105848D02*
D03*
D112*
X11163300Y4991100D02*
D03*
X11252200D02*
D03*
X11061700Y4813300D02*
D03*
Y5181600D02*
D03*
Y5092700D02*
D03*
Y5270500D02*
D03*
Y4991100D02*
D03*
Y4902200D02*
D03*
X11163300Y4622800D02*
D03*
X11252200D02*
D03*
X11061700Y4356100D02*
D03*
Y4711700D02*
D03*
Y4533900D02*
D03*
Y4445000D02*
D03*
Y4622800D02*
D03*
X10515600Y4699000D02*
D03*
X10515848Y4603057D02*
D03*
X10515600Y4508500D02*
D03*
X9461500Y4394200D02*
D03*
X9639300D02*
D03*
X9740900D02*
D03*
X9550400D02*
D03*
X9918700D02*
D03*
X9917763Y4295255D02*
D03*
X9829800Y4394200D02*
D03*
X9828863Y4295255D02*
D03*
X9739963D02*
D03*
X9550400Y4292600D02*
D03*
X9639300D02*
D03*
X9461500D02*
D03*
X11239500Y2641600D02*
D03*
X11341100Y2489200D02*
D03*
X11442700D02*
D03*
X11239500Y2552700D02*
D03*
Y2730500D02*
D03*
X11430000Y2159000D02*
D03*
X11328400D02*
D03*
X11239500Y1917700D02*
D03*
Y2006600D02*
D03*
Y2413000D02*
D03*
Y2324100D02*
D03*
Y2235200D02*
D03*
Y2095500D02*
D03*
X10172700Y2247900D02*
D03*
X10350500D02*
D03*
X10261600Y2159000D02*
D03*
Y2247900D02*
D03*
X10350500Y2159000D02*
D03*
Y2070100D02*
D03*
X10261600D02*
D03*
X10172700D02*
D03*
Y2159000D02*
D03*
X4737100Y5181600D02*
D03*
X4648200Y5080000D02*
D03*
X4737100D02*
D03*
Y4978400D02*
D03*
X4648200D02*
D03*
Y5181600D02*
D03*
X2590800Y2489200D02*
D03*
X2654300Y2425700D02*
D03*
X2501900Y2438400D02*
D03*
X2646548Y2293752D02*
D03*
X2578100Y2374900D02*
D03*
X1460500Y2006600D02*
D03*
X2519680Y1351280D02*
D03*
X2622103Y1807205D02*
D03*
X2914650Y1858010D02*
D03*
X2146300Y1701800D02*
D03*
X2463800Y1861010D02*
D03*
X2875926Y1213473D02*
D03*
X10680700Y4241800D02*
D03*
X10401300Y4244701D02*
D03*
X7130801Y2666502D02*
D03*
X6159500Y3619500D02*
D03*
X6248400D02*
D03*
X6159500Y3708400D02*
D03*
X6248400D02*
D03*
X6337300Y3619500D02*
D03*
Y3708400D02*
D03*
X6159500Y3797300D02*
D03*
X6337300D02*
D03*
X6248400D02*
D03*
X3289300Y2222500D02*
D03*
X3378200D02*
D03*
X3200400D02*
D03*
X3378200Y2133600D02*
D03*
Y2044700D02*
D03*
X3289300Y2133600D02*
D03*
X3200400D02*
D03*
X3289300Y2044700D02*
D03*
X3200400D02*
D03*
X3009900Y3073400D02*
D03*
X3098800D02*
D03*
X3009900Y2984500D02*
D03*
X3098800D02*
D03*
X2921000D02*
D03*
Y3073400D02*
D03*
X3098800Y2895600D02*
D03*
X2921000D02*
D03*
X3009900D02*
D03*
X2794000Y3238500D02*
D03*
X5030192Y3734840D02*
D03*
X5029200Y3848100D02*
D03*
X4851400Y3733800D02*
D03*
X4940300D02*
D03*
X4851400Y3848100D02*
D03*
X4940300D02*
D03*
X5295900Y5257800D02*
D03*
X2143948Y1370762D02*
D03*
X3086100Y1473200D02*
D03*
X1886250Y1270000D02*
D03*
X2885440Y1498600D02*
D03*
X1907743Y368503D02*
D03*
X838200Y2768600D02*
D03*
X5293223Y4648525D02*
D03*
X7130801Y2941803D02*
D03*
X8659343Y2593340D02*
D03*
X7536180Y3083001D02*
D03*
%TF.MD5,942c3704c001242c40adcf674c3387aa*%
M02*
