%TF.GenerationSoftware,Altium Limited,Altium Designer,25.7.1 (20)*%
G04 Layer_Physical_Order=2*
G04 Layer_Color=16711680*
%FSLAX45Y45*%
%MOMM*%
%TF.SameCoordinates,9EBC04B8-5010-450C-815D-03E4C15FF4C1*%
%TF.FilePolarity,Positive*%
%TF.FileFunction,Copper,L2,Bot,Signal*%
%TF.Part,Single*%
G01*
G75*
%TA.AperFunction,NonConductor*%
%ADD10C,0.20700*%
%TA.AperFunction,Conductor*%
%ADD47C,0.20000*%
%ADD48C,2.50000*%
%ADD49C,0.25400*%
%ADD54C,2.00000*%
%ADD57C,1.00000*%
%TA.AperFunction,ComponentPad*%
%ADD58C,1.50800*%
%ADD59R,1.50800X1.50800*%
%ADD60O,2.50000X3.00000*%
%ADD61R,1.41600X1.41600*%
%ADD62C,1.41600*%
%TA.AperFunction,ViaPad*%
%ADD63C,0.60000*%
%TA.AperFunction,Conductor*%
%ADD64C,3.00000*%
G36*
X12443196Y5573601D02*
X12485344Y5563482D01*
X12525390Y5546895D01*
X12562349Y5524247D01*
X12595309Y5496096D01*
X12623460Y5463135D01*
X12646108Y5426177D01*
X12662696Y5386131D01*
X12672814Y5343983D01*
X12674690Y5320155D01*
X12676176Y5300770D01*
X12676192Y5300690D01*
X12676192Y5280771D01*
X12676193Y390245D01*
X12676420Y389099D01*
X12671995Y332871D01*
X12658560Y276911D01*
X12636537Y223741D01*
X12606467Y174671D01*
X12569090Y130910D01*
X12525329Y93533D01*
X12476259Y63463D01*
X12423089Y41440D01*
X12367129Y28005D01*
X12310901Y23580D01*
X12309755Y23807D01*
X301242Y23806D01*
X300594Y23935D01*
Y23936D01*
X300555Y23900D01*
X257382Y27297D01*
X215234Y37416D01*
X175187Y54004D01*
X138229Y76652D01*
X105269Y104803D01*
X77118Y137763D01*
X54470Y174722D01*
X37882Y214768D01*
X27763Y256916D01*
X24365Y300089D01*
X24402Y300128D01*
X24401D01*
X24356Y300354D01*
X23807Y319898D01*
X23807Y5300324D01*
X23883Y5300706D01*
X23883D01*
X23847Y5300745D01*
X27245Y5343918D01*
X37364Y5386066D01*
X53952Y5426113D01*
X76600Y5463071D01*
X104751Y5496031D01*
X137711Y5524182D01*
X174669Y5546830D01*
X214715Y5563418D01*
X256864Y5573537D01*
X299936Y5576927D01*
X300076Y5576899D01*
X12399984Y5576893D01*
X12400378Y5576971D01*
X12443196Y5573601D01*
D02*
G37*
%LPC*%
G36*
X12305238Y5270000D02*
X12281962D01*
X12259479Y5263976D01*
X12239321Y5252337D01*
X12222863Y5235879D01*
X12211224Y5215721D01*
X12205200Y5193238D01*
Y5169962D01*
X12211224Y5147479D01*
X12222863Y5127321D01*
X12239321Y5110863D01*
X12259479Y5099224D01*
X12281962Y5093200D01*
X12305238D01*
X12327721Y5099224D01*
X12347879Y5110863D01*
X12364337Y5127321D01*
X12375976Y5147479D01*
X12382000Y5169962D01*
Y5193238D01*
X12375976Y5215721D01*
X12364337Y5235879D01*
X12347879Y5252337D01*
X12327721Y5263976D01*
X12305238Y5270000D01*
D02*
G37*
G36*
X3524250Y5123541D02*
X3488225Y5118798D01*
X3454655Y5104893D01*
X3425827Y5082773D01*
X3403707Y5053945D01*
X3389802Y5020375D01*
X3385059Y4984350D01*
Y4934350D01*
X3389802Y4898325D01*
X3403707Y4864755D01*
X3425827Y4835927D01*
X3454655Y4813807D01*
X3488225Y4799902D01*
X3524250Y4795159D01*
X3560275Y4799902D01*
X3593845Y4813807D01*
X3622673Y4835927D01*
X3644793Y4864755D01*
X3658698Y4898325D01*
X3663441Y4934350D01*
Y4984350D01*
X3658698Y5020375D01*
X3644793Y5053945D01*
X3622673Y5082773D01*
X3593845Y5104893D01*
X3560275Y5118798D01*
X3524250Y5123541D01*
D02*
G37*
G36*
X914400Y5371591D02*
X444500D01*
X408475Y5366848D01*
X374905Y5352943D01*
X346077Y5330823D01*
X323957Y5301995D01*
X310052Y5268425D01*
X305309Y5232400D01*
X310052Y5196375D01*
X323957Y5162805D01*
X346077Y5133977D01*
X374905Y5111857D01*
X408475Y5097952D01*
X444500Y5093209D01*
X856745D01*
X1066672Y4883282D01*
X1079607Y4852055D01*
X1101727Y4823227D01*
X1130555Y4801107D01*
X1164125Y4787202D01*
X1200150Y4782459D01*
X1236175Y4787202D01*
X1269745Y4801107D01*
X1298573Y4823227D01*
X1320693Y4852055D01*
X1334598Y4885625D01*
X1339341Y4921650D01*
Y4971650D01*
X1334598Y5007675D01*
X1320693Y5041245D01*
X1298573Y5070073D01*
X1269745Y5092193D01*
X1238518Y5105128D01*
X1012823Y5330823D01*
X983995Y5352943D01*
X950425Y5366848D01*
X914400Y5371591D01*
D02*
G37*
G36*
X5304453Y5300800D02*
X5287347D01*
X5271542Y5294254D01*
X5259446Y5282158D01*
X5252900Y5266353D01*
Y5249247D01*
X5259446Y5233442D01*
X5271111Y5221778D01*
Y4685909D01*
X5268865Y4684979D01*
X5256769Y4672883D01*
X5250223Y4657078D01*
Y4639972D01*
X5256769Y4624168D01*
X5268865Y4612072D01*
X5284670Y4605525D01*
X5301776D01*
X5317580Y4612072D01*
X5329676Y4624168D01*
X5336223Y4639972D01*
Y4657078D01*
X5329676Y4672883D01*
X5318012Y4684547D01*
Y5220416D01*
X5320258Y5221346D01*
X5332354Y5233442D01*
X5338900Y5249247D01*
Y5266353D01*
X5332354Y5282158D01*
X5320258Y5294254D01*
X5304453Y5300800D01*
D02*
G37*
G36*
X10409853Y4287701D02*
X10392747D01*
X10376942Y4281154D01*
X10364846Y4269058D01*
X10358300Y4253254D01*
Y4236147D01*
X10364846Y4220343D01*
X10376942Y4208247D01*
X10392747Y4201701D01*
X10409853D01*
X10425658Y4208247D01*
X10434457Y4217047D01*
X10644642D01*
X10656342Y4205346D01*
X10672147Y4198800D01*
X10689253D01*
X10705058Y4205346D01*
X10717154Y4217442D01*
X10723700Y4233247D01*
Y4250353D01*
X10717154Y4266158D01*
X10705058Y4278254D01*
X10689253Y4284800D01*
X10672147D01*
X10656342Y4278254D01*
X10647543Y4269454D01*
X10437358D01*
X10425658Y4281154D01*
X10409853Y4287701D01*
D02*
G37*
G36*
X3549650Y4018641D02*
X3513625Y4013898D01*
X3480055Y3999993D01*
X3451227Y3977873D01*
X3429107Y3949045D01*
X3415202Y3915475D01*
X3410459Y3879450D01*
Y3829450D01*
X3415202Y3793425D01*
X3429107Y3759855D01*
X3451227Y3731027D01*
X3480055Y3708907D01*
X3513625Y3695002D01*
X3549650Y3690259D01*
X3585675Y3695002D01*
X3619245Y3708907D01*
X3648073Y3731027D01*
X3670193Y3759855D01*
X3684098Y3793425D01*
X3688841Y3829450D01*
Y3879450D01*
X3684098Y3915475D01*
X3670193Y3949045D01*
X3648073Y3977873D01*
X3619245Y3999993D01*
X3585675Y4013898D01*
X3549650Y4018641D01*
D02*
G37*
G36*
X926700Y4329389D02*
X926697Y4329389D01*
X482600D01*
X450647Y4326242D01*
X419921Y4316921D01*
X391604Y4301785D01*
X366784Y4281416D01*
X346415Y4256596D01*
X331279Y4228279D01*
X321958Y4197553D01*
X318811Y4165600D01*
X321958Y4133647D01*
X331279Y4102921D01*
X346415Y4074604D01*
X366784Y4049784D01*
X391604Y4029415D01*
X419921Y4014279D01*
X450647Y4004958D01*
X482600Y4001811D01*
X858856D01*
X1098992Y3761675D01*
X1105007Y3747155D01*
X1127127Y3718327D01*
X1155955Y3696207D01*
X1189525Y3682302D01*
X1225550Y3677559D01*
X1261575Y3682302D01*
X1295145Y3696207D01*
X1323973Y3718327D01*
X1346093Y3747155D01*
X1354070Y3766414D01*
X1361735Y3775754D01*
X1376871Y3804071D01*
X1386191Y3834796D01*
X1389339Y3866750D01*
X1386191Y3898704D01*
X1376871Y3929429D01*
X1361735Y3957746D01*
X1341366Y3982566D01*
X1042516Y4281416D01*
X1017696Y4301785D01*
X989379Y4316921D01*
X958653Y4326242D01*
X942677Y4327815D01*
X926700Y4329389D01*
D02*
G37*
G36*
X584200Y3976471D02*
X330200D01*
X320250Y3972350D01*
X316129Y3962400D01*
Y3690227D01*
X316844Y3688500D01*
X316592Y3686647D01*
X321446Y3668194D01*
X321709Y3666201D01*
X333095Y3638713D01*
X351207Y3615107D01*
X516307Y3450007D01*
X539913Y3431895D01*
X567401Y3420508D01*
X596900Y3416625D01*
X596902Y3416625D01*
X4648200D01*
X4677699Y3420509D01*
X4705187Y3431895D01*
X4728793Y3450007D01*
X4922314Y3643529D01*
X5118100D01*
X5128050Y3647650D01*
X5132171Y3657600D01*
Y3924300D01*
X5128050Y3934250D01*
X5118100Y3938371D01*
X4749800D01*
X4739850Y3934250D01*
X4735729Y3924300D01*
Y3779314D01*
X4600990Y3644575D01*
X644110D01*
X598271Y3690414D01*
Y3962400D01*
X594150Y3972350D01*
X584200Y3976471D01*
D02*
G37*
G36*
X12305238Y3034800D02*
X12281962D01*
X12259479Y3028776D01*
X12239321Y3017137D01*
X12222863Y3000679D01*
X12211224Y2980521D01*
X12205200Y2958038D01*
Y2934762D01*
X12211224Y2912279D01*
X12222863Y2892121D01*
X12239321Y2875663D01*
X12259479Y2864024D01*
X12281962Y2858000D01*
X12305238D01*
X12327721Y2864024D01*
X12347879Y2875663D01*
X12364337Y2892121D01*
X12375976Y2912279D01*
X12382000Y2934762D01*
Y2958038D01*
X12375976Y2980521D01*
X12364337Y3000679D01*
X12347879Y3017137D01*
X12327721Y3028776D01*
X12305238Y3034800D01*
D02*
G37*
G36*
X7139354Y2984803D02*
X7122248D01*
X7106443Y2978256D01*
X7094348Y2966160D01*
X7087801Y2950356D01*
Y2933249D01*
X7094348Y2917445D01*
X7106443Y2905349D01*
X7107351Y2904973D01*
Y2703331D01*
X7106443Y2702956D01*
X7094348Y2690860D01*
X7087801Y2675055D01*
Y2657949D01*
X7094348Y2642145D01*
X7106443Y2630049D01*
X7122248Y2623502D01*
X7139354D01*
X7155159Y2630049D01*
X7167255Y2642145D01*
X7173801Y2657949D01*
Y2675055D01*
X7167255Y2690860D01*
X7155159Y2702956D01*
X7154252Y2703331D01*
Y2904973D01*
X7155159Y2905349D01*
X7167255Y2917445D01*
X7173801Y2933249D01*
Y2950356D01*
X7167255Y2966160D01*
X7155159Y2978256D01*
X7139354Y2984803D01*
D02*
G37*
G36*
X7544733Y3126001D02*
X7527627D01*
X7511822Y3119455D01*
X7499726Y3107359D01*
X7493180Y3091554D01*
Y3074448D01*
X7499726Y3058644D01*
X7511822Y3046548D01*
X7527627Y3040001D01*
X7544733D01*
X7560538Y3046548D01*
X7572634Y3058644D01*
X7573009Y3059551D01*
X8159968D01*
X8616718Y2602800D01*
X8616343Y2601893D01*
Y2584787D01*
X8622889Y2568982D01*
X8634985Y2556886D01*
X8650789Y2550340D01*
X8667896D01*
X8683700Y2556886D01*
X8695796Y2568982D01*
X8702343Y2584787D01*
Y2601893D01*
X8695796Y2617698D01*
X8683700Y2629794D01*
X8667896Y2636340D01*
X8650789D01*
X8649883Y2635964D01*
X8186264Y3099583D01*
X8178655Y3104667D01*
X8169681Y3106452D01*
X8169680Y3106452D01*
X7573009D01*
X7572634Y3107359D01*
X7560538Y3119455D01*
X7544733Y3126001D01*
D02*
G37*
G36*
X6400800Y3887571D02*
X6108700D01*
X6098750Y3883450D01*
X6094629Y3873500D01*
Y3748934D01*
X4618485Y2272791D01*
X3455771D01*
Y2298700D01*
X3451650Y2308650D01*
X3441700Y2312771D01*
X3306974D01*
X3149091Y2470655D01*
Y2805329D01*
X3149600D01*
X3159550Y2809450D01*
X3163671Y2819400D01*
Y3149600D01*
X3159550Y3159550D01*
X3149600Y3163671D01*
X3114578D01*
X3108323Y3171823D01*
X3079495Y3193943D01*
X3045925Y3207848D01*
X3009900Y3212591D01*
X2973875Y3207848D01*
X2940305Y3193943D01*
X2911477Y3171823D01*
X2905222Y3163671D01*
X2870200D01*
X2860250Y3159550D01*
X2856129Y3149600D01*
Y2819400D01*
X2860250Y2809450D01*
X2870200Y2805329D01*
X2870709D01*
Y2413000D01*
X2875452Y2376975D01*
X2889357Y2343405D01*
X2911477Y2314577D01*
X3101977Y2124077D01*
X3135529Y2090526D01*
Y1981200D01*
X3139650Y1971250D01*
X3149600Y1967129D01*
X3441700D01*
X3451650Y1971250D01*
X3455771Y1981200D01*
Y1994409D01*
X4676140D01*
X4712165Y1999152D01*
X4745735Y2013057D01*
X4774563Y2035177D01*
X6281314Y3541929D01*
X6400800D01*
X6410750Y3546050D01*
X6414871Y3556000D01*
Y3873500D01*
X6410750Y3883450D01*
X6400800Y3887571D01*
D02*
G37*
G36*
X2802553Y3281500D02*
X2785447D01*
X2769642Y3274954D01*
X2757546Y3262858D01*
X2751000Y3247053D01*
Y3229947D01*
X2753910Y3222922D01*
X2739318Y3208330D01*
X2734235Y3200722D01*
X2732449Y3191747D01*
X2732449Y3191746D01*
Y2146301D01*
X2732449Y2146300D01*
X2734235Y2137326D01*
X2739318Y2129718D01*
X2869627Y1999408D01*
X2859775Y1980976D01*
X2854960Y1981934D01*
X2520490D01*
X2495909Y1977045D01*
X2475070Y1963120D01*
X2437193Y1925244D01*
X1772397D01*
X883620Y2814020D01*
X862781Y2827945D01*
X838200Y2832834D01*
X813619Y2827945D01*
X792780Y2814020D01*
X778855Y2793181D01*
X773966Y2768600D01*
X778855Y2744019D01*
X792780Y2723180D01*
X1447882Y2068078D01*
X1442138Y2045537D01*
X1436142Y2043054D01*
X1424046Y2030958D01*
X1417500Y2015153D01*
Y1998047D01*
X1424046Y1982242D01*
X1436142Y1970146D01*
X1437049Y1969771D01*
Y1955801D01*
X1437049Y1955800D01*
X1438835Y1946826D01*
X1443918Y1939218D01*
X1611707Y1771429D01*
X1611708Y1771428D01*
X1619316Y1766344D01*
X1628290Y1764559D01*
X1628291Y1764559D01*
X1973913D01*
X1989754Y1748719D01*
X1989754Y1748718D01*
X1997362Y1743635D01*
X2006337Y1741849D01*
X2097254D01*
X2101927Y1736026D01*
X2108062Y1721849D01*
X2103300Y1710353D01*
Y1693247D01*
X2109846Y1677442D01*
X2121673Y1665615D01*
Y1408078D01*
X2119590Y1407215D01*
X2107494Y1395119D01*
X2100948Y1379315D01*
Y1362209D01*
X2107494Y1346404D01*
X2119590Y1334308D01*
X2135395Y1327762D01*
X2152501D01*
X2168306Y1334308D01*
X2180402Y1346404D01*
X2186948Y1362209D01*
Y1379315D01*
X2180402Y1395119D01*
X2168575Y1406946D01*
Y1664484D01*
X2170658Y1665346D01*
X2182754Y1677442D01*
X2189300Y1693247D01*
Y1710353D01*
X2184538Y1721849D01*
X2190673Y1736026D01*
X2195346Y1741849D01*
X2495299D01*
X2503820Y1722087D01*
X2503098Y1721364D01*
X2498015Y1713756D01*
X2496229Y1704782D01*
X2496229Y1704781D01*
Y1388109D01*
X2495322Y1387734D01*
X2483226Y1375638D01*
X2476680Y1359833D01*
Y1342727D01*
X2483226Y1326922D01*
X2495322Y1314826D01*
X2498644Y1313451D01*
X2494666Y1293451D01*
X1923079D01*
X1922703Y1294358D01*
X1910607Y1306454D01*
X1894803Y1313000D01*
X1877697D01*
X1861892Y1306454D01*
X1849796Y1294358D01*
X1843250Y1278553D01*
Y1261447D01*
X1849796Y1245642D01*
X1861892Y1233546D01*
X1877697Y1227000D01*
X1894803D01*
X1910607Y1233546D01*
X1922703Y1245642D01*
X1923079Y1246549D01*
X2537647D01*
X2537648Y1246549D01*
X2546622Y1248335D01*
X2554230Y1253418D01*
X2829862Y1529050D01*
X2846817Y1517721D01*
X2842440Y1507153D01*
Y1490047D01*
X2848986Y1474242D01*
X2861082Y1462146D01*
X2861989Y1461771D01*
Y1307653D01*
X1958762Y404427D01*
X1944197Y392861D01*
X1932101Y404957D01*
X1916296Y411503D01*
X1899190D01*
X1883386Y404957D01*
X1871290Y392861D01*
X1864743Y377056D01*
Y359950D01*
X1871290Y344146D01*
X1883386Y332050D01*
X1899190Y325503D01*
X1916296D01*
X1932101Y332050D01*
X1944197Y344146D01*
X1944572Y345053D01*
X1956002D01*
X1956003Y345052D01*
X1964977Y346838D01*
X1972585Y351921D01*
X2815469Y1194805D01*
X2839060Y1190112D01*
X2839473Y1189116D01*
X2851569Y1177020D01*
X2867373Y1170473D01*
X2884480D01*
X2900284Y1177020D01*
X2912380Y1189116D01*
X2918926Y1204920D01*
Y1222027D01*
X2918551Y1222933D01*
X3095029Y1399411D01*
X3100112Y1407019D01*
X3101897Y1415993D01*
X3101897Y1415995D01*
Y1433201D01*
X3110458Y1436746D01*
X3122554Y1448842D01*
X3129100Y1464647D01*
Y1481753D01*
X3122554Y1497558D01*
X3110458Y1509654D01*
X3094653Y1516200D01*
X3077547D01*
X3061742Y1509654D01*
X3049646Y1497558D01*
X3043100Y1481753D01*
Y1464647D01*
X3049646Y1448842D01*
X3054996Y1443493D01*
Y1425707D01*
X2928891Y1299602D01*
X2908891Y1307886D01*
Y1461771D01*
X2909798Y1462146D01*
X2921894Y1474242D01*
X2928440Y1490047D01*
Y1507153D01*
X2921894Y1522958D01*
X2909798Y1535054D01*
X2893993Y1541600D01*
X2876887D01*
X2866319Y1537223D01*
X2854990Y1554178D01*
X3013782Y1712970D01*
X3018865Y1720578D01*
X3020651Y1729552D01*
Y1904999D01*
X3020651Y1905000D01*
X3018865Y1913974D01*
X3013782Y1921582D01*
X2779351Y2156014D01*
Y3182034D01*
X2792817Y3195500D01*
X2802553D01*
X2818358Y3202046D01*
X2830454Y3214142D01*
X2837000Y3229947D01*
Y3247053D01*
X2830454Y3262858D01*
X2818358Y3274954D01*
X2802553Y3281500D01*
D02*
G37*
G36*
X2116880Y782300D02*
X2094815D01*
X2073502Y776589D01*
X2054394Y765557D01*
X2038791Y749954D01*
X2027759Y730846D01*
X2022048Y709532D01*
Y687468D01*
X2027759Y666154D01*
X2038791Y647046D01*
X2054394Y631443D01*
X2073502Y620411D01*
X2094815Y614700D01*
X2116880D01*
X2138194Y620411D01*
X2157302Y631443D01*
X2172905Y647046D01*
X2183937Y666154D01*
X2189648Y687468D01*
Y709532D01*
X2183937Y730846D01*
X2172905Y749954D01*
X2157302Y765557D01*
X2138194Y776589D01*
X2116880Y782300D01*
D02*
G37*
%LPD*%
G36*
X584200Y3670300D02*
X335442D01*
X330200Y3690227D01*
Y3962400D01*
X584200D01*
Y3670300D01*
D02*
G37*
G36*
X5118100Y3657600D02*
X4749800D01*
Y3924300D01*
X5118100D01*
Y3657600D01*
D02*
G37*
G36*
X6400800Y3556000D02*
X6108700D01*
Y3873500D01*
X6400800D01*
Y3556000D01*
D02*
G37*
G36*
X3149600Y2819400D02*
X2870200D01*
Y3149600D01*
X3149600D01*
Y2819400D01*
D02*
G37*
G36*
X3441700Y1981200D02*
X3149600D01*
Y2298700D01*
X3441700D01*
Y1981200D01*
D02*
G37*
G36*
X2869230Y1812590D02*
X2890069Y1798665D01*
X2914650Y1793776D01*
X2939231Y1798665D01*
X2953749Y1808366D01*
X2973749Y1799803D01*
Y1739266D01*
X2582680Y1348196D01*
X2562680Y1356481D01*
Y1359833D01*
X2556134Y1375638D01*
X2544038Y1387734D01*
X2543131Y1388109D01*
Y1695068D01*
X2612643Y1764581D01*
X2613550Y1764205D01*
X2630656D01*
X2646461Y1770751D01*
X2658557Y1782847D01*
X2665103Y1798652D01*
Y1815758D01*
X2658557Y1831563D01*
X2656653Y1833466D01*
X2664938Y1853466D01*
X2828353D01*
X2869230Y1812590D01*
D02*
G37*
D10*
X594Y300128D02*
G03*
X300594Y128I300000J0D01*
G01*
X300076Y5600706D02*
G03*
X76Y5300706I0J-300000D01*
G01*
X12699984Y5300771D02*
G03*
X12399984Y5600771I-300000J0D01*
G01*
X12309755Y0D02*
G03*
X12700000Y390245I0J390245D01*
G01*
X-0Y5300706D02*
X0Y300128D01*
X300594Y-1D02*
X12309755Y0D01*
X300076Y5600706D02*
X12399984Y5600700D01*
X12700000Y5300771D02*
X12700000Y390245D01*
D47*
X1225550Y3841750D02*
Y3866750D01*
X1460500Y1955800D02*
X1628290Y1788010D01*
X1983627D01*
X1460500Y1955800D02*
Y2006600D01*
X2006337Y1765300D02*
X2503249D01*
X1983627Y1788010D02*
X2006337Y1765300D01*
X2503249D02*
X2545154Y1807205D01*
X2622103D01*
X2519680Y1351280D02*
Y1704782D01*
X2622103Y1807205D01*
X2997200Y1729552D02*
Y1905000D01*
X2537648Y1270000D02*
X2997200Y1729552D01*
X2755900Y2146300D02*
X2997200Y1905000D01*
X2143948Y1370762D02*
X2145124Y1371938D01*
Y1700624D01*
X2146300Y1701800D01*
X2885440Y1297940D02*
Y1498600D01*
X1907743Y368503D02*
X1956003D01*
X3078446Y1465546D02*
X3086100Y1473200D01*
X1956003Y368503D02*
X2885440Y1297940D01*
X3078446Y1415993D02*
Y1465546D01*
X2875926Y1213473D02*
X3078446Y1415993D01*
X7130801Y2666502D02*
Y2941803D01*
Y2654300D02*
X7130842D01*
X7130801D02*
Y2666502D01*
X7130842Y2654300D02*
X7142963Y2654341D01*
X2755900Y2146300D02*
Y3191747D01*
X2794000Y3229847D01*
Y3238500D01*
X5293223Y4648525D02*
X5294561Y4649864D01*
Y5256461D01*
X5295900Y5257800D01*
X1886250Y1270000D02*
X2537648D01*
X8169681Y3083001D02*
X8659343Y2593340D01*
X7536180Y3083001D02*
X8169681D01*
D48*
X444500Y5232400D02*
X914400D01*
X1175150Y4971650D01*
X1200150D01*
Y4946650D02*
Y4971650D01*
X6248400Y3705860D02*
Y3708400D01*
X4676140Y2133600D02*
X6248400Y3705860D01*
X3289300Y2133600D02*
X3378200D01*
X4676140D01*
X3009900Y2413000D02*
X3200400Y2222500D01*
X3009900Y2895600D02*
Y2984500D01*
Y2413000D02*
Y2895600D01*
X3200400Y2222500D02*
X3289300Y2133600D01*
X3009900Y2984500D02*
Y3073400D01*
D49*
X10402750Y4243250D02*
X10679250D01*
X10680700Y4241800D01*
X10401300Y4244701D02*
X10402750Y4243250D01*
D54*
X4851400Y3733800D02*
X4876800Y3759200D01*
X4648200Y3530600D02*
X4851400Y3733800D01*
X596900Y3530600D02*
X4648200D01*
X431800Y3695700D02*
X596900Y3530600D01*
D57*
X838200Y2768600D02*
X1745790Y1861010D01*
X2463800D01*
X2854960Y1917700D02*
X2914650Y1858010D01*
X2520490Y1917700D02*
X2854960D01*
X2463800Y1861010D02*
X2520490Y1917700D01*
D58*
X444500Y5232400D02*
D03*
X12293600Y5181600D02*
D03*
Y2946400D02*
D03*
X444500Y4127500D02*
D03*
D59*
Y4978400D02*
D03*
Y3873500D02*
D03*
X12293600Y2692400D02*
D03*
Y4927600D02*
D03*
D60*
X1200150Y4946650D02*
D03*
X3549650Y3854450D02*
D03*
X1225550Y3841750D02*
D03*
X3524250Y4959350D02*
D03*
D61*
X1851848Y698500D02*
D03*
D62*
X2105848D02*
D03*
D63*
X12420600Y3136900D02*
D03*
X12103100Y3149600D02*
D03*
X12052300Y4826000D02*
D03*
X12082593Y2452696D02*
D03*
X12382592D02*
D03*
X12532592Y2752696D02*
D03*
X832596Y3952696D02*
D03*
Y4552695D02*
D03*
X6532594Y1552696D02*
D03*
X6382594Y2452696D02*
D03*
X1732596Y4552695D02*
D03*
X11182593Y652697D02*
D03*
X6232594Y352697D02*
D03*
X1282596Y652697D02*
D03*
X11632593Y3952696D02*
D03*
X1132596Y2152696D02*
D03*
X8182594Y2452696D02*
D03*
X3682595Y4852695D02*
D03*
X4132595Y952697D02*
D03*
X9682593Y652697D02*
D03*
X12232593Y2152696D02*
D03*
X11332593Y952697D02*
D03*
X10732593Y352697D02*
D03*
X1132596Y4552695D02*
D03*
X8482594Y1252697D02*
D03*
X2932595Y3952696D02*
D03*
X11482593Y3052696D02*
D03*
X10882593Y1252697D02*
D03*
X82596D02*
D03*
X4282595Y4852695D02*
D03*
X10582593Y3052696D02*
D03*
X7582594Y652697D02*
D03*
X6982594Y3052696D02*
D03*
X9082593Y2452696D02*
D03*
X232596Y1552696D02*
D03*
X11482593Y3652696D02*
D03*
X6532594Y952697D02*
D03*
X12082593Y4252696D02*
D03*
X10882593Y652697D02*
D03*
X12082593Y1252697D02*
D03*
X6682594Y2452696D02*
D03*
X6832594Y2152696D02*
D03*
X8182594Y1852696D02*
D03*
X5482595Y1252697D02*
D03*
X1432596Y5152695D02*
D03*
X8632594Y1552696D02*
D03*
X5332595Y2152696D02*
D03*
X7432594Y1552696D02*
D03*
X7882594Y1252697D02*
D03*
X5782594Y2452696D02*
D03*
X11932593Y952697D02*
D03*
X3382595Y652697D02*
D03*
X5182595Y1852696D02*
D03*
X9832593Y5152695D02*
D03*
X9232593Y352697D02*
D03*
X2632595Y2752696D02*
D03*
X82596Y2452696D02*
D03*
X11332593Y352697D02*
D03*
X7582594Y1852696D02*
D03*
X1432596Y4552695D02*
D03*
X6532594Y2752696D02*
D03*
X9382593Y4252696D02*
D03*
X232596Y352697D02*
D03*
X1432596Y2752696D02*
D03*
X11482593Y652697D02*
D03*
X682596D02*
D03*
X10744200Y3937000D02*
D03*
X7732594Y952697D02*
D03*
X7432594D02*
D03*
X9832593Y2152696D02*
D03*
X1882596Y4252696D02*
D03*
X10132593Y5152695D02*
D03*
X10432593Y1552696D02*
D03*
X3832595Y352697D02*
D03*
X2932595Y5152695D02*
D03*
X1282596Y4252696D02*
D03*
X6232594Y1552696D02*
D03*
X9382593Y3052696D02*
D03*
X6682594Y652697D02*
D03*
X3082595Y1252697D02*
D03*
X9232593Y2152696D02*
D03*
X12232593Y1552696D02*
D03*
X6232594Y3352696D02*
D03*
X6682594Y1252697D02*
D03*
X5482595Y1852696D02*
D03*
X9682593D02*
D03*
X11332593Y3352696D02*
D03*
X11932593Y352697D02*
D03*
X8782594Y652697D02*
D03*
X6382594D02*
D03*
X382596Y1852696D02*
D03*
X3532595Y4552695D02*
D03*
X532596Y952697D02*
D03*
X6232594Y2752696D02*
D03*
X9832593Y952697D02*
D03*
X1432596Y352697D02*
D03*
X7132594Y3352696D02*
D03*
X6532594Y3952696D02*
D03*
X5182595Y4852695D02*
D03*
X9532593Y952697D02*
D03*
X10882593Y4852695D02*
D03*
X532596Y1552696D02*
D03*
X11182593Y4252696D02*
D03*
X10882593Y2452696D02*
D03*
X9532593Y2152696D02*
D03*
X9682593Y3052696D02*
D03*
X9082593Y3652696D02*
D03*
X5182595Y3052696D02*
D03*
X6082594Y1852696D02*
D03*
X4582595Y3052696D02*
D03*
X4732595Y352697D02*
D03*
X5932594Y2152696D02*
D03*
X8032594Y1552696D02*
D03*
X2482595Y4852695D02*
D03*
X7432594Y352697D02*
D03*
X12532592Y3352696D02*
D03*
X7882594Y3652696D02*
D03*
X9382593Y1252697D02*
D03*
X12232593Y952697D02*
D03*
X4882595Y1852696D02*
D03*
X9082593Y1252697D02*
D03*
X9532593Y5152695D02*
D03*
X11782593Y652697D02*
D03*
X1882596Y4852695D02*
D03*
X9982593Y3052696D02*
D03*
X382596Y652697D02*
D03*
X6382594Y3052696D02*
D03*
X8782594Y2452696D02*
D03*
X12082593Y3652696D02*
D03*
X9232593Y1552696D02*
D03*
X8332594Y2752696D02*
D03*
X6982594Y1852696D02*
D03*
X6082594Y2452696D02*
D03*
X5638800Y4660900D02*
D03*
X382596Y1252697D02*
D03*
X5032595Y1552696D02*
D03*
X1282596Y1252697D02*
D03*
X5932594Y3952696D02*
D03*
X9082593Y652697D02*
D03*
X8332594Y5152695D02*
D03*
X8482594Y2452696D02*
D03*
X7732594Y352697D02*
D03*
X5782594Y3652696D02*
D03*
X232596Y952697D02*
D03*
X5632595Y2152696D02*
D03*
X12082593Y1852696D02*
D03*
X8182594Y3652696D02*
D03*
X832596Y2152696D02*
D03*
X10582593Y1252697D02*
D03*
X3232595Y2752696D02*
D03*
X8482594Y4852695D02*
D03*
X4282595Y1252697D02*
D03*
X5632595Y952697D02*
D03*
X6532594Y352697D02*
D03*
X10132593D02*
D03*
X9232593Y3952696D02*
D03*
X4432595Y352697D02*
D03*
X12232593Y3952696D02*
D03*
X982596Y1252697D02*
D03*
X4582595Y4252696D02*
D03*
X1432596Y3952696D02*
D03*
X7732594Y3352696D02*
D03*
X7132594Y4552695D02*
D03*
X5932594Y952697D02*
D03*
X382596Y3052696D02*
D03*
X4582595Y1852696D02*
D03*
X1582596Y2452696D02*
D03*
X8332594Y2152696D02*
D03*
X3382595Y1252697D02*
D03*
X7882594Y652697D02*
D03*
X6982594D02*
D03*
X4732595Y2752696D02*
D03*
X9082593Y3052696D02*
D03*
X9532593Y3352696D02*
D03*
X5482595Y3652696D02*
D03*
X6832594Y4552695D02*
D03*
X9532593Y3952696D02*
D03*
X3232595D02*
D03*
X2006600Y1689100D02*
D03*
X5486400Y4343400D02*
D03*
X10732593Y952697D02*
D03*
X1732596Y5152695D02*
D03*
X1882596Y2452696D02*
D03*
X3082595Y4252696D02*
D03*
X4132595Y3952696D02*
D03*
X10132593Y952697D02*
D03*
X2482595Y652697D02*
D03*
X8782594Y1852696D02*
D03*
Y4252696D02*
D03*
X232596Y4552695D02*
D03*
X11032593Y952697D02*
D03*
X4882595Y4852695D02*
D03*
X682596D02*
D03*
X1732596Y2752696D02*
D03*
X10515600Y4406900D02*
D03*
X982596Y2452696D02*
D03*
X2332596Y5152695D02*
D03*
X7732594Y1552696D02*
D03*
X10732593Y3352696D02*
D03*
X8782594Y3652696D02*
D03*
X6082594Y3052696D02*
D03*
X10132593Y3352696D02*
D03*
X11182593Y1252697D02*
D03*
X7882594Y1852696D02*
D03*
X5182595Y3652696D02*
D03*
X532596Y3352696D02*
D03*
X8632594Y952697D02*
D03*
X3082595Y652697D02*
D03*
X8182594D02*
D03*
X3532595Y352697D02*
D03*
X5032595Y952697D02*
D03*
X9532593Y1552696D02*
D03*
X10282593Y1852696D02*
D03*
Y4252696D02*
D03*
X10432593Y352697D02*
D03*
X7582594Y1252697D02*
D03*
X5032595Y2752696D02*
D03*
X9982593Y1852696D02*
D03*
X8482594Y652697D02*
D03*
X7282594Y4252696D02*
D03*
X6982594Y2452696D02*
D03*
X5932594Y2752696D02*
D03*
X3832595Y3352696D02*
D03*
X5632595Y1552696D02*
D03*
X232596Y3952696D02*
D03*
X11782593Y4252696D02*
D03*
X10882593Y3052696D02*
D03*
X10582593Y3652696D02*
D03*
X5182595Y652697D02*
D03*
X6082594Y1252697D02*
D03*
X11032593Y2752696D02*
D03*
X11632593Y1552696D02*
D03*
X12382592Y1852696D02*
D03*
X4132595Y4552695D02*
D03*
X982596Y652697D02*
D03*
X10582593D02*
D03*
X4132595Y3352696D02*
D03*
X532596Y352697D02*
D03*
X10432593Y952697D02*
D03*
X7882594Y4252696D02*
D03*
X10282593Y3052696D02*
D03*
X1132596Y952697D02*
D03*
X10282593Y3652696D02*
D03*
X9382593Y1852696D02*
D03*
X532596Y2152696D02*
D03*
X7282594Y1852696D02*
D03*
X8182594Y1252697D02*
D03*
X3232595Y352697D02*
D03*
X8632594Y5152695D02*
D03*
X382596Y2452696D02*
D03*
X4282595Y652697D02*
D03*
X9982593D02*
D03*
X9532593Y352697D02*
D03*
X5332595Y952697D02*
D03*
X82596Y4252696D02*
D03*
X5632595Y3352696D02*
D03*
X2032596Y2752696D02*
D03*
X82596Y3052696D02*
D03*
X1132596Y352697D02*
D03*
X82596Y4852695D02*
D03*
X5932594Y1552696D02*
D03*
X4732595Y3352696D02*
D03*
X11150600Y3670300D02*
D03*
X1132596Y2752696D02*
D03*
X12532592Y5152695D02*
D03*
X3382595Y4252696D02*
D03*
X3982595Y3052696D02*
D03*
X8032594Y3352696D02*
D03*
X10282593Y1252697D02*
D03*
X832596Y952697D02*
D03*
X1732596Y3952696D02*
D03*
X6682594Y3052696D02*
D03*
X6982594Y3652696D02*
D03*
X532596Y4552695D02*
D03*
X5782594Y1852696D02*
D03*
X8182594Y4252696D02*
D03*
X3532595Y3352696D02*
D03*
X7282594Y652697D02*
D03*
X3682595Y2452696D02*
D03*
X82596Y3652696D02*
D03*
X9982593Y1252697D02*
D03*
X232596Y2752696D02*
D03*
X8032594Y952697D02*
D03*
X5932594Y352697D02*
D03*
X5782594Y652697D02*
D03*
X6232594Y2152696D02*
D03*
X8932594Y1552696D02*
D03*
X7282594Y3652696D02*
D03*
X6832594Y352697D02*
D03*
X5032595Y3352696D02*
D03*
X2032596Y352697D02*
D03*
X9232593Y4552695D02*
D03*
X4132595Y352697D02*
D03*
X9832593D02*
D03*
X8032594D02*
D03*
X9232593Y5152695D02*
D03*
X6232594Y952697D02*
D03*
X6382594Y4852695D02*
D03*
X12382592Y3652696D02*
D03*
X6832594Y952697D02*
D03*
X1582596Y652697D02*
D03*
X9982593Y3652696D02*
D03*
X6682594Y4852695D02*
D03*
X2032596Y4552695D02*
D03*
X982596Y3052696D02*
D03*
X11482593Y1252697D02*
D03*
X8632594Y2152696D02*
D03*
X1582596Y4252696D02*
D03*
X7132594Y2152696D02*
D03*
X8032594Y5152695D02*
D03*
X3232595Y952697D02*
D03*
X5032595Y2152696D02*
D03*
X5632595Y3952696D02*
D03*
X9832593Y3352696D02*
D03*
X5332595Y352697D02*
D03*
X1732596D02*
D03*
X8332594Y3352696D02*
D03*
X11932593Y3952696D02*
D03*
X1132596Y1552696D02*
D03*
X11032593Y3352696D02*
D03*
X7582594Y4252696D02*
D03*
X12382592Y1252697D02*
D03*
X2932595Y352697D02*
D03*
X12232593Y4552695D02*
D03*
X8332594Y1552696D02*
D03*
X9382593Y3652696D02*
D03*
X4282595Y4252696D02*
D03*
X1132596Y3352696D02*
D03*
X7282594Y1252697D02*
D03*
X12382592Y4252696D02*
D03*
X6532594Y2152696D02*
D03*
X6082594Y4252696D02*
D03*
X7132594Y952697D02*
D03*
X8632594Y352697D02*
D03*
X5482595Y2452696D02*
D03*
X4882595Y3052696D02*
D03*
X682596Y1252697D02*
D03*
X3982595Y652697D02*
D03*
X9232593Y952697D02*
D03*
X4582595Y652697D02*
D03*
X12532592Y2152696D02*
D03*
X8932594Y952697D02*
D03*
X4582595Y4852695D02*
D03*
X8332594Y4552695D02*
D03*
X5632595Y352697D02*
D03*
X832596Y1552696D02*
D03*
X3682595Y652697D02*
D03*
X8932594Y2152696D02*
D03*
X7132594Y1552696D02*
D03*
X11632593Y952697D02*
D03*
X6382594Y1852696D02*
D03*
X3532595Y2752696D02*
D03*
X5182595Y1252697D02*
D03*
X12532592Y352697D02*
D03*
X11239500Y3924300D02*
D03*
X682596Y3052696D02*
D03*
X8332594Y352697D02*
D03*
X6832594Y3352696D02*
D03*
X4282595Y3052696D02*
D03*
X2632595Y352697D02*
D03*
X12532592Y952697D02*
D03*
X11782593Y1252697D02*
D03*
X11632593Y352697D02*
D03*
X232596Y3352696D02*
D03*
X11782593Y3652696D02*
D03*
X4432595Y3952696D02*
D03*
X11932593Y2152696D02*
D03*
X7432594Y3352696D02*
D03*
X4882595Y652697D02*
D03*
X232596Y5152695D02*
D03*
X10845800Y3657600D02*
D03*
X12232593Y3352696D02*
D03*
X10432593D02*
D03*
X5332595Y1552696D02*
D03*
X2032596Y5152695D02*
D03*
X2782595Y652697D02*
D03*
X4882595Y1252697D02*
D03*
X10732593Y2752696D02*
D03*
X2632595Y5152695D02*
D03*
X2182596Y4852695D02*
D03*
X8932594Y352697D02*
D03*
X232596Y2152696D02*
D03*
X10132593Y1552696D02*
D03*
X8782594Y1252697D02*
D03*
X2332596Y2752696D02*
D03*
X4432595Y3352696D02*
D03*
X5332595D02*
D03*
X11019640Y3932183D02*
D03*
X12532592Y4552695D02*
D03*
X5632595Y2752696D02*
D03*
X12532592Y3952696D02*
D03*
X11932593Y3352696D02*
D03*
X2332596Y352697D02*
D03*
X6682594Y1852696D02*
D03*
X5332595Y3952696D02*
D03*
X7582594Y3652696D02*
D03*
X6382594Y1252697D02*
D03*
X82596Y1852696D02*
D03*
X11182593Y3052696D02*
D03*
X11264900Y3530600D02*
D03*
X6082594Y652697D02*
D03*
X4432595Y5152695D02*
D03*
X1582596Y4852695D02*
D03*
X8482594Y1852696D02*
D03*
X12382592Y652697D02*
D03*
X832596Y352697D02*
D03*
X9082593Y1852696D02*
D03*
X11032593Y352697D02*
D03*
X8182594Y4852695D02*
D03*
X5638800Y4851400D02*
D03*
X9682593Y1252697D02*
D03*
X5482595Y652697D02*
D03*
X8032594Y2152696D02*
D03*
X12232593Y352697D02*
D03*
X5782594Y1252697D02*
D03*
X11782593Y3052696D02*
D03*
X6982594Y1252697D02*
D03*
X2032596Y1552696D02*
D03*
X9232593Y3352696D02*
D03*
X5032595Y352697D02*
D03*
X10432593Y3952696D02*
D03*
X2332596Y4552695D02*
D03*
X3832595Y3952696D02*
D03*
X2182596Y2452696D02*
D03*
X982596Y1852696D02*
D03*
X11932593Y4552695D02*
D03*
X12082593Y652697D02*
D03*
X682596Y2452696D02*
D03*
X3682595Y4252696D02*
D03*
X8632594Y2752696D02*
D03*
X8032594Y4552695D02*
D03*
X8332594Y952697D02*
D03*
X6832594Y1552696D02*
D03*
X4432595Y952697D02*
D03*
X82596Y652697D02*
D03*
X4582595Y1252697D02*
D03*
X982596Y4852695D02*
D03*
X11632593Y3352696D02*
D03*
X4732595Y952697D02*
D03*
X10282593Y652697D02*
D03*
X10132593Y3952696D02*
D03*
X9682593Y3652696D02*
D03*
X7132594Y352697D02*
D03*
X12532592Y1552696D02*
D03*
X11932593D02*
D03*
X9832593D02*
D03*
X6082594Y4852695D02*
D03*
X532596Y2752696D02*
D03*
X9832593Y3952696D02*
D03*
X682596Y1852696D02*
D03*
X9382593Y652697D02*
D03*
X11163300Y4991100D02*
D03*
X11252200D02*
D03*
X11061700Y4813300D02*
D03*
Y5181600D02*
D03*
Y5092700D02*
D03*
Y5270500D02*
D03*
Y4991100D02*
D03*
Y4902200D02*
D03*
X11163300Y4622800D02*
D03*
X11252200D02*
D03*
X11061700Y4356100D02*
D03*
Y4711700D02*
D03*
Y4533900D02*
D03*
Y4445000D02*
D03*
Y4622800D02*
D03*
X10515600Y4699000D02*
D03*
X10515848Y4603057D02*
D03*
X10515600Y4508500D02*
D03*
X9461500Y4394200D02*
D03*
X9639300D02*
D03*
X9740900D02*
D03*
X9550400D02*
D03*
X9918700D02*
D03*
X9917763Y4295255D02*
D03*
X9829800Y4394200D02*
D03*
X9828863Y4295255D02*
D03*
X9739963D02*
D03*
X9550400Y4292600D02*
D03*
X9639300D02*
D03*
X9461500D02*
D03*
X11239500Y2641600D02*
D03*
X11341100Y2489200D02*
D03*
X11442700D02*
D03*
X11239500Y2552700D02*
D03*
Y2730500D02*
D03*
X11430000Y2159000D02*
D03*
X11328400D02*
D03*
X11239500Y1917700D02*
D03*
Y2006600D02*
D03*
Y2413000D02*
D03*
Y2324100D02*
D03*
Y2235200D02*
D03*
Y2095500D02*
D03*
X10172700Y2247900D02*
D03*
X10350500D02*
D03*
X10261600Y2159000D02*
D03*
Y2247900D02*
D03*
X10350500Y2159000D02*
D03*
Y2070100D02*
D03*
X10261600D02*
D03*
X10172700D02*
D03*
Y2159000D02*
D03*
X4737100Y5181600D02*
D03*
X4648200Y5080000D02*
D03*
X4737100D02*
D03*
Y4978400D02*
D03*
X4648200D02*
D03*
Y5181600D02*
D03*
X2590800Y2489200D02*
D03*
X2654300Y2425700D02*
D03*
X2501900Y2438400D02*
D03*
X2646548Y2293752D02*
D03*
X2578100Y2374900D02*
D03*
X1460500Y2006600D02*
D03*
X2519680Y1351280D02*
D03*
X2622103Y1807205D02*
D03*
X2914650Y1858010D02*
D03*
X2146300Y1701800D02*
D03*
X2463800Y1861010D02*
D03*
X2875926Y1213473D02*
D03*
X10680700Y4241800D02*
D03*
X10401300Y4244701D02*
D03*
X7130801Y2666502D02*
D03*
X6159500Y3619500D02*
D03*
X6248400D02*
D03*
X6159500Y3708400D02*
D03*
X6248400D02*
D03*
X6337300Y3619500D02*
D03*
Y3708400D02*
D03*
X6159500Y3797300D02*
D03*
X6337300D02*
D03*
X6248400D02*
D03*
X3289300Y2222500D02*
D03*
X3378200D02*
D03*
X3200400D02*
D03*
X3378200Y2133600D02*
D03*
Y2044700D02*
D03*
X3289300Y2133600D02*
D03*
X3200400D02*
D03*
X3289300Y2044700D02*
D03*
X3200400D02*
D03*
X3009900Y3073400D02*
D03*
X3098800D02*
D03*
X3009900Y2984500D02*
D03*
X3098800D02*
D03*
X2921000D02*
D03*
Y3073400D02*
D03*
X3098800Y2895600D02*
D03*
X2921000D02*
D03*
X3009900D02*
D03*
X2794000Y3238500D02*
D03*
X5030192Y3734840D02*
D03*
X5029200Y3848100D02*
D03*
X4851400Y3733800D02*
D03*
X4940300D02*
D03*
X4851400Y3848100D02*
D03*
X4940300D02*
D03*
X5295900Y5257800D02*
D03*
X2143948Y1370762D02*
D03*
X3086100Y1473200D02*
D03*
X1886250Y1270000D02*
D03*
X2885440Y1498600D02*
D03*
X1907743Y368503D02*
D03*
X838200Y2768600D02*
D03*
X5293223Y4648525D02*
D03*
X7130801Y2941803D02*
D03*
X8659343Y2593340D02*
D03*
X7536180Y3083001D02*
D03*
D64*
X926700Y4165600D02*
X1225550Y3866750D01*
X482600Y4165600D02*
X926700D01*
%TF.MD5,3a5881f54985579dd694faf8a24f6892*%
M02*
