%TF.GenerationSoftware,Altium Limited,Altium Designer,25.7.1 (20)*%
G04 Layer_Physical_Order=1*
G04 Layer_Color=255*
%FSLAX45Y45*%
%MOMM*%
%TF.SameCoordinates,9EBC04B8-5010-450C-815D-03E4C15FF4C1*%
%TF.FilePolarity,Positive*%
%TF.FileFunction,Copper,L1,Top,Signal*%
%TF.Part,Single*%
G01*
G75*
%TA.AperFunction,NonConductor*%
%ADD10C,0.20700*%
%TA.AperFunction,SMDPad,CuDef*%
%ADD11R,1.15000X0.40000*%
%ADD12R,1.80000X2.23000*%
%ADD13R,1.68000X2.95000*%
%ADD14R,0.85000X0.30000*%
%ADD15R,1.23000X1.80000*%
%ADD16R,0.78000X0.99000*%
%ADD17R,0.95000X0.80000*%
%ADD18R,0.35000X1.15000*%
%ADD19R,0.99000X0.78000*%
%ADD20R,2.23000X1.80000*%
%ADD21R,0.95000X1.40000*%
%ADD22R,1.72500X2.23500*%
%ADD23R,0.51000X0.40500*%
%ADD24R,0.80000X0.95000*%
%ADD25R,1.80000X1.23000*%
%ADD26R,0.20000X0.80000*%
%ADD27R,1.40000X0.95000*%
%ADD28R,1.20000X0.60000*%
%ADD29R,1.80000X1.00000*%
%ADD30R,0.98000X3.40000*%
%ADD31R,1.00000X1.75000*%
%ADD32R,0.99000X0.40500*%
%ADD33R,0.70000X0.45000*%
%ADD34R,2.10000X2.30000*%
%ADD35R,2.30000X2.10000*%
%ADD36R,1.70000X0.25000*%
%ADD37R,1.75000X1.00000*%
%ADD38R,0.80000X0.20000*%
%AMCUSTOMSHAPE39*
4,1,10,0.15000,0.65000,-0.05000,0.65000,-0.05000,0.15050,-0.05002,0.15000,-0.15000,0.15000,-0.15000,0.05002,-0.65000,0.05000,-0.65000,-0.15000,0.15000,-0.15000,0.15000,-0.15000,0.15000,0.65000,0.0*%
%ADD39CUSTOMSHAPE39*%

%ADD40R,0.90000X1.40000*%
%AMCUSTOMSHAPE41*
4,1,10,0.65000,-0.15000,0.65000,0.05000,0.15050,0.05000,0.15000,0.05002,0.15000,0.15000,0.05002,0.15000,0.05000,0.65000,-0.15000,0.65000,-0.15000,-0.15000,-0.15000,-0.15000,0.65000,-0.15000,0.0*%
%ADD41CUSTOMSHAPE41*%

%ADD42R,5.40000X2.90000*%
%AMCUSTOMSHAPE43*
4,1,10,-0.15000,-0.65000,0.05000,-0.65000,0.05000,-0.15050,0.05002,-0.15000,0.15000,-0.15000,0.15000,-0.05002,0.65000,-0.05000,0.65000,0.15000,-0.15000,0.15000,-0.15000,0.15000,-0.15000,-0.65000,0.0*%
%ADD43CUSTOMSHAPE43*%

%AMCUSTOMSHAPE44*
4,1,10,-0.65000,0.15000,-0.65000,-0.05000,-0.15050,-0.05000,-0.15000,-0.05002,-0.15000,-0.15000,-0.05002,-0.15000,-0.05000,-0.65000,0.15000,-0.65000,0.15000,0.15000,0.15000,0.15000,-0.65000,0.15000,0.0*%
%ADD44CUSTOMSHAPE44*%

%ADD45R,0.20000X1.45000*%
%ADD46R,0.25000X0.45000*%
%TA.AperFunction,Conductor*%
%ADD47C,0.20000*%
%ADD48C,2.50000*%
%ADD49C,0.25400*%
%ADD50C,0.40000*%
%ADD51C,0.50000*%
%ADD52C,0.25000*%
%ADD53C,1.50000*%
%ADD54C,2.00000*%
%ADD55C,0.35000*%
%ADD56C,1.80000*%
%ADD57C,1.00000*%
%TA.AperFunction,ComponentPad*%
%ADD58C,1.50800*%
%ADD59R,1.50800X1.50800*%
%ADD60O,2.50000X3.00000*%
%ADD61R,1.41600X1.41600*%
%ADD62C,1.41600*%
%TA.AperFunction,ViaPad*%
%ADD63C,0.60000*%
G36*
X12443196Y5573601D02*
X12485344Y5563482D01*
X12525390Y5546895D01*
X12562349Y5524247D01*
X12595309Y5496096D01*
X12623460Y5463135D01*
X12646108Y5426177D01*
X12662696Y5386131D01*
X12672814Y5343983D01*
X12674690Y5320155D01*
X12676176Y5300770D01*
X12676192Y5300690D01*
X12676192Y5280771D01*
X12676193Y390245D01*
X12676420Y389099D01*
X12671995Y332871D01*
X12658560Y276911D01*
X12636537Y223741D01*
X12606467Y174671D01*
X12569090Y130910D01*
X12525329Y93533D01*
X12476259Y63463D01*
X12423089Y41440D01*
X12367129Y28005D01*
X12310901Y23580D01*
X12309755Y23807D01*
X301242Y23806D01*
X300594Y23935D01*
Y23936D01*
X300555Y23900D01*
X257382Y27297D01*
X215234Y37416D01*
X175187Y54004D01*
X138229Y76652D01*
X105269Y104803D01*
X77118Y137763D01*
X54470Y174722D01*
X37882Y214768D01*
X27763Y256916D01*
X24365Y300089D01*
X24402Y300128D01*
X24401D01*
X24356Y300354D01*
X23807Y319898D01*
X23807Y5300324D01*
X23883Y5300706D01*
X23883D01*
X23847Y5300745D01*
X27245Y5343918D01*
X37364Y5386066D01*
X53952Y5426113D01*
X76600Y5463071D01*
X104751Y5496031D01*
X137711Y5524182D01*
X174669Y5546830D01*
X214715Y5563418D01*
X256864Y5573537D01*
X299936Y5576927D01*
X300076Y5576899D01*
X12399984Y5576893D01*
X12400378Y5576971D01*
X12443196Y5573601D01*
D02*
G37*
%LPC*%
G36*
X5891168Y5486260D02*
X5891166Y5486259D01*
X3976468D01*
X3976466Y5486260D01*
X3953493Y5483235D01*
X3932086Y5474368D01*
X3913703Y5460262D01*
X3913703Y5460261D01*
X3825835Y5372394D01*
X3811730Y5354012D01*
X3808643Y5346559D01*
X3327402D01*
X3327400Y5346560D01*
X3304427Y5343535D01*
X3283020Y5334668D01*
X3264638Y5320562D01*
X1512635Y3568559D01*
X1003302D01*
X1003300Y3568560D01*
X980327Y3565535D01*
X958920Y3556668D01*
X940538Y3542562D01*
X940537Y3542561D01*
X724638Y3326662D01*
X710532Y3308280D01*
X701665Y3286873D01*
X698640Y3263900D01*
X686900Y3261002D01*
Y3135002D01*
X887900D01*
Y3238875D01*
X1040065Y3391041D01*
X1549398D01*
X1549400Y3391040D01*
X1572373Y3394065D01*
X1593780Y3402932D01*
X1612162Y3417038D01*
X3364165Y5169041D01*
X3775832D01*
X3799838Y5145035D01*
Y4293266D01*
X3521512Y4014936D01*
X3513625Y4013898D01*
X3480055Y3999993D01*
X3451227Y3977873D01*
X3429107Y3949045D01*
X3415202Y3915475D01*
X3410459Y3879450D01*
Y3829450D01*
X3415202Y3793425D01*
X3429107Y3759855D01*
X3451227Y3731027D01*
X3480055Y3708907D01*
X3513625Y3695002D01*
X3549650Y3690259D01*
X3585675Y3695002D01*
X3619245Y3708907D01*
X3648073Y3731027D01*
X3670193Y3759855D01*
X3684098Y3793425D01*
X3688841Y3829450D01*
Y3879450D01*
X3684098Y3915475D01*
X3680877Y3923252D01*
X3951361Y4193740D01*
X3965466Y4212122D01*
X3974333Y4233530D01*
X3977357Y4256502D01*
X3977357Y4256504D01*
Y5194300D01*
Y5272867D01*
X4013231Y5308741D01*
X4111377D01*
X4125602Y5294800D01*
X4125602Y5288741D01*
Y5093800D01*
X4165152D01*
Y4616299D01*
X4165151Y4616298D01*
X4166937Y4607324D01*
X4172020Y4599715D01*
X4212517Y4559218D01*
X4212518Y4559218D01*
X4220126Y4554134D01*
X4229100Y4552349D01*
X4699648D01*
Y4522800D01*
X4820648D01*
Y4628800D01*
X4699648D01*
Y4599250D01*
X4238813D01*
X4212053Y4626011D01*
Y5093800D01*
X4251602D01*
Y5288741D01*
X4251602Y5294800D01*
X4265828Y5308741D01*
X5242994D01*
X5253116Y5288741D01*
X5247612Y5281251D01*
X5181601D01*
X5181600Y5281251D01*
X5172626Y5279465D01*
X5165018Y5274382D01*
X5128366Y5237730D01*
X5123282Y5230122D01*
X5121497Y5221148D01*
X5105219Y5212249D01*
X5082448D01*
Y5116086D01*
X5081425Y5113635D01*
X5081433Y5113617D01*
X5081425Y5113598D01*
Y4979874D01*
X5082448Y4977405D01*
Y4947751D01*
X5110934D01*
X5115096Y4946009D01*
X5115196Y4946050D01*
X5115296Y4946010D01*
X5195265Y4946851D01*
X5197246Y4947696D01*
X5199392Y4947515D01*
X5207448Y4947751D01*
Y4950085D01*
X5369271Y5001687D01*
X5385419Y4989887D01*
Y4947837D01*
X5424468D01*
Y4460682D01*
X5383028Y4419242D01*
X5364550Y4426895D01*
X5364550Y4462600D01*
X5364550Y4482600D01*
Y4557600D01*
X5316999D01*
Y4611831D01*
X5317580Y4612072D01*
X5329676Y4624168D01*
X5336223Y4639972D01*
Y4657078D01*
X5329676Y4672883D01*
X5317580Y4684979D01*
X5301776Y4691525D01*
X5284670D01*
X5268865Y4684979D01*
X5256769Y4672883D01*
X5250223Y4657078D01*
Y4639972D01*
X5256769Y4624168D01*
X5268865Y4612072D01*
X5270097Y4611561D01*
Y4557600D01*
X5218550D01*
Y4482600D01*
X5218550Y4471600D01*
X5218550Y4451600D01*
Y4409765D01*
X5191969Y4383185D01*
X5186886Y4375576D01*
X5185101Y4366602D01*
X5185101Y4366601D01*
Y4258631D01*
X5185101Y4258629D01*
X5186886Y4249655D01*
X5189055Y4246409D01*
X5182114Y4226409D01*
X4968850D01*
Y4248732D01*
X5001717Y4281600D01*
X5114550D01*
Y4367599D01*
X5114550D01*
Y4376601D01*
X5114550D01*
Y4451600D01*
X5114550Y4462600D01*
X5114550Y4482600D01*
Y4557600D01*
X4968550D01*
Y4482600D01*
X4968550Y4471600D01*
X4968550Y4453393D01*
X4954408Y4439251D01*
X4820648D01*
Y4468800D01*
X4699648D01*
Y4362800D01*
X4736697D01*
Y4193633D01*
X4736697Y4193631D01*
X4738483Y4184657D01*
X4743566Y4177049D01*
X4753629Y4166986D01*
Y4075150D01*
X4851541D01*
Y3938371D01*
X4749800D01*
X4739850Y3934250D01*
X4735729Y3924300D01*
Y3657600D01*
X4739850Y3647650D01*
X4749800Y3643529D01*
X5118100D01*
X5128050Y3647650D01*
X5132171Y3657600D01*
Y3924300D01*
X5128050Y3934250D01*
X5118100Y3938371D01*
X5029059D01*
Y4048891D01*
X5699748D01*
X5699750Y4048890D01*
X5722722Y4051915D01*
X5744129Y4060782D01*
X5762512Y4074887D01*
X5879361Y4191737D01*
X5879362Y4191738D01*
X5893468Y4210120D01*
X5902335Y4231527D01*
X5905360Y4254500D01*
X5905359Y4254502D01*
Y4971060D01*
X5915450Y4981150D01*
X5919571Y4991100D01*
Y5217440D01*
X5938049Y5225094D01*
X6121105Y5042038D01*
X6121106Y5042037D01*
X6124357Y5039542D01*
X6187797Y4976102D01*
X6187798Y4966800D01*
X6203552Y4966175D01*
X6205058Y4966800D01*
X6207798Y4966800D01*
X6313798D01*
Y5074032D01*
X6314557Y5079800D01*
X6313798Y5085569D01*
Y5167800D01*
X6307499D01*
X6156750Y5318550D01*
X6146800Y5322671D01*
X6091521D01*
X5953930Y5460262D01*
X5935547Y5474368D01*
X5914140Y5483235D01*
X5891168Y5486260D01*
D02*
G37*
G36*
X456138Y5320800D02*
X432862D01*
X410379Y5314776D01*
X390221Y5303137D01*
X373763Y5286679D01*
X362124Y5266521D01*
X356100Y5244038D01*
Y5220762D01*
X362124Y5198279D01*
X373763Y5178121D01*
X390221Y5161663D01*
X410379Y5150024D01*
X432862Y5144000D01*
X456138D01*
X478621Y5150024D01*
X498779Y5161663D01*
X515237Y5178121D01*
X526876Y5198279D01*
X532900Y5220762D01*
Y5244038D01*
X526876Y5266521D01*
X515237Y5286679D01*
X498779Y5303137D01*
X478621Y5314776D01*
X456138Y5320800D01*
D02*
G37*
G36*
X1200150Y5110841D02*
X1164125Y5106098D01*
X1130555Y5092193D01*
X1101727Y5070073D01*
X1079607Y5041245D01*
X1065702Y5007675D01*
X1060959Y4971650D01*
Y4921650D01*
X1065702Y4885625D01*
X1079607Y4852055D01*
X1101727Y4823227D01*
X1130555Y4801107D01*
X1164125Y4787202D01*
X1200150Y4782459D01*
X1236175Y4787202D01*
X1269745Y4801107D01*
X1298573Y4823227D01*
X1320693Y4852055D01*
X1334598Y4885625D01*
X1339341Y4921650D01*
Y4971650D01*
X1334598Y5007675D01*
X1320693Y5041245D01*
X1298573Y5070073D01*
X1269745Y5092193D01*
X1236175Y5106098D01*
X1200150Y5110841D01*
D02*
G37*
G36*
X10464664Y5256158D02*
X10223364D01*
X10213414Y5252036D01*
X10188014Y5226636D01*
X10183893Y5216687D01*
Y4721138D01*
X10165415Y4713484D01*
X9941349Y4937549D01*
X9931400Y4941671D01*
X9073151Y4941671D01*
X9067800Y4941671D01*
X9053151Y4957251D01*
Y4993190D01*
X9068300Y5004900D01*
X9194300D01*
Y5205900D01*
X9068300D01*
Y5142759D01*
X9063015Y5124066D01*
X9054042Y5122281D01*
X9046434Y5117198D01*
X9016965Y5087729D01*
X9004300Y5085461D01*
X8991635Y5087729D01*
X8957382Y5121982D01*
X8949774Y5127065D01*
X8940800Y5128851D01*
X8940799Y5128851D01*
X8894300D01*
Y5205900D01*
X8768301D01*
Y5004900D01*
X8894300D01*
Y5081949D01*
X8931086D01*
X8955449Y5057586D01*
Y4872551D01*
X8935449Y4868572D01*
X8927532Y4887686D01*
X8909419Y4911291D01*
X8891827Y4924791D01*
Y4931199D01*
X8881482D01*
X8858326Y4940790D01*
X8828827Y4944674D01*
X8799328Y4940790D01*
X8776171Y4931199D01*
X8765827D01*
Y4924791D01*
X8748234Y4911291D01*
X8517307Y4680365D01*
X8499195Y4656760D01*
X8487809Y4629271D01*
X8483925Y4599772D01*
Y4203375D01*
X6778210D01*
X6664777Y4316808D01*
Y4461292D01*
X6885953Y4682468D01*
X6892400Y4679798D01*
Y4679798D01*
X6892400Y4679798D01*
X7113089Y4679798D01*
X7113589D01*
D01*
X7117080Y4679798D01*
X7119548Y4673839D01*
X7125364Y4659798D01*
X6993818Y4528252D01*
X6988735Y4520644D01*
X6986949Y4511670D01*
X6968646Y4505802D01*
X6892400D01*
Y4249802D01*
X7128400D01*
Y4505802D01*
X7063827D01*
X7056174Y4524279D01*
X7230933Y4699039D01*
X7367949D01*
Y4677718D01*
X7292133Y4601902D01*
X7241798D01*
Y4530902D01*
Y4465898D01*
X7299237D01*
X7322322Y4442814D01*
X7322323Y4442813D01*
X7329931Y4437730D01*
X7338905Y4435944D01*
X7570183D01*
X7570184Y4435944D01*
X7579158Y4437730D01*
X7586766Y4442813D01*
X7598481Y4454528D01*
X7598482Y4454529D01*
X7603565Y4462137D01*
X7605351Y4471111D01*
X7605351Y4471112D01*
Y4635500D01*
X7603565Y4644475D01*
X7598482Y4652082D01*
X7598481Y4652083D01*
X7584328Y4666236D01*
X7591982Y4684714D01*
X7862472D01*
X7872422Y4688835D01*
X7876544Y4698785D01*
Y5088173D01*
Y5098877D01*
X7872422Y5108827D01*
X7805517Y5175733D01*
X7795567Y5179854D01*
X7757794D01*
X7747000Y5181275D01*
X6550802D01*
X6521303Y5177391D01*
X6498147Y5167800D01*
X6487802D01*
Y5161392D01*
X6470210Y5147893D01*
X6452097Y5124287D01*
X6440711Y5096799D01*
X6436827Y5067300D01*
X6440711Y5037801D01*
X6452097Y5010313D01*
X6470210Y4986707D01*
X6487802Y4973208D01*
Y4966800D01*
X6498147D01*
X6521303Y4957209D01*
X6550802Y4953325D01*
X6812032D01*
X6818694Y4933325D01*
X6800407Y4919293D01*
X6800406Y4919292D01*
X6490117Y4609002D01*
X6487802D01*
Y4606688D01*
X6470210Y4589095D01*
X6452097Y4565490D01*
X6440711Y4538002D01*
X6436827Y4508503D01*
Y4269598D01*
X6440711Y4240099D01*
X6452097Y4212610D01*
X6470210Y4189005D01*
X6650407Y4008808D01*
X6650407Y4008807D01*
X6674013Y3990695D01*
X6701501Y3979309D01*
X6707549Y3978512D01*
Y3514914D01*
X6282618Y3089982D01*
X6277535Y3082374D01*
X6275749Y3073400D01*
X6275749Y3073399D01*
Y3016897D01*
X6225898D01*
Y2815898D01*
X6351898D01*
Y3016897D01*
X6322651D01*
Y3063686D01*
X6747582Y3488618D01*
X6752665Y3496226D01*
X6754451Y3505200D01*
Y3975425D01*
X8483925D01*
Y3113898D01*
X8487809Y3084399D01*
X8499195Y3056910D01*
X8517307Y3033305D01*
X8761005Y2789607D01*
X8778598Y2776108D01*
Y2769700D01*
X8788943D01*
X8812099Y2760108D01*
X8841598Y2756225D01*
X8871097Y2760109D01*
X8894253Y2769700D01*
X8904598D01*
Y2776108D01*
X8922190Y2789607D01*
X8935449Y2806887D01*
X8955449Y2800098D01*
Y2676713D01*
X8923075Y2644339D01*
X8904598Y2651993D01*
Y2695999D01*
X8778598D01*
Y2616791D01*
X8696172D01*
X8695796Y2617698D01*
X8683700Y2629794D01*
X8667896Y2636340D01*
X8650789D01*
X8634985Y2629794D01*
X8622889Y2617698D01*
X8616343Y2601893D01*
Y2584787D01*
X8622889Y2568982D01*
X8634985Y2556886D01*
X8650789Y2550340D01*
X8667896D01*
X8683700Y2556886D01*
X8695796Y2568982D01*
X8696172Y2569889D01*
X8778598D01*
Y2494999D01*
X8904598D01*
Y2555838D01*
X8909882Y2574531D01*
X8918856Y2576317D01*
X8926464Y2581400D01*
X8995481Y2650417D01*
X8995482Y2650418D01*
X9000565Y2658026D01*
X9002351Y2667000D01*
X9002351Y2667001D01*
Y4322001D01*
X9022351Y4330285D01*
X9292518Y4060118D01*
X9300126Y4055035D01*
X9309100Y4053249D01*
X9309101Y4053249D01*
X9709501D01*
Y4016200D01*
X9815500D01*
Y4137200D01*
X9709501D01*
Y4100151D01*
X9318814D01*
X9053151Y4365814D01*
Y4694749D01*
X9059526Y4701529D01*
X9073151Y4710329D01*
X9938271Y4710329D01*
X10086550Y4562050D01*
X10096500Y4557929D01*
X10200933D01*
X10208587Y4539451D01*
X10168818Y4499682D01*
X10163735Y4492074D01*
X10161949Y4483100D01*
X10161949Y4483099D01*
Y4251514D01*
X10010586Y4100151D01*
X9975500D01*
Y4137200D01*
X9869500D01*
Y4016200D01*
X9975500D01*
Y4053249D01*
X10020299D01*
X10020300Y4053249D01*
X10029274Y4055035D01*
X10036882Y4060118D01*
X10201982Y4225218D01*
X10207065Y4232826D01*
X10208851Y4241800D01*
X10208851Y4241801D01*
Y4473386D01*
X10259411Y4523947D01*
X10283786D01*
X10292070Y4503947D01*
X10283873Y4495750D01*
X10278193Y4487249D01*
X10276198Y4477221D01*
Y4343599D01*
X10278193Y4333571D01*
X10283873Y4325071D01*
X10358300Y4250644D01*
Y4236147D01*
X10364846Y4220343D01*
X10375097Y4210093D01*
Y4139200D01*
X10349300D01*
Y4014200D01*
X10453300D01*
Y4139200D01*
X10427503D01*
Y4210093D01*
X10437754Y4220343D01*
X10444300Y4236147D01*
Y4247759D01*
X10460675Y4257075D01*
X10462778Y4257565D01*
X10616397Y4103946D01*
Y3632200D01*
X10618391Y3622172D01*
X10624071Y3613671D01*
X10801871Y3435871D01*
X10810372Y3430191D01*
X10820400Y3428197D01*
X11351621D01*
X11361649Y3430191D01*
X11370149Y3435871D01*
X11385029Y3450751D01*
X11390709Y3459251D01*
X11392703Y3469279D01*
Y3579200D01*
X11420593D01*
Y3685200D01*
X11299593D01*
Y3579200D01*
X11340297D01*
Y3480603D01*
X10831254D01*
X10668803Y3643054D01*
Y4114800D01*
X10666809Y4124828D01*
X10661129Y4133329D01*
X10396805Y4397652D01*
Y4419398D01*
X10426102D01*
Y4469400D01*
Y4573481D01*
X10426753Y4574913D01*
X10426978Y4581427D01*
X10426886Y4581671D01*
X10426986Y4581911D01*
Y4662536D01*
X10426102Y4664671D01*
Y4674328D01*
X10427935Y4678754D01*
Y4829858D01*
X10474614Y4876537D01*
X10478735Y4886487D01*
Y5242087D01*
X10474614Y5252036D01*
X10464664Y5256158D01*
D02*
G37*
G36*
X6361258Y4611471D02*
X6361256Y4611471D01*
X6361255Y4611471D01*
X6134100D01*
X6124150Y4607350D01*
X6120029Y4597400D01*
Y3876304D01*
X6105885Y3862164D01*
X6096506Y3862167D01*
X6096505Y3862168D01*
X6096503Y3862167D01*
X6096474D01*
X6091702Y3860192D01*
X6086545Y3858070D01*
X6086539Y3858056D01*
X6086523Y3858049D01*
X6084472Y3853100D01*
X6084472Y3853100D01*
X6082400Y3848131D01*
X6082399Y3848131D01*
Y3848010D01*
X6081744Y3582895D01*
X6081748Y3582886D01*
X6081744Y3582877D01*
X6083788Y3577925D01*
X6085841Y3572935D01*
X6085850Y3572931D01*
X6085853Y3572922D01*
X6099978Y3558763D01*
X6099987Y3558759D01*
X6099990Y3558750D01*
X6104872Y3556728D01*
X6109923Y3554629D01*
X6109931Y3554632D01*
X6109940Y3554629D01*
X6403653D01*
X6413603Y3558750D01*
X6417724Y3568700D01*
Y3848004D01*
X6415663Y3852980D01*
X6413606Y3857951D01*
X6413604Y3857952D01*
X6413603Y3857954D01*
X6408636Y3860012D01*
X6403657Y3862076D01*
X6403313D01*
X6389176Y3876223D01*
X6389465Y4583249D01*
X6389464Y4583251D01*
X6389465Y4583252D01*
X6387578Y4587810D01*
X6385348Y4593200D01*
X6385346Y4593201D01*
X6385346Y4593202D01*
X6371206Y4607348D01*
X6371205Y4607348D01*
X6371204Y4607350D01*
X6366162Y4609438D01*
X6361258Y4611471D01*
D02*
G37*
G36*
X12446000Y5309971D02*
X11417300D01*
X11407954Y5306100D01*
X11403200D01*
Y5057100D01*
X11403229D01*
Y4925100D01*
X11403200D01*
Y4676100D01*
X11403229D01*
Y4544100D01*
X11403200D01*
Y4295100D01*
X11395705Y4278205D01*
X11322571Y4205071D01*
X11012253D01*
X10948771Y4249159D01*
Y4546599D01*
X10944650Y4556549D01*
X10840782Y4660417D01*
X10843050Y4671818D01*
X10847171Y4681768D01*
Y5219700D01*
X10843050Y5229650D01*
X10817650Y5255050D01*
X10807700Y5259171D01*
X10566400D01*
X10556450Y5255050D01*
X10552329Y5245100D01*
Y4889500D01*
X10556450Y4879550D01*
X10570778Y4865223D01*
Y4864432D01*
X10571568D01*
X10603129Y4832872D01*
Y4681768D01*
X10605098Y4677013D01*
Y4666318D01*
X10603899Y4663423D01*
Y4545350D01*
X10603909Y4545325D01*
X10603899Y4545301D01*
X10605098Y4542434D01*
Y4519398D01*
X10626816D01*
X10627272Y4519212D01*
X10632211Y4517187D01*
X10632236Y4517197D01*
X10632261Y4517187D01*
X10741198Y4517952D01*
X10755529Y4503682D01*
Y4089399D01*
X10759650Y4079450D01*
X10835850Y4003250D01*
X10845800Y3999129D01*
X11336643D01*
Y3845200D01*
X11299593D01*
Y3739200D01*
X11420593D01*
Y3845200D01*
X11383544D01*
Y3999129D01*
X11518900D01*
X11528850Y4003250D01*
X11643149Y4117550D01*
X11647271Y4127500D01*
Y4178299D01*
X11647271Y4178300D01*
Y4693171D01*
X12020028Y5065929D01*
X12446000D01*
X12455950Y5070050D01*
X12460071Y5080000D01*
Y5295900D01*
X12455950Y5305850D01*
X12446000Y5309971D01*
D02*
G37*
G36*
X10716098Y4475398D02*
X10605098D01*
Y4419398D01*
X10654497D01*
Y4276408D01*
X10644246Y4266158D01*
X10637700Y4250353D01*
Y4233247D01*
X10644246Y4217442D01*
X10656342Y4205346D01*
X10672147Y4198800D01*
X10689253D01*
X10705058Y4205346D01*
X10717154Y4217442D01*
X10723700Y4233247D01*
Y4250353D01*
X10717154Y4266158D01*
X10706903Y4276408D01*
Y4419398D01*
X10716098D01*
Y4475398D01*
D02*
G37*
G36*
X456138Y4215900D02*
X432862D01*
X410379Y4209876D01*
X390221Y4198237D01*
X373763Y4181779D01*
X362124Y4161621D01*
X356100Y4139138D01*
Y4115862D01*
X362124Y4093379D01*
X373763Y4073221D01*
X390221Y4056763D01*
X410379Y4045124D01*
X432862Y4039100D01*
X456138D01*
X478621Y4045124D01*
X498779Y4056763D01*
X515237Y4073221D01*
X526876Y4093379D01*
X532900Y4115862D01*
Y4139138D01*
X526876Y4161621D01*
X515237Y4181779D01*
X498779Y4198237D01*
X478621Y4209876D01*
X456138Y4215900D01*
D02*
G37*
G36*
X532900Y3961900D02*
X356100D01*
Y3785100D01*
X532900D01*
Y3961900D01*
D02*
G37*
G36*
X1225550Y4005941D02*
X1189525Y4001198D01*
X1155955Y3987293D01*
X1127127Y3965173D01*
X1105007Y3936345D01*
X1091102Y3902775D01*
X1086359Y3866750D01*
Y3816750D01*
X1091102Y3780725D01*
X1105007Y3747155D01*
X1127127Y3718327D01*
X1155955Y3696207D01*
X1189525Y3682302D01*
X1225550Y3677559D01*
X1261575Y3682302D01*
X1295145Y3696207D01*
X1323973Y3718327D01*
X1346093Y3747155D01*
X1359998Y3780725D01*
X1364741Y3816750D01*
Y3866750D01*
X1359998Y3902775D01*
X1346093Y3936345D01*
X1323973Y3965173D01*
X1295145Y3987293D01*
X1261575Y4001198D01*
X1225550Y4005941D01*
D02*
G37*
G36*
X3524250Y5123541D02*
X3488225Y5118798D01*
X3454655Y5104893D01*
X3425827Y5082773D01*
X3403707Y5053945D01*
X3389802Y5020375D01*
X3389186Y5015697D01*
X3365827Y4997773D01*
X1704977Y3336923D01*
X1697562Y3327259D01*
X1372252D01*
X1372250Y3327260D01*
X1349277Y3324235D01*
X1327870Y3315368D01*
X1309488Y3301262D01*
X1309487Y3301261D01*
X1289326Y3281101D01*
X1073155Y3098187D01*
X1072870Y3097633D01*
X1072295Y3097395D01*
X1070441Y3092919D01*
X1068222Y3088614D01*
X1068412Y3088021D01*
X1068173Y3087445D01*
Y2908300D01*
X1072295Y2898350D01*
X1082244Y2894229D01*
X1315706D01*
X1319686Y2895878D01*
X1323884Y2896850D01*
X1324529Y2897884D01*
X1325288Y2898198D01*
X1329448D01*
Y2903519D01*
X1434457Y3008529D01*
X1746772D01*
X1927952Y2827348D01*
Y2815700D01*
X2183952D01*
Y2837652D01*
X2339336Y3004669D01*
X2357949Y2997349D01*
Y2815700D01*
X2597656D01*
X2599235Y2815046D01*
X3149599D01*
X3159549Y2819167D01*
X3163670Y2829117D01*
Y2869601D01*
X3204531D01*
X3277600Y2796531D01*
Y2729300D01*
X3402600D01*
Y2833300D01*
X3314369D01*
X3233684Y2913984D01*
X3225250Y2919620D01*
X3215300Y2921599D01*
X3163671D01*
X3163671Y3123955D01*
X3182058Y3131825D01*
X4065817Y2288598D01*
X4057806Y2268598D01*
X3801240D01*
X3801169Y2268924D01*
X3799505Y2269995D01*
X3798579Y2271744D01*
X3538023Y2487341D01*
X3533462Y2488745D01*
X3529053Y2490571D01*
X3355319D01*
X3353935Y2490846D01*
X3002263D01*
X3000878Y2490571D01*
X2946400D01*
X2942371Y2488902D01*
X2922371Y2498502D01*
Y2501900D01*
X2918250Y2511850D01*
X2892850Y2537250D01*
X2882900Y2541371D01*
X2781300D01*
X2771350Y2537250D01*
X2717320Y2483220D01*
X2713199Y2473270D01*
Y2239142D01*
X2712478Y2237401D01*
Y2157401D01*
X2700018Y2137901D01*
X2623549D01*
Y2086902D01*
X2623549D01*
Y2082900D01*
X2623549Y2082899D01*
X2623549Y2031900D01*
X2623549Y2011900D01*
Y1976899D01*
X2623549D01*
X2633550Y1970400D01*
Y1919665D01*
X2633100Y1917400D01*
Y1868683D01*
X2630656Y1850205D01*
X2613550D01*
X2609999Y1848734D01*
X2589999Y1862043D01*
Y1917400D01*
X2589548Y1919665D01*
Y1970400D01*
X2557891D01*
X2542832Y1973684D01*
X2539548Y1988743D01*
Y2126057D01*
X2542832Y2141116D01*
X2557891Y2144400D01*
X2589548D01*
Y2195135D01*
X2589999Y2197400D01*
Y2230586D01*
X2589999Y2244398D01*
X2590000Y2244400D01*
X2589549Y2250400D01*
X2588805D01*
X2588214Y2253374D01*
X2583130Y2260982D01*
X2583129Y2260983D01*
X2533707Y2310405D01*
X2526099Y2315489D01*
X2517125Y2317274D01*
X2517123Y2317274D01*
X1849323D01*
X1840349Y2315489D01*
X1832741Y2310405D01*
X1832741Y2310405D01*
X1677218Y2154882D01*
X1672135Y2147274D01*
X1670349Y2138300D01*
X1670349Y2138299D01*
Y2033851D01*
X1565901D01*
X1565900Y2033851D01*
X1556926Y2032066D01*
X1549318Y2026982D01*
X1523500Y2001164D01*
X1503500Y2009449D01*
Y2015153D01*
X1496954Y2030958D01*
X1488997Y2038914D01*
Y2153352D01*
X1488997Y2153353D01*
X1487212Y2162327D01*
X1482129Y2169935D01*
X1482128Y2169936D01*
X1444882Y2207182D01*
X1437274Y2212266D01*
X1428300Y2214051D01*
X1428298Y2214051D01*
X1381300D01*
Y2243600D01*
X1260300D01*
Y2137600D01*
X1381300D01*
Y2167150D01*
X1418586D01*
X1442096Y2143640D01*
Y2045520D01*
X1436142Y2043054D01*
X1424046Y2030958D01*
X1417500Y2015153D01*
Y1998047D01*
X1424046Y1982242D01*
X1436142Y1970146D01*
X1451947Y1963600D01*
X1457651D01*
X1465936Y1943600D01*
X1403618Y1881282D01*
X1398535Y1873674D01*
X1396749Y1864700D01*
X1396750Y1864699D01*
Y1768748D01*
X1396749Y1768747D01*
X1398535Y1759773D01*
X1403618Y1752165D01*
X1478241Y1677542D01*
X1478242Y1677541D01*
X1485849Y1672458D01*
X1494059Y1670825D01*
X1537884Y1627000D01*
X1529600Y1607000D01*
X1520549D01*
Y1441000D01*
X1636549D01*
Y1607000D01*
X1602000D01*
Y1619499D01*
X1600214Y1628473D01*
X1595131Y1636081D01*
X1595130Y1636082D01*
X1520507Y1710705D01*
X1512899Y1715789D01*
X1504689Y1717422D01*
X1443651Y1778461D01*
Y1854986D01*
X1575614Y1986950D01*
X1680326D01*
X1680327Y1986949D01*
X1689301Y1988735D01*
X1696909Y1993818D01*
X1706797Y2003706D01*
X1720778Y2000163D01*
X1726797Y1996037D01*
Y1294593D01*
X1662155Y1229951D01*
X1636549D01*
Y1289500D01*
X1520549D01*
Y1123500D01*
X1636549D01*
Y1183049D01*
X1671867D01*
X1671869Y1183049D01*
X1680843Y1184835D01*
X1688451Y1189918D01*
X1766830Y1268297D01*
X1771913Y1275905D01*
X1773699Y1284879D01*
X1773699Y1284881D01*
Y2058081D01*
X1859333Y2143716D01*
X1902116D01*
X1910400Y2123716D01*
X1822566Y2035882D01*
X1817483Y2028274D01*
X1815697Y2019300D01*
X1815697Y2019299D01*
Y1727206D01*
X1815697Y1727205D01*
X1817483Y1718231D01*
X1822566Y1710623D01*
X1930770Y1602419D01*
X1938378Y1597336D01*
X1947352Y1595550D01*
X1947353Y1595551D01*
X2200648D01*
Y1558501D01*
X2186263Y1544946D01*
X2166657D01*
X2166656Y1544946D01*
X2157681Y1543161D01*
X2150073Y1538078D01*
X1964618Y1352622D01*
X1959535Y1345014D01*
X1957749Y1336040D01*
X1957749Y1336039D01*
Y1000096D01*
X1928200D01*
Y879096D01*
X2034200D01*
Y1000096D01*
X2004651D01*
Y1326326D01*
X2176369Y1498045D01*
X2346994D01*
X2346996Y1498045D01*
X2355970Y1499830D01*
X2363578Y1504913D01*
X2404182Y1545518D01*
X2409265Y1553126D01*
X2411051Y1562100D01*
Y1665074D01*
X2411051Y1665076D01*
X2409265Y1674050D01*
X2404182Y1681658D01*
X2359306Y1726534D01*
X2351698Y1731617D01*
X2342724Y1733402D01*
X2342723Y1733402D01*
X2300262D01*
X2296751Y1736914D01*
Y1831786D01*
X2412481Y1947517D01*
X2432481Y1939232D01*
Y1937399D01*
X2436602Y1927449D01*
X2446552Y1923328D01*
X2453600D01*
X2455247Y1904010D01*
X2439442Y1897464D01*
X2427346Y1885368D01*
X2420800Y1869563D01*
Y1852457D01*
X2427346Y1836652D01*
X2439442Y1824556D01*
X2455247Y1818010D01*
X2472353D01*
X2488158Y1824556D01*
X2500254Y1836652D01*
X2506800Y1852457D01*
Y1854389D01*
X2525933Y1863048D01*
X2526800Y1863106D01*
X2543098Y1848534D01*
Y1624453D01*
X2543097Y1624452D01*
X2544883Y1615478D01*
X2549966Y1607870D01*
X2881363Y1276473D01*
X2873078Y1256473D01*
X2867373D01*
X2851569Y1249927D01*
X2839473Y1237831D01*
X2832927Y1222027D01*
Y1214462D01*
X2824318Y1205853D01*
X2808002D01*
X2799028Y1204068D01*
X2791420Y1198984D01*
X2764718Y1172282D01*
X2759635Y1164674D01*
X2757849Y1155700D01*
X2757849Y1155699D01*
Y1051114D01*
X2690802Y984066D01*
X2685719Y976458D01*
X2683933Y967484D01*
X2665241Y962200D01*
X2644500D01*
Y841200D01*
X2750500D01*
Y962200D01*
X2750500D01*
X2746037Y972973D01*
X2797882Y1024818D01*
X2802965Y1032426D01*
X2804751Y1041400D01*
Y1044400D01*
X2834049D01*
Y962200D01*
X2804500D01*
Y841200D01*
X2910500D01*
Y962200D01*
X2880951D01*
Y1044400D01*
X2910500D01*
Y1165400D01*
X2910500D01*
X2908664Y1185400D01*
X2912380Y1189116D01*
X2918926Y1204920D01*
Y1210625D01*
X2938926Y1218909D01*
X3033815Y1124021D01*
X3033816Y1124020D01*
X3041424Y1118937D01*
X3050398Y1117151D01*
X3050399Y1117152D01*
X3511948D01*
Y982602D01*
X4077948D01*
Y1119398D01*
X4608848D01*
Y1082398D01*
X4809848D01*
Y1208398D01*
X4608848D01*
Y1171397D01*
X4077948D01*
Y1298602D01*
X3511948D01*
Y1164053D01*
X3060111D01*
X2589999Y1634166D01*
Y1752367D01*
X2609999Y1765676D01*
X2613550Y1764205D01*
X2630656D01*
X2646461Y1770751D01*
X2653100Y1777391D01*
X2673100Y1769674D01*
Y1687491D01*
X2673100Y1687490D01*
X2674885Y1678516D01*
X2679968Y1670908D01*
X2842816Y1508060D01*
X2842440Y1507153D01*
Y1490047D01*
X2848986Y1474242D01*
X2861082Y1462146D01*
X2876887Y1455600D01*
X2893993D01*
X2909798Y1462146D01*
X2921894Y1474242D01*
X2928440Y1490047D01*
Y1507153D01*
X2921894Y1522958D01*
X2909798Y1535054D01*
X2893993Y1541600D01*
X2876887D01*
X2875980Y1541224D01*
X2720001Y1697203D01*
Y1780004D01*
X2738479Y1787657D01*
X3043476Y1482660D01*
X3043100Y1481753D01*
Y1464647D01*
X3049646Y1448842D01*
X3061742Y1436746D01*
X3077547Y1430200D01*
X3094653D01*
X3110458Y1436746D01*
X3122554Y1448842D01*
X3129100Y1464647D01*
Y1481753D01*
X3123339Y1495661D01*
X3122554Y1497557D01*
X3137587Y1509548D01*
X3264495Y1382640D01*
X3282878Y1368534D01*
X3304285Y1359667D01*
X3327258Y1356643D01*
X4709348D01*
X4732320Y1359667D01*
X4753728Y1368534D01*
X4771801Y1382402D01*
X4809848D01*
Y1508402D01*
X4798107D01*
Y2377250D01*
X4798107Y2377252D01*
X4795083Y2400225D01*
X4786216Y2421632D01*
X4772110Y2440014D01*
X4772109Y2440015D01*
X4588558Y2623567D01*
Y2757600D01*
X4602799D01*
Y2906600D01*
X4396799D01*
Y2757600D01*
X4411040D01*
Y2586803D01*
X4411039Y2586801D01*
X4414064Y2563829D01*
X4422931Y2542421D01*
X4437037Y2524039D01*
X4620589Y2340487D01*
Y1534162D01*
X3364023D01*
X3131590Y1766595D01*
X3144928Y1781498D01*
X3178910Y1754312D01*
X3183391Y1753014D01*
X3187700Y1751229D01*
X4267200D01*
X4271775Y1753124D01*
X4276466Y1754710D01*
X4378066Y1843610D01*
X4378288Y1844059D01*
X4378750Y1844250D01*
X4380645Y1848825D01*
X4382840Y1853264D01*
X4382680Y1853738D01*
X4382871Y1854200D01*
Y2329207D01*
X4382823Y2329324D01*
X4382869Y2329441D01*
X4380771Y2334277D01*
X4378750Y2339157D01*
X4378633Y2339205D01*
X4378583Y2339321D01*
X3281104Y3401013D01*
X3276195Y3402952D01*
X3271320Y3404971D01*
X2474472D01*
X2407151Y3645405D01*
X3562618Y4800872D01*
X3593845Y4813807D01*
X3622673Y4835927D01*
X3644793Y4864755D01*
X3658698Y4898325D01*
X3663441Y4934350D01*
Y4984350D01*
X3658698Y5020375D01*
X3644793Y5053945D01*
X3622673Y5082773D01*
X3593845Y5104893D01*
X3560275Y5118798D01*
X3524250Y5123541D01*
D02*
G37*
G36*
X7759202Y3175052D02*
X7759201Y3175052D01*
X7340600D01*
X7331626Y3173267D01*
X7324018Y3168184D01*
X7140261Y2984427D01*
X7139354Y2984803D01*
X7122248D01*
X7106443Y2978256D01*
X7094348Y2966160D01*
X7087801Y2950356D01*
Y2933249D01*
X7094348Y2917445D01*
X7106443Y2905349D01*
X7122248Y2898803D01*
X7139354D01*
X7155159Y2905349D01*
X7167255Y2917445D01*
X7173801Y2933249D01*
Y2950356D01*
X7173425Y2951263D01*
X7350314Y3128151D01*
X7492234D01*
X7500519Y3108151D01*
X7499726Y3107359D01*
X7493180Y3091554D01*
Y3074448D01*
X7499726Y3058644D01*
X7511822Y3046548D01*
X7527627Y3040001D01*
X7544733D01*
X7560538Y3046548D01*
X7572634Y3058644D01*
X7573009Y3059551D01*
X7600300D01*
Y3050000D01*
X7741300D01*
Y3108055D01*
X7761060Y3116579D01*
X7790300Y3087340D01*
Y3050000D01*
X7931300D01*
Y3116000D01*
X7827968D01*
X7775784Y3168184D01*
X7768176Y3173267D01*
X7759202Y3175052D01*
D02*
G37*
G36*
X787400Y2962232D02*
X781195Y2960998D01*
X686900D01*
Y2834998D01*
X723166D01*
Y2819400D01*
X728055Y2794819D01*
X741980Y2773980D01*
X792780Y2723180D01*
X813619Y2709255D01*
X838200Y2704366D01*
X862781Y2709255D01*
X883620Y2723180D01*
X897545Y2744019D01*
X902434Y2768600D01*
X897545Y2793181D01*
X883620Y2814020D01*
X880502Y2817138D01*
X887900Y2834998D01*
X887900D01*
Y2960998D01*
X793605D01*
X787400Y2962232D01*
D02*
G37*
G36*
X6651902Y3016897D02*
X6525902D01*
Y2815898D01*
X6651902D01*
Y2884849D01*
X6683186D01*
X6833315Y2734721D01*
X6833315Y2734720D01*
X6840923Y2729637D01*
X6849897Y2727852D01*
X7114286D01*
X7118264Y2707852D01*
X7106443Y2702956D01*
X7094348Y2690860D01*
X7087801Y2675055D01*
Y2657949D01*
X7094348Y2642145D01*
X7106443Y2630049D01*
X7122248Y2623502D01*
X7139354D01*
X7140261Y2623878D01*
X7210001Y2554138D01*
Y2414303D01*
X7282855D01*
X7285873Y2394511D01*
X7277373Y2388831D01*
X7245871Y2357330D01*
X7240191Y2348829D01*
X7238197Y2338802D01*
Y2326302D01*
X7203900D01*
Y2160303D01*
X7324900D01*
Y2326302D01*
X7324900D01*
X7330219Y2344099D01*
X7388583D01*
X7393902Y2326302D01*
X7393902Y2324099D01*
Y2160303D01*
X7514902D01*
Y2217099D01*
X7673800D01*
Y2160303D01*
X7794800D01*
Y2324099D01*
X7794800Y2326302D01*
X7800119Y2344099D01*
X7819807D01*
X7829834Y2346094D01*
X7838335Y2351774D01*
X7844015Y2360275D01*
X7844281Y2361613D01*
X7896971Y2414303D01*
X7984802D01*
Y2547138D01*
X8054615Y2616950D01*
X8054615Y2616951D01*
X8059699Y2624559D01*
X8061484Y2633533D01*
Y2860065D01*
X8059699Y2869040D01*
X8054615Y2876648D01*
X8054615Y2876648D01*
X7961682Y2969581D01*
X7954074Y2974664D01*
X7947173Y2976037D01*
X7931300Y2986000D01*
X7931300Y2986000D01*
X7931299Y2986000D01*
X7790300D01*
Y2920000D01*
X7931300D01*
Y2920000D01*
X7949436Y2915499D01*
X8014583Y2850352D01*
Y2643246D01*
X7951638Y2580302D01*
X7863802D01*
Y2447462D01*
X7819118Y2402779D01*
X7797071Y2406706D01*
X7794800Y2414303D01*
X7794800Y2416506D01*
Y2580302D01*
X7673800D01*
Y2523506D01*
X7520998D01*
Y2580302D01*
X7399998D01*
Y2416506D01*
X7399998Y2414303D01*
X7394679Y2396506D01*
X7336320D01*
X7331001Y2414303D01*
X7331001Y2416506D01*
Y2580302D01*
X7250165D01*
X7217802Y2612666D01*
X7225426Y2631156D01*
X7918277Y2633389D01*
X7922760Y2634296D01*
X7927175Y2635175D01*
X7927207Y2635196D01*
X7927245Y2635204D01*
X7931015Y2637740D01*
X7934783Y2640258D01*
X7934805Y2640290D01*
X7934837Y2640311D01*
X7937353Y2644104D01*
X7939867Y2647866D01*
X7939874Y2647903D01*
X7939895Y2647936D01*
X7940774Y2652426D01*
X7941652Y2656840D01*
Y2668303D01*
X7978701D01*
Y2834302D01*
X7857701D01*
Y2680096D01*
X7802864Y2679919D01*
X7788699Y2694038D01*
Y2834302D01*
X7667699D01*
Y2777506D01*
X7521501D01*
Y2834302D01*
X7400501D01*
Y2678622D01*
X7345664Y2678445D01*
X7331499Y2692564D01*
Y2834302D01*
X7313355D01*
X7305070Y2854302D01*
X7380316Y2929548D01*
X7600300D01*
Y2920000D01*
X7741300D01*
Y2986000D01*
X7600300D01*
Y2976449D01*
X7370604D01*
X7370602Y2976450D01*
X7361628Y2974664D01*
X7354020Y2969581D01*
X7354020Y2969580D01*
X7254417Y2869977D01*
X7249333Y2862369D01*
X7247548Y2853395D01*
X7247548Y2853394D01*
Y2834302D01*
X7210499D01*
Y2774753D01*
X6859611D01*
X6709482Y2924882D01*
X6701874Y2929965D01*
X6692900Y2931751D01*
X6692899Y2931751D01*
X6651902D01*
Y3016897D01*
D02*
G37*
G36*
X12293600Y3085591D02*
X11983916D01*
X11947891Y3080848D01*
X11914321Y3066943D01*
X11885493Y3044823D01*
X11636042Y2795371D01*
X11557000D01*
X11547050Y2791250D01*
X11542929Y2781300D01*
Y2358398D01*
X11542256Y2356773D01*
X11537513Y2320747D01*
X11542256Y2284722D01*
X11542929Y2283097D01*
Y2026877D01*
X11538778Y1995348D01*
Y1895875D01*
X11473867Y1830964D01*
X10833744D01*
Y2105100D01*
X10878000D01*
Y2206603D01*
X10878000Y2214422D01*
X10895017Y2229041D01*
X10899329Y2228795D01*
X10931293Y2196831D01*
Y2127600D01*
X11052293D01*
Y2233600D01*
X10968062D01*
X10878000Y2323662D01*
Y2416100D01*
X10818451D01*
Y2603499D01*
X10818451Y2603500D01*
X10816665Y2612474D01*
X10811582Y2620082D01*
X10811581Y2620083D01*
X10697282Y2734382D01*
X10689674Y2739465D01*
X10680700Y2741251D01*
X10680699Y2741251D01*
X10451117D01*
X10451116Y2741251D01*
X10442142Y2739465D01*
X10428469Y2738738D01*
X10418505Y2745895D01*
X10296950Y2867450D01*
X10287000Y2871571D01*
X9746728D01*
X9623850Y2994450D01*
X9613900Y2998571D01*
X9093200D01*
X9083250Y2994450D01*
X9079129Y2984500D01*
Y2970700D01*
X9078602D01*
Y2769700D01*
X9087234D01*
X9093200Y2767229D01*
X9468371D01*
X9616400Y2619201D01*
Y2614800D01*
X9620800D01*
X9642050Y2593550D01*
X9652000Y2589429D01*
X10191551D01*
X10358479Y2391083D01*
X10350040Y2372951D01*
X10120002D01*
X10119150Y2373520D01*
X10109200Y2375499D01*
X10099251Y2373520D01*
X10090816Y2367885D01*
X10009531Y2286599D01*
X9611969D01*
X9284685Y2613883D01*
X9276251Y2619519D01*
X9266301Y2621498D01*
X9204602D01*
Y2695999D01*
X9078602D01*
Y2494999D01*
X9204602D01*
Y2569500D01*
X9255532D01*
X9582816Y2242215D01*
X9591251Y2236580D01*
X9601200Y2234601D01*
X10020300D01*
X10030250Y2236580D01*
X10038684Y2242216D01*
X10122518Y2326049D01*
X10425487D01*
X10425489Y2326049D01*
X10426355Y2326221D01*
X10443816Y2315165D01*
X10446355Y2311727D01*
Y2174201D01*
X10448916Y2161325D01*
X10456209Y2150409D01*
X10467125Y2143116D01*
X10475305Y2141489D01*
X10482038Y2128086D01*
X10483183Y2121082D01*
X10480250Y2118150D01*
X10476129Y2108200D01*
Y1974329D01*
X10454850Y1953050D01*
X10450729Y1943100D01*
Y1689100D01*
X10454850Y1679150D01*
X10577560Y1556441D01*
X10587509Y1552319D01*
X10818317D01*
X10818952Y1552583D01*
X11531522D01*
X11567547Y1557325D01*
X11601118Y1571231D01*
X11629945Y1593351D01*
X11776391Y1739797D01*
X11784170Y1749935D01*
X11820950Y1786714D01*
X11825071Y1796664D01*
Y2590710D01*
X12041571Y2807209D01*
X12293600D01*
X12329625Y2811952D01*
X12363195Y2825857D01*
X12392023Y2847977D01*
X12414143Y2876805D01*
X12428048Y2910375D01*
X12432791Y2946400D01*
X12428048Y2982425D01*
X12414143Y3015995D01*
X12392023Y3044823D01*
X12363195Y3066943D01*
X12329625Y3080848D01*
X12293600Y3085591D01*
D02*
G37*
G36*
X1381300Y2083600D02*
X1260300D01*
Y1977600D01*
X1297349D01*
Y1616753D01*
X1297349Y1616752D01*
X1299135Y1607778D01*
X1304218Y1600170D01*
X1330552Y1573836D01*
Y1441000D01*
X1446552D01*
Y1607000D01*
X1363716D01*
X1344251Y1626466D01*
Y1977600D01*
X1381300D01*
Y2083600D01*
D02*
G37*
G36*
X2152501Y1413762D02*
X2135395D01*
X2119590Y1407215D01*
X2107494Y1395119D01*
X2100948Y1379315D01*
Y1362209D01*
X2107494Y1346404D01*
X2119590Y1334308D01*
X2120497Y1333933D01*
Y1075701D01*
X2120497Y1075700D01*
X2122283Y1066726D01*
X2127366Y1059118D01*
X2210448Y976036D01*
Y928862D01*
X2089266Y807680D01*
X2084183Y800072D01*
X2082397Y791098D01*
X2082397Y791097D01*
Y778973D01*
X2073502Y776589D01*
X2054394Y765557D01*
X2038791Y749954D01*
X2027759Y730846D01*
X2022048Y709532D01*
Y687468D01*
X2027759Y666154D01*
X2038791Y647046D01*
X2054394Y631443D01*
X2073502Y620411D01*
X2094815Y614700D01*
X2116880D01*
X2138194Y620411D01*
X2157302Y631443D01*
X2172905Y647046D01*
X2183937Y666154D01*
X2189648Y687468D01*
Y709532D01*
X2183937Y730846D01*
X2172905Y749954D01*
X2157302Y765557D01*
X2147446Y771247D01*
X2142886Y793109D01*
X2143626Y795712D01*
X2243614Y895700D01*
X2331448D01*
Y1001700D01*
X2250753D01*
X2250030Y1002782D01*
X2217112Y1035700D01*
X2225397Y1055700D01*
X2331448D01*
Y1085249D01*
X2426700D01*
Y1040200D01*
X2551700D01*
Y1144200D01*
X2510299D01*
Y1307726D01*
X2511127Y1308280D01*
X2528233D01*
X2544038Y1314826D01*
X2556134Y1326922D01*
X2562680Y1342727D01*
Y1359833D01*
X2556134Y1375638D01*
X2544038Y1387734D01*
X2528233Y1394280D01*
X2511127D01*
X2495322Y1387734D01*
X2483226Y1375638D01*
X2476680Y1359833D01*
Y1342727D01*
X2477056Y1341820D01*
X2470266Y1335030D01*
X2465183Y1327422D01*
X2463397Y1318448D01*
X2463397Y1318447D01*
Y1144200D01*
X2426700D01*
Y1132150D01*
X2331448D01*
Y1161700D01*
X2210448D01*
Y1070649D01*
X2190448Y1062364D01*
X2167399Y1085414D01*
Y1333933D01*
X2168306Y1334308D01*
X2180402Y1346404D01*
X2186948Y1362209D01*
Y1379315D01*
X2180402Y1395119D01*
X2168306Y1407215D01*
X2152501Y1413762D01*
D02*
G37*
G36*
X1894803Y1313000D02*
X1877697D01*
X1861892Y1306454D01*
X1849796Y1294358D01*
X1843250Y1278553D01*
Y1261447D01*
X1845822Y1255238D01*
X1578184Y987600D01*
X1497848D01*
Y866600D01*
X1603848D01*
Y947295D01*
X1604930Y948018D01*
X1883912Y1227000D01*
X1894803D01*
X1910607Y1233546D01*
X1922703Y1245642D01*
X1929250Y1261447D01*
Y1278553D01*
X1922703Y1294358D01*
X1910607Y1306454D01*
X1894803Y1313000D01*
D02*
G37*
G36*
X1446552Y1289500D02*
X1330552D01*
Y1123500D01*
X1364645D01*
Y987600D01*
X1337848D01*
Y866600D01*
X1443848D01*
Y987600D01*
X1417052D01*
Y1123500D01*
X1446552D01*
Y1289500D01*
D02*
G37*
G36*
X1916296Y411503D02*
X1899190D01*
X1883386Y404957D01*
X1871290Y392861D01*
X1864743Y377056D01*
Y359950D01*
X1871290Y344146D01*
X1883386Y332050D01*
X1899190Y325503D01*
X1916296D01*
X1917203Y325879D01*
X2113558Y129524D01*
X2121166Y124440D01*
X2130141Y122655D01*
X2144507D01*
Y85606D01*
X2250506D01*
Y206606D01*
X2144507D01*
Y193189D01*
X2124507Y184904D01*
X1950367Y359043D01*
X1950743Y359950D01*
Y377056D01*
X1944197Y392861D01*
X1932101Y404957D01*
X1916296Y411503D01*
D02*
G37*
%LPD*%
G36*
X5872794Y5290349D02*
X5865140Y5271871D01*
X5632585D01*
X5622635Y5267750D01*
X5559636Y5204750D01*
X5549898D01*
Y5192807D01*
X5548529Y5189502D01*
Y4953000D01*
X5552650Y4943050D01*
X5562600Y4938929D01*
X5727841D01*
Y4295611D01*
X5715952Y4286253D01*
X5696948Y4294674D01*
Y4379900D01*
X5575948D01*
Y4307062D01*
X5527986Y4259100D01*
X5259358D01*
X5257687Y4261600D01*
X5268378Y4281600D01*
X5364550D01*
Y4334436D01*
X5464500Y4434386D01*
X5464501Y4434387D01*
X5469584Y4441995D01*
X5471370Y4450969D01*
X5471370Y4450970D01*
Y4947837D01*
X5510419D01*
Y5023309D01*
X5511718Y5026419D01*
X5512223Y5193088D01*
X5512241Y5198701D01*
X5510420Y5212341D01*
X5499366Y5212341D01*
X5497721Y5213032D01*
X5404930Y5213521D01*
X5398237Y5213557D01*
X5385418Y5212341D01*
Y5210115D01*
X5223644Y5157062D01*
X5207448Y5168796D01*
Y5212249D01*
X5207448D01*
X5206435Y5232249D01*
X5207838Y5234349D01*
X5259071D01*
X5259446Y5233442D01*
X5271542Y5221346D01*
X5287347Y5214800D01*
X5304453D01*
X5320258Y5221346D01*
X5332354Y5233442D01*
X5338900Y5249247D01*
Y5266353D01*
X5332354Y5282158D01*
X5325770Y5288741D01*
X5333567Y5308741D01*
X5854402D01*
X5872794Y5290349D01*
D02*
G37*
G36*
X5497647Y5198961D02*
X5498169Y5198744D01*
X5497647Y5026462D01*
X5400648D01*
X5195117Y4960922D01*
X5115148Y4960080D01*
X5095496Y4979874D01*
Y5113598D01*
X5115321Y5133320D01*
X5195117Y5132898D01*
X5398162Y5199486D01*
X5497647Y5198961D01*
D02*
G37*
G36*
X6299200Y5156200D02*
Y5075895D01*
X6203552Y4980247D01*
X6032500Y5151299D01*
Y5308600D01*
X6146800D01*
X6299200Y5156200D01*
D02*
G37*
G36*
X5905500Y5257643D02*
Y4991100D01*
X5854700Y4940300D01*
X5842000Y4953000D01*
X5562600D01*
Y5189502D01*
X5564846Y5190060D01*
X5564845D01*
X5632585Y5257800D01*
X5905343D01*
X5905500Y5257643D01*
D02*
G37*
G36*
X4968550Y4376600D02*
Y4367600D01*
X4968550D01*
Y4314761D01*
X4928817Y4275028D01*
X4923734Y4267420D01*
X4921948Y4258446D01*
X4921948Y4258445D01*
Y4223993D01*
X4917327Y4223385D01*
X4895920Y4214518D01*
X4877538Y4200412D01*
X4877526Y4200398D01*
X4857629Y4200150D01*
Y4200150D01*
X4786794D01*
X4783599Y4203345D01*
Y4362800D01*
X4820648D01*
Y4392350D01*
X4958288D01*
X4968550Y4376600D01*
D02*
G37*
G36*
X5118100Y3657600D02*
X4749800D01*
Y3924300D01*
X5118100D01*
Y3657600D01*
D02*
G37*
G36*
X7482793Y4937807D02*
Y4767247D01*
X7091347D01*
X7086600Y4762500D01*
X7002518Y4846582D01*
X6925352Y4907355D01*
X6930294Y4926735D01*
X7010400Y4940300D01*
X7480300D01*
X7482793Y4937807D01*
D02*
G37*
G36*
X7862472Y5098877D02*
Y5088173D01*
Y4698785D01*
X7564718D01*
X7549355Y4709491D01*
X7546680Y4712166D01*
X7546679Y4730220D01*
Y5165783D01*
X7795567D01*
X7862472Y5098877D01*
D02*
G37*
G36*
X10464664Y4886487D02*
X10413864Y4835687D01*
Y4683287D01*
Y4679211D01*
Y4678754D01*
X10200146D01*
X10197964Y4680936D01*
Y4683287D01*
Y5216687D01*
X10223364Y5242087D01*
X10464664D01*
Y4886487D01*
D02*
G37*
G36*
X9931400Y4927599D02*
X10196464Y4662536D01*
X10412915D01*
Y4581911D01*
X10412691Y4575398D01*
X10315102D01*
Y4572000D01*
X10096500D01*
X9944100Y4724400D01*
X9067800Y4724400D01*
Y4927600D01*
X9931400Y4927599D01*
D02*
G37*
G36*
X8955449Y4788847D02*
Y2940302D01*
X8935449Y2933513D01*
X8922190Y2950793D01*
X8904598Y2968385D01*
Y2970700D01*
X8902283D01*
X8711875Y3161108D01*
Y4089400D01*
Y4552562D01*
X8889512Y4730199D01*
X8891827D01*
Y4732514D01*
X8909419Y4750106D01*
X8927532Y4773712D01*
X8935449Y4792826D01*
X8955449Y4788847D01*
D02*
G37*
G36*
X6375394Y4583255D02*
X6375093Y3848013D01*
X6403653Y3848004D01*
Y3568700D01*
X6109940D01*
X6095815Y3582860D01*
X6096470Y3848096D01*
X6134100Y3848085D01*
Y4597400D01*
X6361255D01*
X6375394Y4583255D01*
D02*
G37*
G36*
X10833100Y5219700D02*
Y4686300D01*
Y4681768D01*
X10617200D01*
Y4682225D01*
Y4686300D01*
Y4838700D01*
X10566400Y4889500D01*
Y5245100D01*
X10807700D01*
X10833100Y5219700D01*
D02*
G37*
G36*
X12446000Y5080000D02*
X12014200D01*
X11633200Y4699000D01*
Y4178300D01*
X11633200D01*
Y4127500D01*
X11518900Y4013200D01*
X10845800D01*
X10769600Y4089399D01*
Y4510093D01*
X10747624Y4532069D01*
X10632162Y4531258D01*
X10617970Y4545350D01*
Y4663423D01*
X10817861Y4663439D01*
X10934700Y4546599D01*
Y4241800D01*
X11007846Y4191000D01*
X11328400D01*
X11415550Y4278150D01*
X11417300D01*
Y5295900D01*
X12446000D01*
Y5080000D01*
D02*
G37*
G36*
X2379908Y3690516D02*
X2463800Y3390900D01*
X3271320D01*
X4368800Y2329207D01*
Y1854200D01*
X4267200Y1765300D01*
X3187700D01*
X2933700Y1968500D01*
X2827254D01*
X2805765Y1989988D01*
Y2014329D01*
X2975219D01*
X3187700Y1892300D01*
X4062154D01*
X4115543Y1945690D01*
Y2260600D01*
X3154256Y3177800D01*
X2481191D01*
X2363873Y3051700D01*
X2357949D01*
Y3045332D01*
X2159568Y2832100D01*
X1943100D01*
X1752600Y3022600D01*
X1428629D01*
X1315981Y2909952D01*
X1315981D01*
X1315706Y2908300D01*
X1082244D01*
Y3087445D01*
X1320800Y3289300D01*
X1358900Y3276600D01*
X1841500D01*
X1854200Y3263900D01*
X2360775Y3696342D01*
X2379908Y3690516D01*
D02*
G37*
G36*
X2742830Y3143729D02*
X2650724Y3051624D01*
X2613949D01*
Y3051700D01*
X2408137D01*
X2400152Y3070037D01*
X2487318Y3163729D01*
X2734545D01*
X2742830Y3143729D01*
D02*
G37*
G36*
X3149599Y2829117D02*
X2599235D01*
Y3037552D01*
X2656552D01*
X2768600Y3149600D01*
X3149600D01*
X3149599Y2829117D01*
D02*
G37*
G36*
X2490380Y2266421D02*
X2496602Y2247350D01*
X2492481Y2237401D01*
Y2199786D01*
X2486602Y2197351D01*
X2484168Y2191473D01*
X2446552Y2191472D01*
X2444488Y2190617D01*
X1849621D01*
X1849620Y2190617D01*
X1840646Y2188832D01*
X1833037Y2183749D01*
X1833037Y2183748D01*
X1737251Y2087962D01*
X1723268Y2091506D01*
X1717251Y2095632D01*
Y2128586D01*
X1859037Y2270373D01*
X2487763D01*
X2490380Y2266421D01*
D02*
G37*
G36*
X3789608Y2260903D02*
X3786050Y2241222D01*
X3571832Y2167002D01*
X3430027Y2311607D01*
X3175003Y2311232D01*
X3111672Y2247900D01*
X2966147Y2102375D01*
X2965515Y2103007D01*
X2915625D01*
X2911053Y2114176D01*
X2910407Y2123007D01*
X2946400Y2159000D01*
Y2476500D01*
X3529053D01*
X3789608Y2260903D01*
D02*
G37*
G36*
X2908300Y2501900D02*
Y2157514D01*
X2728481D01*
X2727270Y2158725D01*
Y2473270D01*
X2781300Y2527300D01*
X2882900D01*
X2908300Y2501900D01*
D02*
G37*
G36*
X3429000Y1993900D02*
X3416300Y1981200D01*
X3098800D01*
X2985563Y2045216D01*
X2982170Y2052215D01*
X2973431Y2070236D01*
X3176494Y2273300D01*
X3429000D01*
X3429000Y1993900D01*
D02*
G37*
G36*
X3511948Y2207971D02*
Y1952598D01*
X4074268D01*
X4085808Y1935854D01*
X4056326Y1906371D01*
X3191453D01*
X3120484Y1947129D01*
X3125819Y1967129D01*
X3416300D01*
X3426249Y1971250D01*
X3438949Y1983950D01*
X3443071Y1993900D01*
X3443071Y2249643D01*
X3463071Y2257813D01*
X3511948Y2207971D01*
D02*
G37*
G36*
X2045157Y2075472D02*
X2011386Y2041700D01*
X1938548D01*
Y1920700D01*
X2044548D01*
Y2008534D01*
X2089963Y2053949D01*
X2347902D01*
X2355555Y2035472D01*
X2127366Y1807282D01*
X2122283Y1799674D01*
X2120497Y1790700D01*
X2120497Y1790699D01*
Y1736809D01*
X2109846Y1726158D01*
X2103300Y1710353D01*
Y1693247D01*
X2109846Y1677442D01*
X2121942Y1665346D01*
X2128931Y1662452D01*
X2124953Y1642452D01*
X1957066D01*
X1862599Y1736919D01*
Y2009586D01*
X1946961Y2093949D01*
X2037504D01*
X2045157Y2075472D01*
D02*
G37*
G36*
X2869892Y1936340D02*
X2869685Y1934429D01*
X2851888Y1920772D01*
X2837782Y1902390D01*
X2828915Y1880983D01*
X2825890Y1858010D01*
X2828915Y1835037D01*
X2837782Y1813630D01*
X2851888Y1795248D01*
X3122448Y1524687D01*
X3110457Y1509654D01*
X3108561Y1510439D01*
X3094653Y1516200D01*
X3077547D01*
X3076640Y1515824D01*
X2759878Y1832586D01*
Y1875607D01*
X2760620Y1877399D01*
Y1915014D01*
X2766499Y1917449D01*
X2768933Y1923327D01*
X2806549Y1923328D01*
X2816499Y1927449D01*
X2816499Y1927450D01*
X2820620Y1937399D01*
Y1937400D01*
X2820645Y1937546D01*
X2827254Y1954429D01*
X2865208D01*
X2869892Y1936340D01*
D02*
G37*
G36*
X9740900Y2857500D02*
X10287000D01*
X10415853Y2728647D01*
Y2374900D01*
X10390490D01*
X10198100Y2603500D01*
X9652000D01*
X9474200Y2781300D01*
X9093200D01*
Y2984500D01*
X9613900D01*
X9740900Y2857500D01*
D02*
G37*
G36*
X10769600Y2590800D02*
Y2438400D01*
X10747300Y2416100D01*
X10712000D01*
Y2380800D01*
X10640081Y2308881D01*
X10579189D01*
Y2451011D01*
X10477500Y2552700D01*
Y2647010D01*
X10477734Y2665787D01*
X10496845Y2667000D01*
X10693400D01*
X10769600Y2590800D01*
D02*
G37*
G36*
X11811000Y1796664D02*
X11700475Y1686139D01*
X11557000Y1829615D01*
Y2781300D01*
X11811000D01*
Y1796664D01*
D02*
G37*
G36*
X10680700Y1994685D02*
X10818317D01*
Y1566391D01*
X10587509D01*
X10464800Y1689100D01*
Y1943100D01*
X10490200Y1968500D01*
Y2108200D01*
X10515600Y2133600D01*
Y2286000D01*
X10516096Y2293473D01*
X10680700D01*
Y1994685D01*
D02*
G37*
D10*
X594Y300128D02*
G03*
X300594Y128I300000J0D01*
G01*
X12699984Y5300771D02*
G03*
X12399984Y5600771I-300000J0D01*
G01*
X12309755Y0D02*
G03*
X12700000Y390245I0J390245D01*
G01*
X300076Y5600706D02*
G03*
X76Y5300706I0J-300000D01*
G01*
X300076Y5600706D02*
X12399984Y5600700D01*
X-0Y5300706D02*
X0Y300128D01*
X12700000Y5300771D02*
X12700000Y390245D01*
X300594Y-1D02*
X12309755Y0D01*
D11*
X7860800Y3018000D02*
D03*
Y2953000D02*
D03*
Y3083000D02*
D03*
X7670800D02*
D03*
Y2953000D02*
D03*
D12*
X11214202Y5181600D02*
D03*
Y4800600D02*
D03*
Y4419600D02*
D03*
X11391665Y2646147D02*
D03*
X11384705Y2320747D02*
D03*
X11385970Y1995348D02*
D03*
X11506200Y5181600D02*
D03*
Y4800600D02*
D03*
Y4419600D02*
D03*
X11677969Y1995348D02*
D03*
X11676703Y2320747D02*
D03*
X11683663Y2646147D02*
D03*
D13*
X10515600Y4597400D02*
D03*
D14*
X10660598Y4497400D02*
D03*
Y4447398D02*
D03*
Y4547398D02*
D03*
Y4597400D02*
D03*
Y4647397D02*
D03*
Y4697400D02*
D03*
Y4747402D02*
D03*
X10370602D02*
D03*
Y4697400D02*
D03*
Y4647397D02*
D03*
Y4597400D02*
D03*
Y4547398D02*
D03*
Y4497400D02*
D03*
Y4447398D02*
D03*
D15*
X9855150Y4555302D02*
D03*
X9512300Y4555299D02*
D03*
X1254948Y2739202D02*
D03*
Y3001198D02*
D03*
X9855150Y4817298D02*
D03*
X9512300Y4817300D02*
D03*
D16*
X10541300Y4076700D02*
D03*
X10401300D02*
D03*
X2861351Y2425700D02*
D03*
X3001350D02*
D03*
X4945634Y4137650D02*
D03*
X4805629D02*
D03*
D17*
X10991793Y2340599D02*
D03*
X5636448Y4486900D02*
D03*
X1320800Y2190600D02*
D03*
Y2030600D02*
D03*
X2270948Y1108700D02*
D03*
Y948700D02*
D03*
X10991793Y2180600D02*
D03*
X11360093Y3792200D02*
D03*
Y3632200D02*
D03*
X4760148Y4415800D02*
D03*
Y4575800D02*
D03*
X5636448Y4326900D02*
D03*
D18*
X10422499Y2236201D02*
D03*
X10532501D02*
D03*
D19*
X10045700Y2527300D02*
D03*
X1661348Y2921000D02*
D03*
X3340100Y2641295D02*
D03*
X2489200Y952195D02*
D03*
Y1092200D02*
D03*
X3340100Y2781300D02*
D03*
X1661348Y3061000D02*
D03*
X10045700Y2667305D02*
D03*
D20*
X9740900Y2425802D02*
D03*
Y2717800D02*
D03*
D21*
X7924302Y2243303D02*
D03*
X7734300D02*
D03*
X7264400D02*
D03*
X7454402D02*
D03*
X7728199Y2751303D02*
D03*
X7918201D02*
D03*
X7270999D02*
D03*
X7461001D02*
D03*
X7270501Y2497303D02*
D03*
X7460498D02*
D03*
X7734300D02*
D03*
X7924302D02*
D03*
D22*
X4943719Y5080091D02*
D03*
X7632700Y4821403D02*
D03*
X5649148Y5080000D02*
D03*
D23*
X4833950Y5178999D02*
D03*
Y5113000D02*
D03*
Y5047000D02*
D03*
Y4981001D02*
D03*
X7742469Y4920488D02*
D03*
Y4854489D02*
D03*
Y4788489D02*
D03*
Y4722490D02*
D03*
X5758917Y4981087D02*
D03*
Y5047092D02*
D03*
Y5113091D02*
D03*
Y5179090D02*
D03*
D24*
X7661900Y4533897D02*
D03*
X2697500Y1104900D02*
D03*
X2151553Y1981200D02*
D03*
X1821200Y939596D02*
D03*
X2357506Y146106D02*
D03*
X7501900Y4533897D02*
D03*
X2857500Y1104900D02*
D03*
Y901700D02*
D03*
X2697500D02*
D03*
X1981200Y939596D02*
D03*
X1550848Y927100D02*
D03*
X1991548Y1981200D02*
D03*
X2197506Y146106D02*
D03*
X9922500Y4076700D02*
D03*
X9762500D02*
D03*
X1390848Y927100D02*
D03*
D25*
X4237798Y2832100D02*
D03*
X4499799D02*
D03*
D26*
X2646548Y2197400D02*
D03*
X2606548D02*
D03*
X2686548D02*
D03*
X2616551Y1917400D02*
D03*
X2656550D02*
D03*
X2566548Y2197400D02*
D03*
Y1917400D02*
D03*
X2696550D02*
D03*
D27*
X2283648Y1428999D02*
D03*
X10795000Y2355600D02*
D03*
Y2165600D02*
D03*
X2283648Y1619001D02*
D03*
D28*
X5041550Y4324600D02*
D03*
Y4419600D02*
D03*
Y4514600D02*
D03*
X5291550D02*
D03*
Y4419600D02*
D03*
Y4324600D02*
D03*
D29*
X10566400Y2616200D02*
D03*
X10326400D02*
D03*
D30*
X10632778Y5047432D02*
D03*
X10395778D02*
D03*
D31*
X6588902Y2916398D02*
D03*
X6288898D02*
D03*
X8828827Y4830699D02*
D03*
X8841598Y2870200D02*
D03*
X6550802Y4508503D02*
D03*
Y5067300D02*
D03*
X6250798Y4508503D02*
D03*
Y5067300D02*
D03*
X3888598Y5194300D02*
D03*
X9128826Y4830699D02*
D03*
X9141602Y2870200D02*
D03*
Y2595499D02*
D03*
X9131300Y5105400D02*
D03*
X8831301D02*
D03*
X8841598Y2595499D02*
D03*
X4188602Y5194300D02*
D03*
D32*
X7431466Y4854489D02*
D03*
Y4788489D02*
D03*
Y4920488D02*
D03*
Y4722490D02*
D03*
X5144948Y4981001D02*
D03*
Y5047000D02*
D03*
Y5113000D02*
D03*
Y5178999D02*
D03*
X5447919Y5179090D02*
D03*
Y5113091D02*
D03*
Y5047092D02*
D03*
Y4981087D02*
D03*
D33*
X7289797Y4501398D02*
D03*
Y4566402D02*
D03*
D34*
X7010400Y4807798D02*
D03*
Y4377802D02*
D03*
D35*
X2485949Y2933700D02*
D03*
X2055952D02*
D03*
D36*
X2721549Y2057400D02*
D03*
Y2002399D02*
D03*
Y2112401D02*
D03*
D37*
X787400Y3198002D02*
D03*
X4709348Y1145398D02*
D03*
Y1445402D02*
D03*
X787400Y2897998D02*
D03*
D38*
X2486548Y2037400D02*
D03*
Y1997400D02*
D03*
Y2077400D02*
D03*
Y2117400D02*
D03*
D39*
X2511552Y2172401D02*
D03*
D40*
X1578549Y1206500D02*
D03*
Y1524000D02*
D03*
X1388552Y1206500D02*
D03*
Y1524000D02*
D03*
D41*
X2741549Y2172401D02*
D03*
D42*
X3794948Y1140602D02*
D03*
Y2110598D02*
D03*
D43*
X2741549Y1942399D02*
D03*
D44*
X2511552D02*
D03*
D45*
X10477500Y2251202D02*
D03*
D46*
X10552501Y2396200D02*
D03*
X10502499D02*
D03*
X10452501D02*
D03*
X10402499D02*
D03*
D47*
X11506200Y5016500D02*
Y5160100D01*
Y4800600D02*
Y5016500D01*
X7661900Y4533897D02*
X7661902Y4533900D01*
X10589600Y4497400D02*
X10660598D01*
X10515600Y4571400D02*
Y4597400D01*
Y4571400D02*
X10589600Y4497400D01*
X10541000Y4076400D02*
X10541300Y4076700D01*
X9740900Y2425802D02*
X9741002Y2425700D01*
X7924302Y2243303D02*
X7925237Y2242368D01*
X4833950Y5047000D02*
Y5113000D01*
X4828540Y5047000D02*
X4833950D01*
Y4981001D02*
Y5047000D01*
X4828540Y4981001D02*
Y5047000D01*
X4778450Y5113000D02*
X4833950D01*
X4745451Y5080000D02*
X4778450Y5113000D01*
X7860802Y3018003D02*
X7863101Y3020301D01*
X4828540Y4981001D02*
X4833950D01*
X5632648Y4483100D02*
X5636448Y4486900D01*
X4737100Y5080000D02*
X4745451D01*
X1254948Y2739202D02*
X1258946Y2743200D01*
X3344402Y2635098D02*
X3379600Y2670295D01*
X2646548Y2197400D02*
Y2293752D01*
Y2197400D02*
X2686548D01*
X2697500Y1104900D02*
X2705100Y1112500D01*
X2606548Y2197400D02*
X2646548D01*
X2606548Y1957403D02*
X2616551Y1947400D01*
X2606548Y1957403D02*
Y2197400D01*
X2616551Y1917400D02*
Y1947400D01*
X2283648Y1428999D02*
X2286000Y1426647D01*
X2151553Y1981200D02*
X2154365Y1984012D01*
X2357506Y146106D02*
X2363800Y152400D01*
X1821200Y939596D02*
X1823844Y936953D01*
X1320800Y1616752D02*
X1388552Y1549000D01*
X1320800Y1616752D02*
Y2030600D01*
X1428300Y2190600D02*
X1465546Y2153353D01*
X1304468Y2190600D02*
X1428300D01*
X1465546Y2011646D02*
Y2153353D01*
X1460500Y2006600D02*
X1465546Y2011646D01*
X1693800Y2138300D02*
X1849323Y2293823D01*
X1680327Y2010400D02*
X1693800Y2023873D01*
X1420200Y1768747D02*
Y1864700D01*
X1849323Y2293823D02*
X2517125D01*
X1420200Y1864700D02*
X1565900Y2010400D01*
X1680327D01*
X1693800Y2023873D02*
Y2138300D01*
X1750248Y2067795D02*
X1849620Y2167167D01*
X1750248Y1284879D02*
Y2067795D01*
X1420200Y1768747D02*
X1494824Y1694123D01*
X1849620Y2167167D02*
X2506318D01*
X1503925Y1694123D02*
X1578549Y1619499D01*
X1494824Y1694123D02*
X1503925D01*
X1388552Y1524000D02*
Y1549000D01*
X2486848Y1108700D02*
Y1318448D01*
X2519680Y1351280D01*
X2656550Y1841652D02*
Y1917400D01*
X2622103Y1807205D02*
X2656550Y1841652D01*
X2270948Y1108700D02*
X2486848D01*
X10425489Y2349500D02*
X10451815Y2375826D01*
X10109200Y2349500D02*
X10425489D01*
X2143948Y1704152D02*
Y1790700D01*
Y1704152D02*
X2146300Y1701800D01*
X2463800Y1861010D02*
X2511552Y1908762D01*
Y1942399D01*
X5208551Y4258629D02*
X5231531Y4235650D01*
X5208551Y4258629D02*
Y4366602D01*
X5241549Y4399600D01*
X5241551D01*
X5261549Y4419598D01*
Y4419600D01*
X5231531Y4235650D02*
X5537700D01*
X5261549Y4419600D02*
X5291552D01*
X10552501Y2396200D02*
Y2439599D01*
X10439400Y2552700D02*
Y2706084D01*
Y2552700D02*
X10552501Y2439599D01*
X2834031Y1182402D02*
X2865102Y1213473D01*
X2781300Y1155700D02*
X2808002Y1182402D01*
X2865102Y1213473D02*
X2875926D01*
X2808002Y1182402D02*
X2834031D01*
X5537700Y4235650D02*
X5628950Y4326900D01*
X2233448Y978700D02*
Y986200D01*
X2143948Y1075700D02*
X2233448Y986200D01*
X2143948Y1075700D02*
Y1370762D01*
X2263448Y948700D02*
X2270948D01*
X2233448Y978700D02*
X2263448Y948700D01*
X2290548Y1709952D02*
X2342724D01*
X2387600Y1665076D01*
X2273300Y1727200D02*
X2290548Y1709952D01*
X2387600Y1562100D02*
Y1665076D01*
X2346996Y1521496D02*
X2387600Y1562100D01*
X2166656Y1521496D02*
X2346996D01*
X7477994Y4778239D02*
X7518400Y4737833D01*
X7441716Y4778239D02*
X7477994D01*
X7518400Y4699000D02*
Y4737833D01*
Y4699000D02*
X7581900Y4635500D01*
Y4471111D02*
Y4635500D01*
X10738263Y4597400D02*
X10807700Y4527963D01*
Y4165600D02*
Y4527963D01*
X10660598Y4597400D02*
X10738263D01*
X10370602Y4697400D02*
Y4747402D01*
X10660598Y4697400D02*
Y4747402D01*
Y4597400D02*
Y4647397D01*
X11188700Y4051300D02*
X11264900Y4127500D01*
X10922000Y4051300D02*
X11188700D01*
X10807700Y4165600D02*
X10922000Y4051300D01*
X11360093Y3792200D02*
Y4152900D01*
X11506200Y5160100D02*
Y5181600D01*
Y5160100D02*
X11611700Y5054600D01*
X11506200Y4419600D02*
Y4800600D01*
X9309100Y4076700D02*
X9762500D01*
X9029700Y4356100D02*
Y5067300D01*
Y4356100D02*
X9309100Y4076700D01*
X10249698Y4547398D02*
X10370602D01*
X10185400Y4483100D02*
X10249698Y4547398D01*
X10185400Y4241800D02*
Y4483100D01*
X10020300Y4076700D02*
X10185400Y4241800D01*
X9922500Y4076700D02*
X10020300D01*
X9063016Y5100616D02*
X9126516D01*
X9131300Y5105400D01*
X9029700Y5067300D02*
X9063016Y5100616D01*
X8940800Y5105400D02*
X8978900Y5067300D01*
X8909882Y2597982D02*
X8978900Y2667000D01*
Y5067300D01*
X7221220Y4722490D02*
X7391400D01*
X7713980Y4920488D02*
X7742469D01*
X7747000Y4852266D02*
Y4920488D01*
X8831301Y5105400D02*
X8940800D01*
X7010400Y4377802D02*
X7090004Y4298198D01*
X7710133Y4924335D02*
X7713980Y4920488D01*
X7010400D02*
X7431466D01*
X7010400Y4511670D02*
X7221220Y4722490D01*
X7708950Y4920488D02*
X7747000D01*
X7742469Y4847735D02*
X7747000Y4852266D01*
X10680700Y2717800D02*
X10795000Y2603500D01*
X10451116Y2717800D02*
X10680700D01*
X10795000Y2340600D02*
Y2603500D01*
X10439400Y2706084D02*
X10451116Y2717800D01*
X8846240Y2597982D02*
X8909882D01*
X8841598Y2593340D02*
X8846240Y2597982D01*
X6299200Y3073400D02*
X6731000Y3505200D01*
Y4089400D01*
X6849897Y2751303D02*
X7270999D01*
X6692900Y2908300D02*
X6849897Y2751303D01*
X6597000Y2908300D02*
X6692900D01*
X6588902Y2916398D02*
X6597000Y2908300D01*
X7270999Y2751303D02*
Y2853395D01*
X7130801Y2666502D02*
X7142963Y2654341D01*
X6288898Y2916398D02*
X6299200Y2926700D01*
Y3073400D01*
X7431466Y4854489D02*
Y4920488D01*
Y4788489D02*
Y4854489D01*
Y4788489D02*
X7441716Y4778239D01*
X7570184Y4459395D02*
X7581900Y4471111D01*
X7338905Y4459395D02*
X7570184D01*
X7289797Y4501398D02*
X7302298D01*
X7314798Y4483502D02*
Y4488898D01*
X7302298Y4501398D02*
X7314798Y4488898D01*
X7010400Y4807798D02*
Y4920488D01*
X6979498Y4838700D02*
X7010400Y4807798D01*
X7314798Y4483502D02*
X7338905Y4459395D01*
X7010400Y4377802D02*
Y4511670D01*
X7391400Y4668004D02*
Y4722490D01*
X7429500D01*
X7289797Y4566402D02*
X7391400Y4668004D01*
X7431466Y4611832D02*
Y4722490D01*
X7429500D02*
X7431466D01*
Y4611832D02*
X7501900Y4541397D01*
Y4533897D02*
Y4541397D01*
X7747000Y4925830D02*
Y5067300D01*
X7632700Y4844238D02*
X7708950Y4920488D01*
X7632700Y4821403D02*
Y4844238D01*
X7742469Y4788489D02*
Y4854489D01*
X7632700Y4821403D02*
X7665613Y4788489D01*
X7742469Y4722490D02*
Y4788489D01*
X7665613D02*
X7742469D01*
X4760148Y4415800D02*
X5037750D01*
X5041549Y4419600D01*
X4940300Y4137650D02*
X4945399Y4142749D01*
X2921000Y3073400D02*
X3009900D01*
X2886746D02*
X2921000D01*
X2880548Y3067202D02*
X2886746Y3073400D01*
X4945399Y4258446D02*
X5011552Y4324599D01*
X4945399Y4142749D02*
Y4258446D01*
X5011552Y4324599D02*
X5041549D01*
X5144948Y5221148D02*
X5181600Y5257800D01*
X5144948Y5178999D02*
Y5221148D01*
X5181600Y5257800D02*
X5295900D01*
X1981200Y939596D02*
Y1336040D01*
X2166656Y1521496D01*
X1550848Y927100D02*
Y934600D01*
X1580848Y964600D02*
X1588348D01*
X1886250Y1262502D01*
Y1270000D01*
X1550848Y934600D02*
X1580848Y964600D01*
X2781300Y1041400D02*
Y1155700D01*
X2707384Y967484D02*
X2781300Y1041400D01*
X2697500Y901700D02*
X2707384Y911584D01*
Y967484D01*
X2857500Y901700D02*
Y1104900D01*
X2736427Y1822873D02*
X3086100Y1473200D01*
X2736427Y1822873D02*
Y1937277D01*
X2741549Y1942399D01*
X2506318Y2167167D02*
X2511552Y2172401D01*
X2910149Y2002399D02*
X2931348Y1981200D01*
X3098800Y1854200D02*
X4102100D01*
X2931348Y1981200D02*
X2971800D01*
X3098800Y1854200D01*
X4102100D02*
X4191000Y1943100D01*
X3050398Y1140602D02*
X3794948D01*
X2566548Y1624452D02*
X3050398Y1140602D01*
X2263450Y948700D02*
X2270948D01*
X2105848Y791098D02*
X2263450Y948700D01*
X2105848Y698500D02*
Y791098D01*
X2390648Y2037400D02*
X2486548D01*
X2143948Y1790700D02*
X2390648Y2037400D01*
X1671869Y1206500D02*
X1750248Y1284879D01*
X1578549Y1206500D02*
X1671869D01*
X2273300Y1727200D02*
Y1841500D01*
X2429200Y1997400D01*
X2486548D01*
X2861351Y2292203D02*
Y2425700D01*
X2741549Y2172401D02*
X2861351Y2292203D01*
X2491664Y3187700D02*
X2517064Y3213100D01*
X3274248D02*
X4191000Y2296348D01*
X2517064Y3213100D02*
X3274248D01*
X4191000Y1943100D02*
Y2296348D01*
X2055952Y2933700D02*
X2081352Y2959100D01*
X2566548Y2197400D02*
Y2244400D01*
X2517125Y2293823D02*
X2566548Y2244400D01*
X1578549Y1524000D02*
Y1619499D01*
X2566548Y1624452D02*
Y1917400D01*
X1991548Y1981200D02*
Y1988698D01*
X2080250Y2077400D01*
X2486548D01*
X2696550Y1687490D02*
Y1917400D01*
Y1687490D02*
X2885440Y1498600D01*
X1907743Y368503D02*
X2130141Y146106D01*
X2197506D01*
X2959100Y2112401D02*
X3001350Y2154652D01*
X3669949Y2110598D02*
X3794948D01*
X3001350Y2154652D02*
Y2425700D01*
X1839148Y1727205D02*
Y2019300D01*
Y1727205D02*
X1947352Y1619001D01*
X2283648D01*
X1839148Y2019300D02*
X1937248Y2117400D01*
X2486548D01*
X8659343Y2593340D02*
X8841598D01*
X7142963Y2654341D02*
X7270501Y2526802D01*
X7918201Y2656840D02*
Y2751303D01*
X7142963Y2654341D02*
X7918201Y2656840D01*
X7130801Y2941803D02*
X7340600Y3151602D01*
X7759202D01*
X7827802Y3083001D01*
X7860802D01*
X7270501Y2497303D02*
Y2526802D01*
X8841598Y2593340D02*
Y2595499D01*
X7536180Y3083001D02*
X7670800D01*
X5758917Y4981087D02*
Y5047092D01*
Y5113091D01*
X5682056Y5047092D02*
X5758917D01*
X5649148Y5080000D02*
X5682056Y5047092D01*
X4760148Y4193631D02*
Y4415800D01*
Y4193631D02*
X4805629Y4148150D01*
Y4137650D02*
Y4148150D01*
X7270999Y2853395D02*
X7370602Y2952999D01*
X7670800D01*
X7819807Y2370303D02*
X7924302Y2474798D01*
Y2497303D02*
Y2519802D01*
X8038033Y2633533D01*
Y2860065D01*
X7945100Y2952999D02*
X8038033Y2860065D01*
X7860802Y2952999D02*
X7945100D01*
X4188602Y4616298D02*
Y5194300D01*
Y4616298D02*
X4229100Y4575800D01*
X4760148D01*
X5628950Y4326900D02*
X5636448D01*
X5144948Y5047000D02*
X5260548D01*
X5326639Y5113091D01*
X5447919D01*
X5291552Y4324599D02*
X5321549D01*
X5447919Y4450969D01*
Y4981087D01*
X5291552Y4514601D02*
X5293548Y4516603D01*
Y4648200D01*
X5293223Y4648525D02*
X5293548Y4648200D01*
D48*
X11683663Y2646147D02*
X11983916Y2946400D01*
X12293600D01*
X10795000Y1691773D02*
X11531522D01*
X11677969Y1838220D02*
Y1995348D01*
X11531522Y1691773D02*
X11677969Y1838220D01*
X11683663Y2327708D02*
Y2646147D01*
X11676703Y2320747D02*
X11683663Y2327708D01*
Y2001042D02*
Y2320747D01*
X1803400Y3238500D02*
X3464250Y4899350D01*
D49*
X4833950Y5113000D02*
Y5178999D01*
X10302402Y4343599D02*
Y4477221D01*
Y4343599D02*
X10401300Y4244701D01*
X10302402Y4477221D02*
X10320281Y4495100D01*
X10368302D02*
X10370602Y4497400D01*
X10320281Y4495100D02*
X10368302D01*
X10370602Y4386798D02*
X10642600Y4114800D01*
X10370602Y4386798D02*
Y4447398D01*
X10642600Y3632200D02*
Y4114800D01*
Y3632200D02*
X10820400Y3454400D01*
X10678400Y4447398D02*
X10680700Y4445098D01*
X10660598Y4447398D02*
X10678400D01*
X10680700Y4241800D02*
Y4445098D01*
X10401300Y4076700D02*
Y4244701D01*
X11360093Y3632200D02*
X11366500Y3625793D01*
Y3469279D02*
Y3625793D01*
X11351621Y3454400D02*
X11366500Y3469279D01*
X10820400Y3454400D02*
X11351621D01*
X9855150Y4817298D02*
X9998776D01*
X10168676Y4647397D01*
X9142227Y4817298D02*
X9512300D01*
X9855150D01*
X9128826Y4830699D02*
X9142227Y4817298D01*
X10168676Y4647397D02*
X10370602D01*
Y4597400D02*
Y4647397D01*
X10369279Y5020930D02*
X10395777Y5047432D01*
X10632779D02*
X10659276Y5020930D01*
X2760050Y3067202D02*
X2880548D01*
X2626548Y2933700D02*
X2760050Y3067202D01*
X2485949Y2933700D02*
X2626548D01*
X1917730Y2956723D02*
X2032930D01*
X5758917Y5113091D02*
Y5179090D01*
X1390848Y927100D02*
Y1204199D01*
X1388552Y1206500D02*
X1390848Y1204199D01*
X7461001Y2751303D02*
X7728199D01*
X7460498Y2497303D02*
X7734300D01*
X7264400Y2243303D02*
Y2338802D01*
X7295901Y2370303D01*
X7819807D01*
X7924302Y2474798D02*
Y2497303D01*
X7454402Y2243303D02*
X7734300D01*
X5144948Y4981001D02*
Y5047000D01*
Y5113000D01*
X5447919Y5047092D02*
Y5113091D01*
Y5179090D01*
D50*
X10480001Y2174201D02*
Y2336800D01*
Y2340700D02*
X10578670D01*
X10584370Y2346400D01*
X10603001D01*
D51*
Y2458841D01*
X10566400Y2495443D02*
X10603001Y2458841D01*
X10566400Y2495443D02*
Y2616200D01*
X10795000Y1691773D02*
Y2180600D01*
X10532501Y1691773D02*
X10795000D01*
D52*
X10020300Y2260600D02*
X10109200Y2349500D01*
X10452501Y2396200D02*
X10502499D01*
X9141602Y2595499D02*
X9266301D01*
X9601200Y2260600D01*
X10020300D01*
X10795000Y2340600D02*
X10810000Y2325600D01*
X10839293D01*
X10984293Y2180600D01*
X10991793D01*
X3329600Y2781300D02*
X3340100D01*
X3215300Y2895600D02*
X3329600Y2781300D01*
X3213100Y2057400D02*
X3289300Y2133600D01*
X2721549Y2057400D02*
X3213100D01*
X3098800Y2895600D02*
X3215300D01*
X4709348Y1145398D02*
X4762500D01*
X3799743D02*
X4709348D01*
X2721549Y2002399D02*
X2910149D01*
X2721549Y2112401D02*
X2959100D01*
D53*
X5699750Y4137650D02*
X5816600Y4254500D01*
X4945634Y4137650D02*
X5699750D01*
X5816600Y4254500D02*
Y4989408D01*
X3976466Y5397500D02*
X5891168D01*
X6183868Y5104800D01*
X6200798D01*
X6225798Y5079800D01*
X5758917Y5047092D02*
X5816600Y4989408D01*
X4940300Y3848100D02*
Y4137650D01*
X3524250Y3867150D02*
Y3892149D01*
X3888598Y4256502D01*
Y5194300D01*
X787400Y3225800D02*
Y3263900D01*
X3888598Y5309632D02*
X3976466Y5397500D01*
X3888598Y5194300D02*
Y5309632D01*
X3812598Y5257800D02*
X3876098Y5194300D01*
X3327400Y5257800D02*
X3812598D01*
X3876098Y5194300D02*
X3888598D01*
X787400Y3263900D02*
X1003300Y3479800D01*
X1549400D01*
X3327400Y5257800D01*
X4499799Y2586801D02*
X4709348Y2377252D01*
Y1445402D02*
Y2377252D01*
X3327258Y1445402D02*
X4709348D01*
X2914650Y1858010D02*
X3327258Y1445402D01*
X3524250Y4959350D02*
X3568700Y4914900D01*
X1372250Y3238500D02*
X1803400D01*
X1254948Y3001198D02*
Y3121198D01*
X1372250Y3238500D01*
X4499799Y2586801D02*
Y2806700D01*
D54*
X8597900Y4089400D02*
Y4599772D01*
X6731000Y4089400D02*
X8597900D01*
X6550802Y5067300D02*
X7747000D01*
X6550802Y4508503D02*
X6881000Y4838700D01*
X8597900Y3113898D02*
X8841598Y2870200D01*
X8597900Y3113898D02*
Y4089400D01*
Y4599772D02*
X8828827Y4830699D01*
X6550802Y4269598D02*
X6731000Y4089400D01*
X6881000Y4838700D02*
X6979498D01*
X6550802Y4269598D02*
Y4508503D01*
D55*
X10532501Y1691773D02*
Y2236201D01*
D56*
X3524250Y4953292D02*
Y4959350D01*
X3470308Y4899350D02*
X3524250Y4953292D01*
X3464250Y4899350D02*
X3470308D01*
D57*
X787400Y2819400D02*
Y2897998D01*
Y2819400D02*
X838200Y2768600D01*
X3002263Y2426612D02*
X3353935D01*
D58*
X444500Y5232400D02*
D03*
X12293600Y5181600D02*
D03*
Y2946400D02*
D03*
X444500Y4127500D02*
D03*
D59*
Y4978400D02*
D03*
Y3873500D02*
D03*
X12293600Y2692400D02*
D03*
Y4927600D02*
D03*
D60*
X1200150Y4946650D02*
D03*
X3549650Y3854450D02*
D03*
X1225550Y3841750D02*
D03*
X3524250Y4959350D02*
D03*
D61*
X1851848Y698500D02*
D03*
D62*
X2105848D02*
D03*
D63*
X12420600Y3136900D02*
D03*
X12103100Y3149600D02*
D03*
X12052300Y4826000D02*
D03*
X12082593Y2452696D02*
D03*
X12382592D02*
D03*
X12532592Y2752696D02*
D03*
X832596Y3952696D02*
D03*
Y4552695D02*
D03*
X6532594Y1552696D02*
D03*
X6382594Y2452696D02*
D03*
X1732596Y4552695D02*
D03*
X11182593Y652697D02*
D03*
X6232594Y352697D02*
D03*
X1282596Y652697D02*
D03*
X11632593Y3952696D02*
D03*
X1132596Y2152696D02*
D03*
X8182594Y2452696D02*
D03*
X3682595Y4852695D02*
D03*
X4132595Y952697D02*
D03*
X9682593Y652697D02*
D03*
X12232593Y2152696D02*
D03*
X11332593Y952697D02*
D03*
X10732593Y352697D02*
D03*
X1132596Y4552695D02*
D03*
X8482594Y1252697D02*
D03*
X2932595Y3952696D02*
D03*
X11482593Y3052696D02*
D03*
X10882593Y1252697D02*
D03*
X82596D02*
D03*
X4282595Y4852695D02*
D03*
X10582593Y3052696D02*
D03*
X7582594Y652697D02*
D03*
X6982594Y3052696D02*
D03*
X9082593Y2452696D02*
D03*
X232596Y1552696D02*
D03*
X11482593Y3652696D02*
D03*
X6532594Y952697D02*
D03*
X12082593Y4252696D02*
D03*
X10882593Y652697D02*
D03*
X12082593Y1252697D02*
D03*
X6682594Y2452696D02*
D03*
X6832594Y2152696D02*
D03*
X8182594Y1852696D02*
D03*
X5482595Y1252697D02*
D03*
X1432596Y5152695D02*
D03*
X8632594Y1552696D02*
D03*
X5332595Y2152696D02*
D03*
X7432594Y1552696D02*
D03*
X7882594Y1252697D02*
D03*
X5782594Y2452696D02*
D03*
X11932593Y952697D02*
D03*
X3382595Y652697D02*
D03*
X5182595Y1852696D02*
D03*
X9832593Y5152695D02*
D03*
X9232593Y352697D02*
D03*
X2632595Y2752696D02*
D03*
X82596Y2452696D02*
D03*
X11332593Y352697D02*
D03*
X7582594Y1852696D02*
D03*
X1432596Y4552695D02*
D03*
X6532594Y2752696D02*
D03*
X9382593Y4252696D02*
D03*
X232596Y352697D02*
D03*
X1432596Y2752696D02*
D03*
X11482593Y652697D02*
D03*
X682596D02*
D03*
X10744200Y3937000D02*
D03*
X7732594Y952697D02*
D03*
X7432594D02*
D03*
X9832593Y2152696D02*
D03*
X1882596Y4252696D02*
D03*
X10132593Y5152695D02*
D03*
X10432593Y1552696D02*
D03*
X3832595Y352697D02*
D03*
X2932595Y5152695D02*
D03*
X1282596Y4252696D02*
D03*
X6232594Y1552696D02*
D03*
X9382593Y3052696D02*
D03*
X6682594Y652697D02*
D03*
X3082595Y1252697D02*
D03*
X9232593Y2152696D02*
D03*
X12232593Y1552696D02*
D03*
X6232594Y3352696D02*
D03*
X6682594Y1252697D02*
D03*
X5482595Y1852696D02*
D03*
X9682593D02*
D03*
X11332593Y3352696D02*
D03*
X11932593Y352697D02*
D03*
X8782594Y652697D02*
D03*
X6382594D02*
D03*
X382596Y1852696D02*
D03*
X3532595Y4552695D02*
D03*
X532596Y952697D02*
D03*
X6232594Y2752696D02*
D03*
X9832593Y952697D02*
D03*
X1432596Y352697D02*
D03*
X7132594Y3352696D02*
D03*
X6532594Y3952696D02*
D03*
X5182595Y4852695D02*
D03*
X9532593Y952697D02*
D03*
X10882593Y4852695D02*
D03*
X532596Y1552696D02*
D03*
X11182593Y4252696D02*
D03*
X10882593Y2452696D02*
D03*
X9532593Y2152696D02*
D03*
X9682593Y3052696D02*
D03*
X9082593Y3652696D02*
D03*
X5182595Y3052696D02*
D03*
X6082594Y1852696D02*
D03*
X4582595Y3052696D02*
D03*
X4732595Y352697D02*
D03*
X5932594Y2152696D02*
D03*
X8032594Y1552696D02*
D03*
X2482595Y4852695D02*
D03*
X7432594Y352697D02*
D03*
X12532592Y3352696D02*
D03*
X7882594Y3652696D02*
D03*
X9382593Y1252697D02*
D03*
X12232593Y952697D02*
D03*
X4882595Y1852696D02*
D03*
X9082593Y1252697D02*
D03*
X9532593Y5152695D02*
D03*
X11782593Y652697D02*
D03*
X1882596Y4852695D02*
D03*
X9982593Y3052696D02*
D03*
X382596Y652697D02*
D03*
X6382594Y3052696D02*
D03*
X8782594Y2452696D02*
D03*
X12082593Y3652696D02*
D03*
X9232593Y1552696D02*
D03*
X8332594Y2752696D02*
D03*
X6982594Y1852696D02*
D03*
X6082594Y2452696D02*
D03*
X5638800Y4660900D02*
D03*
X382596Y1252697D02*
D03*
X5032595Y1552696D02*
D03*
X1282596Y1252697D02*
D03*
X5932594Y3952696D02*
D03*
X9082593Y652697D02*
D03*
X8332594Y5152695D02*
D03*
X8482594Y2452696D02*
D03*
X7732594Y352697D02*
D03*
X5782594Y3652696D02*
D03*
X232596Y952697D02*
D03*
X5632595Y2152696D02*
D03*
X12082593Y1852696D02*
D03*
X8182594Y3652696D02*
D03*
X832596Y2152696D02*
D03*
X10582593Y1252697D02*
D03*
X3232595Y2752696D02*
D03*
X8482594Y4852695D02*
D03*
X4282595Y1252697D02*
D03*
X5632595Y952697D02*
D03*
X6532594Y352697D02*
D03*
X10132593D02*
D03*
X9232593Y3952696D02*
D03*
X4432595Y352697D02*
D03*
X12232593Y3952696D02*
D03*
X982596Y1252697D02*
D03*
X4582595Y4252696D02*
D03*
X1432596Y3952696D02*
D03*
X7732594Y3352696D02*
D03*
X7132594Y4552695D02*
D03*
X5932594Y952697D02*
D03*
X382596Y3052696D02*
D03*
X4582595Y1852696D02*
D03*
X1582596Y2452696D02*
D03*
X8332594Y2152696D02*
D03*
X3382595Y1252697D02*
D03*
X7882594Y652697D02*
D03*
X6982594D02*
D03*
X4732595Y2752696D02*
D03*
X9082593Y3052696D02*
D03*
X9532593Y3352696D02*
D03*
X5482595Y3652696D02*
D03*
X6832594Y4552695D02*
D03*
X9532593Y3952696D02*
D03*
X3232595D02*
D03*
X2006600Y1689100D02*
D03*
X5486400Y4343400D02*
D03*
X10732593Y952697D02*
D03*
X1732596Y5152695D02*
D03*
X1882596Y2452696D02*
D03*
X3082595Y4252696D02*
D03*
X4132595Y3952696D02*
D03*
X10132593Y952697D02*
D03*
X2482595Y652697D02*
D03*
X8782594Y1852696D02*
D03*
Y4252696D02*
D03*
X232596Y4552695D02*
D03*
X11032593Y952697D02*
D03*
X4882595Y4852695D02*
D03*
X682596D02*
D03*
X1732596Y2752696D02*
D03*
X10515600Y4406900D02*
D03*
X982596Y2452696D02*
D03*
X2332596Y5152695D02*
D03*
X7732594Y1552696D02*
D03*
X10732593Y3352696D02*
D03*
X8782594Y3652696D02*
D03*
X6082594Y3052696D02*
D03*
X10132593Y3352696D02*
D03*
X11182593Y1252697D02*
D03*
X7882594Y1852696D02*
D03*
X5182595Y3652696D02*
D03*
X532596Y3352696D02*
D03*
X8632594Y952697D02*
D03*
X3082595Y652697D02*
D03*
X8182594D02*
D03*
X3532595Y352697D02*
D03*
X5032595Y952697D02*
D03*
X9532593Y1552696D02*
D03*
X10282593Y1852696D02*
D03*
Y4252696D02*
D03*
X10432593Y352697D02*
D03*
X7582594Y1252697D02*
D03*
X5032595Y2752696D02*
D03*
X9982593Y1852696D02*
D03*
X8482594Y652697D02*
D03*
X7282594Y4252696D02*
D03*
X6982594Y2452696D02*
D03*
X5932594Y2752696D02*
D03*
X3832595Y3352696D02*
D03*
X5632595Y1552696D02*
D03*
X232596Y3952696D02*
D03*
X11782593Y4252696D02*
D03*
X10882593Y3052696D02*
D03*
X10582593Y3652696D02*
D03*
X5182595Y652697D02*
D03*
X6082594Y1252697D02*
D03*
X11032593Y2752696D02*
D03*
X11632593Y1552696D02*
D03*
X12382592Y1852696D02*
D03*
X4132595Y4552695D02*
D03*
X982596Y652697D02*
D03*
X10582593D02*
D03*
X4132595Y3352696D02*
D03*
X532596Y352697D02*
D03*
X10432593Y952697D02*
D03*
X7882594Y4252696D02*
D03*
X10282593Y3052696D02*
D03*
X1132596Y952697D02*
D03*
X10282593Y3652696D02*
D03*
X9382593Y1852696D02*
D03*
X532596Y2152696D02*
D03*
X7282594Y1852696D02*
D03*
X8182594Y1252697D02*
D03*
X3232595Y352697D02*
D03*
X8632594Y5152695D02*
D03*
X382596Y2452696D02*
D03*
X4282595Y652697D02*
D03*
X9982593D02*
D03*
X9532593Y352697D02*
D03*
X5332595Y952697D02*
D03*
X82596Y4252696D02*
D03*
X5632595Y3352696D02*
D03*
X2032596Y2752696D02*
D03*
X82596Y3052696D02*
D03*
X1132596Y352697D02*
D03*
X82596Y4852695D02*
D03*
X5932594Y1552696D02*
D03*
X4732595Y3352696D02*
D03*
X11150600Y3670300D02*
D03*
X1132596Y2752696D02*
D03*
X12532592Y5152695D02*
D03*
X3382595Y4252696D02*
D03*
X3982595Y3052696D02*
D03*
X8032594Y3352696D02*
D03*
X10282593Y1252697D02*
D03*
X832596Y952697D02*
D03*
X1732596Y3952696D02*
D03*
X6682594Y3052696D02*
D03*
X6982594Y3652696D02*
D03*
X532596Y4552695D02*
D03*
X5782594Y1852696D02*
D03*
X8182594Y4252696D02*
D03*
X3532595Y3352696D02*
D03*
X7282594Y652697D02*
D03*
X3682595Y2452696D02*
D03*
X82596Y3652696D02*
D03*
X9982593Y1252697D02*
D03*
X232596Y2752696D02*
D03*
X8032594Y952697D02*
D03*
X5932594Y352697D02*
D03*
X5782594Y652697D02*
D03*
X6232594Y2152696D02*
D03*
X8932594Y1552696D02*
D03*
X7282594Y3652696D02*
D03*
X6832594Y352697D02*
D03*
X5032595Y3352696D02*
D03*
X2032596Y352697D02*
D03*
X9232593Y4552695D02*
D03*
X4132595Y352697D02*
D03*
X9832593D02*
D03*
X8032594D02*
D03*
X9232593Y5152695D02*
D03*
X6232594Y952697D02*
D03*
X6382594Y4852695D02*
D03*
X12382592Y3652696D02*
D03*
X6832594Y952697D02*
D03*
X1582596Y652697D02*
D03*
X9982593Y3652696D02*
D03*
X6682594Y4852695D02*
D03*
X2032596Y4552695D02*
D03*
X982596Y3052696D02*
D03*
X11482593Y1252697D02*
D03*
X8632594Y2152696D02*
D03*
X1582596Y4252696D02*
D03*
X7132594Y2152696D02*
D03*
X8032594Y5152695D02*
D03*
X3232595Y952697D02*
D03*
X5032595Y2152696D02*
D03*
X5632595Y3952696D02*
D03*
X9832593Y3352696D02*
D03*
X5332595Y352697D02*
D03*
X1732596D02*
D03*
X8332594Y3352696D02*
D03*
X11932593Y3952696D02*
D03*
X1132596Y1552696D02*
D03*
X11032593Y3352696D02*
D03*
X7582594Y4252696D02*
D03*
X12382592Y1252697D02*
D03*
X2932595Y352697D02*
D03*
X12232593Y4552695D02*
D03*
X8332594Y1552696D02*
D03*
X9382593Y3652696D02*
D03*
X4282595Y4252696D02*
D03*
X1132596Y3352696D02*
D03*
X7282594Y1252697D02*
D03*
X12382592Y4252696D02*
D03*
X6532594Y2152696D02*
D03*
X6082594Y4252696D02*
D03*
X7132594Y952697D02*
D03*
X8632594Y352697D02*
D03*
X5482595Y2452696D02*
D03*
X4882595Y3052696D02*
D03*
X682596Y1252697D02*
D03*
X3982595Y652697D02*
D03*
X9232593Y952697D02*
D03*
X4582595Y652697D02*
D03*
X12532592Y2152696D02*
D03*
X8932594Y952697D02*
D03*
X4582595Y4852695D02*
D03*
X8332594Y4552695D02*
D03*
X5632595Y352697D02*
D03*
X832596Y1552696D02*
D03*
X3682595Y652697D02*
D03*
X8932594Y2152696D02*
D03*
X7132594Y1552696D02*
D03*
X11632593Y952697D02*
D03*
X6382594Y1852696D02*
D03*
X3532595Y2752696D02*
D03*
X5182595Y1252697D02*
D03*
X12532592Y352697D02*
D03*
X11239500Y3924300D02*
D03*
X682596Y3052696D02*
D03*
X8332594Y352697D02*
D03*
X6832594Y3352696D02*
D03*
X4282595Y3052696D02*
D03*
X2632595Y352697D02*
D03*
X12532592Y952697D02*
D03*
X11782593Y1252697D02*
D03*
X11632593Y352697D02*
D03*
X232596Y3352696D02*
D03*
X11782593Y3652696D02*
D03*
X4432595Y3952696D02*
D03*
X11932593Y2152696D02*
D03*
X7432594Y3352696D02*
D03*
X4882595Y652697D02*
D03*
X232596Y5152695D02*
D03*
X10845800Y3657600D02*
D03*
X12232593Y3352696D02*
D03*
X10432593D02*
D03*
X5332595Y1552696D02*
D03*
X2032596Y5152695D02*
D03*
X2782595Y652697D02*
D03*
X4882595Y1252697D02*
D03*
X10732593Y2752696D02*
D03*
X2632595Y5152695D02*
D03*
X2182596Y4852695D02*
D03*
X8932594Y352697D02*
D03*
X232596Y2152696D02*
D03*
X10132593Y1552696D02*
D03*
X8782594Y1252697D02*
D03*
X2332596Y2752696D02*
D03*
X4432595Y3352696D02*
D03*
X5332595D02*
D03*
X11019640Y3932183D02*
D03*
X12532592Y4552695D02*
D03*
X5632595Y2752696D02*
D03*
X12532592Y3952696D02*
D03*
X11932593Y3352696D02*
D03*
X2332596Y352697D02*
D03*
X6682594Y1852696D02*
D03*
X5332595Y3952696D02*
D03*
X7582594Y3652696D02*
D03*
X6382594Y1252697D02*
D03*
X82596Y1852696D02*
D03*
X11182593Y3052696D02*
D03*
X11264900Y3530600D02*
D03*
X6082594Y652697D02*
D03*
X4432595Y5152695D02*
D03*
X1582596Y4852695D02*
D03*
X8482594Y1852696D02*
D03*
X12382592Y652697D02*
D03*
X832596Y352697D02*
D03*
X9082593Y1852696D02*
D03*
X11032593Y352697D02*
D03*
X8182594Y4852695D02*
D03*
X5638800Y4851400D02*
D03*
X9682593Y1252697D02*
D03*
X5482595Y652697D02*
D03*
X8032594Y2152696D02*
D03*
X12232593Y352697D02*
D03*
X5782594Y1252697D02*
D03*
X11782593Y3052696D02*
D03*
X6982594Y1252697D02*
D03*
X2032596Y1552696D02*
D03*
X9232593Y3352696D02*
D03*
X5032595Y352697D02*
D03*
X10432593Y3952696D02*
D03*
X2332596Y4552695D02*
D03*
X3832595Y3952696D02*
D03*
X2182596Y2452696D02*
D03*
X982596Y1852696D02*
D03*
X11932593Y4552695D02*
D03*
X12082593Y652697D02*
D03*
X682596Y2452696D02*
D03*
X3682595Y4252696D02*
D03*
X8632594Y2752696D02*
D03*
X8032594Y4552695D02*
D03*
X8332594Y952697D02*
D03*
X6832594Y1552696D02*
D03*
X4432595Y952697D02*
D03*
X82596Y652697D02*
D03*
X4582595Y1252697D02*
D03*
X982596Y4852695D02*
D03*
X11632593Y3352696D02*
D03*
X4732595Y952697D02*
D03*
X10282593Y652697D02*
D03*
X10132593Y3952696D02*
D03*
X9682593Y3652696D02*
D03*
X7132594Y352697D02*
D03*
X12532592Y1552696D02*
D03*
X11932593D02*
D03*
X9832593D02*
D03*
X6082594Y4852695D02*
D03*
X532596Y2752696D02*
D03*
X9832593Y3952696D02*
D03*
X682596Y1852696D02*
D03*
X9382593Y652697D02*
D03*
X11163300Y4991100D02*
D03*
X11252200D02*
D03*
X11061700Y4813300D02*
D03*
Y5181600D02*
D03*
Y5092700D02*
D03*
Y5270500D02*
D03*
Y4991100D02*
D03*
Y4902200D02*
D03*
X11163300Y4622800D02*
D03*
X11252200D02*
D03*
X11061700Y4356100D02*
D03*
Y4711700D02*
D03*
Y4533900D02*
D03*
Y4445000D02*
D03*
Y4622800D02*
D03*
X10515600Y4699000D02*
D03*
X10515848Y4603057D02*
D03*
X10515600Y4508500D02*
D03*
X9461500Y4394200D02*
D03*
X9639300D02*
D03*
X9740900D02*
D03*
X9550400D02*
D03*
X9918700D02*
D03*
X9917763Y4295255D02*
D03*
X9829800Y4394200D02*
D03*
X9828863Y4295255D02*
D03*
X9739963D02*
D03*
X9550400Y4292600D02*
D03*
X9639300D02*
D03*
X9461500D02*
D03*
X11239500Y2641600D02*
D03*
X11341100Y2489200D02*
D03*
X11442700D02*
D03*
X11239500Y2552700D02*
D03*
Y2730500D02*
D03*
X11430000Y2159000D02*
D03*
X11328400D02*
D03*
X11239500Y1917700D02*
D03*
Y2006600D02*
D03*
Y2413000D02*
D03*
Y2324100D02*
D03*
Y2235200D02*
D03*
Y2095500D02*
D03*
X10172700Y2247900D02*
D03*
X10350500D02*
D03*
X10261600Y2159000D02*
D03*
Y2247900D02*
D03*
X10350500Y2159000D02*
D03*
Y2070100D02*
D03*
X10261600D02*
D03*
X10172700D02*
D03*
Y2159000D02*
D03*
X4737100Y5181600D02*
D03*
X4648200Y5080000D02*
D03*
X4737100D02*
D03*
Y4978400D02*
D03*
X4648200D02*
D03*
Y5181600D02*
D03*
X2590800Y2489200D02*
D03*
X2654300Y2425700D02*
D03*
X2501900Y2438400D02*
D03*
X2646548Y2293752D02*
D03*
X2578100Y2374900D02*
D03*
X1460500Y2006600D02*
D03*
X2519680Y1351280D02*
D03*
X2622103Y1807205D02*
D03*
X2914650Y1858010D02*
D03*
X2146300Y1701800D02*
D03*
X2463800Y1861010D02*
D03*
X2875926Y1213473D02*
D03*
X10680700Y4241800D02*
D03*
X10401300Y4244701D02*
D03*
X7130801Y2666502D02*
D03*
X6159500Y3619500D02*
D03*
X6248400D02*
D03*
X6159500Y3708400D02*
D03*
X6248400D02*
D03*
X6337300Y3619500D02*
D03*
Y3708400D02*
D03*
X6159500Y3797300D02*
D03*
X6337300D02*
D03*
X6248400D02*
D03*
X3289300Y2222500D02*
D03*
X3378200D02*
D03*
X3200400D02*
D03*
X3378200Y2133600D02*
D03*
Y2044700D02*
D03*
X3289300Y2133600D02*
D03*
X3200400D02*
D03*
X3289300Y2044700D02*
D03*
X3200400D02*
D03*
X3009900Y3073400D02*
D03*
X3098800D02*
D03*
X3009900Y2984500D02*
D03*
X3098800D02*
D03*
X2921000D02*
D03*
Y3073400D02*
D03*
X3098800Y2895600D02*
D03*
X2921000D02*
D03*
X3009900D02*
D03*
X2794000Y3238500D02*
D03*
X5030192Y3734840D02*
D03*
X5029200Y3848100D02*
D03*
X4851400Y3733800D02*
D03*
X4940300D02*
D03*
X4851400Y3848100D02*
D03*
X4940300D02*
D03*
X5295900Y5257800D02*
D03*
X2143948Y1370762D02*
D03*
X3086100Y1473200D02*
D03*
X1886250Y1270000D02*
D03*
X2885440Y1498600D02*
D03*
X1907743Y368503D02*
D03*
X838200Y2768600D02*
D03*
X5293223Y4648525D02*
D03*
X7130801Y2941803D02*
D03*
X8659343Y2593340D02*
D03*
X7536180Y3083001D02*
D03*
%TF.MD5,9a0b2a8cb109cc8df33bbfc0fe42a434*%
M02*
