%TF.GenerationSoftware,Altium Limited,Altium Designer,25.7.1 (20)*%
G04 Layer_Color=65535*
%FSLAX45Y45*%
%MOMM*%
%TF.SameCoordinates,9EBC04B8-5010-450C-815D-03E4C15FF4C1*%
%TF.FilePolarity,Positive*%
%TF.FileFunction,Legend,Top*%
%TF.Part,Single*%
G01*
G75*
%TA.AperFunction,NonConductor*%
%ADD10C,0.20700*%
%ADD65C,0.10000*%
%ADD66C,0.20000*%
%ADD67C,0.25000*%
%TA.AperFunction,OtherPad,Free Pad (5.979mm,46.462mm)*%
%ADD68C,1.01600*%
%TA.AperFunction,OtherPad,Free Pad (5.979mm,35.413mm)*%
%ADD69C,1.01600*%
%TA.AperFunction,OtherPad,Free Pad (124.47mm,23.602mm)*%
%ADD70C,1.01600*%
%TA.AperFunction,OtherPad,Free Pad (124.47mm,45.954mm)*%
%ADD71C,1.01600*%
%TA.AperFunction,NonConductor*%
%ADD72C,0.12700*%
%ADD73C,0.25400*%
%ADD74C,0.15000*%
G36*
X8831328Y991020D02*
Y986717D01*
Y965200D01*
X8689319D01*
Y1094299D01*
X8831328D01*
Y991020D01*
D02*
G37*
G36*
X9334815Y1089996D02*
X9356331D01*
Y1085693D01*
X9369241D01*
Y1081389D01*
X9382151D01*
Y1077086D01*
X9395061D01*
Y1072783D01*
X9403668D01*
Y1068479D01*
X9412274D01*
Y1064176D01*
X9420881D01*
Y1059873D01*
X9429487D01*
Y1055569D01*
X9438094D01*
Y1051266D01*
X9442397D01*
Y1046963D01*
X9451004D01*
Y1042660D01*
X9455307D01*
Y1038356D01*
X9463914D01*
Y1034053D01*
X9468217D01*
Y1029750D01*
X9472521D01*
Y1025446D01*
X9476824D01*
Y1021143D01*
X9481127D01*
Y1016840D01*
X9485430D01*
Y1012536D01*
X9489734D01*
Y1008233D01*
X9494037D01*
Y1003930D01*
X9498340D01*
Y999626D01*
X9502644D01*
Y995323D01*
X9506947D01*
Y991020D01*
X9511250D01*
Y982413D01*
X9515553D01*
Y978110D01*
X9519857D01*
Y969503D01*
X9524160D01*
Y965200D01*
X9528464D01*
Y956593D01*
X9532767D01*
Y947987D01*
X9537070D01*
Y939380D01*
X9541373D01*
Y930774D01*
X9545677D01*
Y917864D01*
X9549980D01*
Y904954D01*
X9554283D01*
Y892044D01*
X9558587D01*
Y874831D01*
X9562890D01*
Y831797D01*
X9567193D01*
Y818888D01*
X9562890D01*
Y775854D01*
X9558587D01*
Y754338D01*
X9554283D01*
Y741428D01*
X9549980D01*
Y728518D01*
X9545677D01*
Y715608D01*
X9541373D01*
Y707002D01*
X9537070D01*
Y698395D01*
X9532767D01*
Y689788D01*
X9528464D01*
Y685485D01*
X9524160D01*
Y676879D01*
X9519857D01*
Y672575D01*
X9515553D01*
Y663969D01*
X9511250D01*
Y659665D01*
X9506947D01*
Y655362D01*
X9502644D01*
Y646755D01*
X9498340D01*
Y642452D01*
X9494037D01*
Y638149D01*
X9489734D01*
Y633845D01*
X9485430D01*
Y629542D01*
X9481127D01*
Y625239D01*
X9476824D01*
Y620936D01*
X9472521D01*
Y616632D01*
X9463914D01*
Y612329D01*
X9459610D01*
Y608026D01*
X9455307D01*
Y603722D01*
X9446701D01*
Y599419D01*
X9442397D01*
Y595116D01*
X9433791D01*
Y590812D01*
X9429487D01*
Y586509D01*
X9420881D01*
Y582206D01*
X9412274D01*
Y577903D01*
X9399364D01*
Y573599D01*
X9390758D01*
Y569296D01*
X9377848D01*
Y564993D01*
X9364938D01*
Y560689D01*
X9347725D01*
Y556386D01*
X9326208D01*
Y552083D01*
X9055100D01*
Y311097D01*
X8990550D01*
Y392860D01*
Y397164D01*
Y573599D01*
X8994853D01*
Y577903D01*
X8999157D01*
Y582206D01*
X9003460D01*
Y586509D01*
X9007764D01*
Y590812D01*
X9012067D01*
Y595116D01*
X9016370D01*
Y599419D01*
X9020673D01*
Y603722D01*
X9024977D01*
Y608026D01*
X9029280D01*
Y612329D01*
X9033583D01*
Y616632D01*
X9037887D01*
Y620936D01*
X9042190D01*
Y625239D01*
X9046493D01*
Y629542D01*
X9050796D01*
Y633845D01*
X9055100D01*
Y642452D01*
X9059403D01*
Y646755D01*
X9063707D01*
Y651059D01*
X9068010D01*
Y655362D01*
X9072313D01*
Y659665D01*
X9076616D01*
Y663969D01*
X9080920D01*
Y668272D01*
X9085223D01*
Y672575D01*
X9089526D01*
Y676879D01*
X9093830D01*
Y681182D01*
X9291782D01*
Y685485D01*
X9296085D01*
Y754338D01*
X9283175D01*
Y750035D01*
X9253052D01*
Y754338D01*
X9240142D01*
Y758641D01*
X9231536D01*
Y762945D01*
X9222929D01*
Y767248D01*
X9218625D01*
Y771551D01*
X9214322D01*
Y775854D01*
X9210019D01*
Y780158D01*
X9205716D01*
Y788764D01*
X9201412D01*
Y797371D01*
X9197109D01*
Y805978D01*
X9192806D01*
Y818888D01*
X9055100D01*
Y681182D01*
X9072313D01*
Y676879D01*
X9068010D01*
Y672575D01*
X9063707D01*
Y668272D01*
X9059403D01*
Y663969D01*
X9055100D01*
Y659665D01*
X9050796D01*
Y655362D01*
X9046493D01*
Y651059D01*
X9042190D01*
Y646755D01*
X9037887D01*
Y642452D01*
X9033583D01*
Y638149D01*
X9029280D01*
Y633845D01*
X9024977D01*
Y629542D01*
X9020673D01*
Y625239D01*
X9016370D01*
Y620936D01*
X9012067D01*
Y616632D01*
X9007764D01*
Y612329D01*
X9003460D01*
Y608026D01*
X8999157D01*
Y603722D01*
X8994853D01*
Y599419D01*
X8990550D01*
Y595116D01*
X8986247D01*
Y590812D01*
X8981944D01*
Y586509D01*
X8977640D01*
Y582206D01*
X8973337D01*
Y311097D01*
X8689319D01*
Y883437D01*
X8831328D01*
Y440197D01*
X8913091D01*
Y1094299D01*
X9334815D01*
Y1089996D01*
D02*
G37*
%LPC*%
G36*
X9296085Y965200D02*
X9055100D01*
Y836101D01*
X9192806D01*
Y849011D01*
X9197109D01*
Y861921D01*
X9201412D01*
Y866224D01*
X9205716D01*
Y874831D01*
X9210019D01*
Y879134D01*
X9214322D01*
Y883437D01*
X9218625D01*
Y887740D01*
X9222929D01*
Y892044D01*
X9231536D01*
Y896347D01*
X9235839D01*
Y900650D01*
X9248749D01*
Y904954D01*
X9291782D01*
Y900650D01*
X9296085D01*
Y904954D01*
X9300388D01*
Y926470D01*
X9296085D01*
Y935077D01*
X9300388D01*
Y960897D01*
X9296085D01*
Y965200D01*
D02*
G37*
G36*
X9287479Y892044D02*
X9253052D01*
Y887740D01*
X9240142D01*
Y883437D01*
X9235839D01*
Y879134D01*
X9227232D01*
Y874831D01*
X9222929D01*
Y870527D01*
X9218625D01*
Y861921D01*
X9214322D01*
Y857617D01*
X9210019D01*
Y844707D01*
X9205716D01*
Y836101D01*
X9240142D01*
Y874831D01*
X9253052D01*
Y861921D01*
X9257355D01*
Y866224D01*
X9261659D01*
Y870527D01*
X9270265D01*
Y874831D01*
X9274568D01*
Y879134D01*
X9283175D01*
Y883437D01*
X9287479D01*
Y892044D01*
D02*
G37*
G36*
X9313298Y879134D02*
X9300388D01*
Y874831D01*
X9291782D01*
Y870527D01*
X9287479D01*
Y866224D01*
X9278872D01*
Y861921D01*
X9274568D01*
Y857617D01*
X9265962D01*
Y853314D01*
X9261659D01*
Y849011D01*
X9257355D01*
Y844707D01*
X9253052D01*
Y810281D01*
X9257355D01*
Y805978D01*
X9265962D01*
Y801674D01*
X9270265D01*
Y797371D01*
X9283175D01*
Y801674D01*
X9287479D01*
Y797371D01*
X9291782D01*
Y788764D01*
X9296085D01*
Y784461D01*
X9300388D01*
Y775854D01*
X9308995D01*
Y780158D01*
X9313298D01*
Y784461D01*
X9317602D01*
Y788764D01*
X9321905D01*
Y793068D01*
X9326208D01*
Y801674D01*
X9330511D01*
Y814584D01*
X9334815D01*
Y844707D01*
X9330511D01*
Y853314D01*
X9326208D01*
Y861921D01*
X9321905D01*
Y870527D01*
X9317602D01*
Y874831D01*
X9313298D01*
Y879134D01*
D02*
G37*
G36*
X9240142Y818888D02*
X9205716D01*
Y810281D01*
X9210019D01*
Y801674D01*
X9214322D01*
Y793068D01*
X9218625D01*
Y784461D01*
X9222929D01*
Y780158D01*
X9231536D01*
Y775854D01*
X9235839D01*
Y771551D01*
X9244445D01*
Y767248D01*
X9257355D01*
Y762945D01*
X9274568D01*
Y767248D01*
X9287479D01*
Y771551D01*
X9270265D01*
Y775854D01*
X9265962D01*
Y780158D01*
X9270265D01*
Y784461D01*
X9265962D01*
Y788764D01*
X9261659D01*
Y793068D01*
X9253052D01*
Y780158D01*
X9240142D01*
Y818888D01*
D02*
G37*
G36*
X9317602Y960897D02*
X9313298D01*
Y892044D01*
X9317602D01*
Y887740D01*
X9321905D01*
Y883437D01*
X9326208D01*
Y879134D01*
X9330511D01*
Y874831D01*
X9334815D01*
Y866224D01*
X9339118D01*
Y857617D01*
X9343421D01*
Y844707D01*
X9347725D01*
Y810281D01*
X9343421D01*
Y797371D01*
X9339118D01*
Y788764D01*
X9334815D01*
Y780158D01*
X9330511D01*
Y775854D01*
X9326208D01*
Y771551D01*
X9321905D01*
Y767248D01*
X9313298D01*
Y685485D01*
X9317602D01*
Y689788D01*
X9330511D01*
Y694092D01*
X9339118D01*
Y698395D01*
X9347725D01*
Y702698D01*
X9356331D01*
Y707002D01*
X9360635D01*
Y711305D01*
X9364938D01*
Y715608D01*
X9373545D01*
Y719911D01*
X9377848D01*
Y724215D01*
X9382151D01*
Y728518D01*
X9386454D01*
Y737125D01*
X9390758D01*
Y741428D01*
X9395061D01*
Y745731D01*
X9399364D01*
Y754338D01*
X9403668D01*
Y762945D01*
X9407971D01*
Y775854D01*
X9412274D01*
Y797371D01*
X9416578D01*
Y836101D01*
Y840404D01*
Y849011D01*
X9412274D01*
Y870527D01*
X9407971D01*
Y883437D01*
X9403668D01*
Y892044D01*
X9399364D01*
Y900650D01*
X9395061D01*
Y904954D01*
X9390758D01*
Y913560D01*
X9386454D01*
Y917864D01*
X9382151D01*
Y922167D01*
X9377848D01*
Y926470D01*
X9373545D01*
Y930774D01*
X9369241D01*
Y935077D01*
X9360635D01*
Y939380D01*
X9356331D01*
Y943683D01*
X9347725D01*
Y947987D01*
X9339118D01*
Y952290D01*
X9330511D01*
Y956593D01*
X9317602D01*
Y960897D01*
D02*
G37*
G36*
X9502644Y836101D02*
X9476824D01*
Y831797D01*
X9472521D01*
Y827494D01*
X9468217D01*
Y823191D01*
X9463914D01*
Y797371D01*
X9468217D01*
Y793068D01*
X9472521D01*
Y788764D01*
X9476824D01*
Y784461D01*
X9481127D01*
Y745731D01*
X9476824D01*
Y741428D01*
X9472521D01*
Y737125D01*
X9468217D01*
Y732821D01*
X9463914D01*
Y728518D01*
X9459610D01*
Y724215D01*
X9455307D01*
Y719911D01*
X9451004D01*
Y715608D01*
X9446701D01*
Y711305D01*
X9442397D01*
Y707002D01*
X9438094D01*
Y702698D01*
X9433791D01*
Y698395D01*
X9429487D01*
Y694092D01*
X9425184D01*
Y689788D01*
X9420881D01*
Y685485D01*
X9416578D01*
Y681182D01*
X9412274D01*
Y676879D01*
X9407971D01*
Y672575D01*
X9403668D01*
Y668272D01*
X9399364D01*
Y663969D01*
X9395061D01*
Y659665D01*
X9390758D01*
Y655362D01*
X9386454D01*
Y651059D01*
X9382151D01*
Y646755D01*
X9377848D01*
Y642452D01*
X9373545D01*
Y638149D01*
X9369241D01*
Y633845D01*
X9364938D01*
Y629542D01*
X9360635D01*
Y625239D01*
X9171289D01*
Y629542D01*
X9166986D01*
Y633845D01*
X9162682D01*
Y638149D01*
X9158379D01*
Y642452D01*
X9136863D01*
Y638149D01*
X9128256D01*
Y633845D01*
X9123953D01*
Y625239D01*
X9119650D01*
Y608026D01*
X9123953D01*
Y599419D01*
X9128256D01*
Y595116D01*
X9136863D01*
Y590812D01*
X9158379D01*
Y595116D01*
X9162682D01*
Y599419D01*
X9166986D01*
Y603722D01*
X9171289D01*
Y608026D01*
X9364938D01*
Y612329D01*
X9369241D01*
Y616632D01*
X9373545D01*
Y620936D01*
X9377848D01*
Y625239D01*
X9382151D01*
Y629542D01*
X9386454D01*
Y633845D01*
X9390758D01*
Y638149D01*
X9395061D01*
Y642452D01*
X9399364D01*
Y646755D01*
X9403668D01*
Y651059D01*
X9407971D01*
Y655362D01*
X9412274D01*
Y659665D01*
X9416578D01*
Y663969D01*
X9420881D01*
Y668272D01*
X9425184D01*
Y672575D01*
X9429487D01*
Y676879D01*
X9433791D01*
Y681182D01*
X9438094D01*
Y685485D01*
X9442397D01*
Y689788D01*
X9446701D01*
Y694092D01*
X9451004D01*
Y698395D01*
X9455307D01*
Y702698D01*
X9459610D01*
Y707002D01*
X9463914D01*
Y711305D01*
X9468217D01*
Y715608D01*
X9472521D01*
Y719911D01*
X9476824D01*
Y724215D01*
X9481127D01*
Y728518D01*
X9485430D01*
Y732821D01*
X9489734D01*
Y737125D01*
X9494037D01*
Y741428D01*
X9498340D01*
Y775854D01*
Y780158D01*
Y784461D01*
X9502644D01*
Y788764D01*
X9506947D01*
Y793068D01*
X9511250D01*
Y797371D01*
X9515553D01*
Y823191D01*
X9511250D01*
Y827494D01*
X9506947D01*
Y831797D01*
X9502644D01*
Y836101D01*
D02*
G37*
G36*
X8805508Y616632D02*
X8788295D01*
Y612329D01*
X8805508D01*
Y616632D01*
D02*
G37*
G36*
X8771082Y741428D02*
X8745262D01*
Y737125D01*
X8740959D01*
Y732821D01*
X8736655D01*
Y728518D01*
X8732352D01*
Y724215D01*
X8728049D01*
Y663969D01*
X8723745D01*
Y659665D01*
X8710836D01*
Y651059D01*
X8736655D01*
Y595116D01*
X8745262D01*
Y651059D01*
X8771082D01*
Y560689D01*
X8783992D01*
Y651059D01*
X8805508D01*
Y655362D01*
X8809811D01*
Y659665D01*
X8796902D01*
Y663969D01*
X8792598D01*
Y715608D01*
X8788295D01*
Y724215D01*
Y728518D01*
X8783992D01*
Y732821D01*
X8779688D01*
Y737125D01*
X8771082D01*
Y741428D01*
D02*
G37*
%LPD*%
G36*
X9498340Y818888D02*
X9502644D01*
Y805978D01*
X9498340D01*
Y801674D01*
X9494037D01*
Y797371D01*
X9481127D01*
Y801674D01*
X9476824D01*
Y818888D01*
X9481127D01*
Y823191D01*
X9498340D01*
Y818888D01*
D02*
G37*
G36*
X9154076Y625239D02*
X9158379D01*
Y608026D01*
X9154076D01*
Y603722D01*
X9141166D01*
Y608026D01*
X9136863D01*
Y612329D01*
X9132559D01*
Y620936D01*
X9136863D01*
Y625239D01*
X9141166D01*
Y629542D01*
X9154076D01*
Y625239D01*
D02*
G37*
D10*
X1248111Y2199500D02*
Y2263000D01*
X1396147D01*
Y2199500D02*
Y2263000D01*
X1393489Y1958200D02*
Y2021700D01*
X1245453Y1958200D02*
X1393489D01*
X1245453D02*
Y2021700D01*
X10891439Y2082800D02*
Y2146300D01*
X10699333Y2082800D02*
X10891439D01*
X10699333D02*
Y2146300D01*
X10698947Y2374900D02*
Y2438400D01*
X10891053D01*
Y2374900D02*
Y2438400D01*
X10534797Y4000500D02*
X10610997D01*
Y4152900D01*
X10534797D02*
X10610997D01*
X10331597D02*
X10407797D01*
X10331597Y4000500D02*
Y4152900D01*
Y4000500D02*
X10407797D01*
X9321800Y3302000D02*
X11887200D01*
X9321800D02*
Y5422900D01*
X11887200Y3302000D02*
Y5422900D01*
X6210300Y3011800D02*
Y3030698D01*
X6286500D01*
X6210300Y2802098D02*
Y2871800D01*
Y2802098D02*
X6286500D01*
X6591300D02*
X6667500D01*
Y3030698D01*
X6591300D02*
X6667500D01*
X6845300Y4237960D02*
Y4288760D01*
X6820880Y4262603D02*
X6871680D01*
X7429500Y4609244D02*
X7493000D01*
X7429500Y4461213D02*
Y4609244D01*
Y4461213D02*
X7493000D01*
X7670800Y4458551D02*
X7734300D01*
Y4606587D01*
X7670800D02*
X7734300D01*
X6769100Y3873500D02*
X8458200D01*
X3263900Y2571598D02*
Y2647798D01*
Y2571598D02*
X3416300D01*
Y2647798D01*
Y2774798D02*
Y2850998D01*
X3263900D02*
X3416300D01*
X3263900Y2774798D02*
Y2850998D01*
X4508501Y2705100D02*
X4635501D01*
Y2959100D01*
X4508501D02*
X4635501D01*
X4102101D02*
X4229101D01*
X4102101Y2705100D02*
Y2959100D01*
Y2705100D02*
X4229101D01*
X1054100Y3276600D02*
X4902200D01*
X1054100D02*
X1054100Y50800D01*
X4902200D02*
Y3276600D01*
X2625100Y1032211D02*
X2688600D01*
X2625100D02*
Y1180247D01*
X2688600D01*
X2866400Y1177589D02*
X2929900D01*
Y1029553D02*
Y1177589D01*
X2866400Y1029553D02*
X2929900D01*
X2866400Y974389D02*
X2929900D01*
Y826353D02*
Y974389D01*
X2866400Y826353D02*
X2929900D01*
X2625100Y829011D02*
X2688600D01*
X2625100D02*
Y977047D01*
X2688600D01*
X9131229Y4944999D02*
X9207429D01*
Y4716399D02*
Y4944999D01*
X9131229Y4716399D02*
X9207429D01*
X8750229D02*
X8826429D01*
X8750229D02*
Y4786102D01*
Y4944999D02*
X8826429D01*
X8750229Y4926101D02*
Y4944999D01*
X901700Y2819400D02*
Y2895600D01*
X673100Y2819400D02*
X901700D01*
X673100D02*
Y2895600D01*
Y3200400D02*
Y3276600D01*
X742798D01*
X901700Y3200400D02*
Y3276600D01*
X882802D02*
X901700D01*
X2413000Y1085698D02*
Y1161898D01*
X2565400D01*
Y1085698D02*
Y1161898D01*
Y882498D02*
Y958698D01*
X2413000Y882498D02*
X2565400D01*
X2413000D02*
Y958698D01*
X1990100Y864250D02*
X2053600D01*
Y1012286D01*
X1990100D02*
X2053600D01*
X1748800Y1014943D02*
X1812300D01*
X1748800Y866907D02*
Y1014943D01*
Y866907D02*
X1812300D01*
X9969500Y2660802D02*
Y2737002D01*
X10121900D01*
Y2660802D02*
Y2737002D01*
Y2457602D02*
Y2533802D01*
X9969500Y2457602D02*
X10121900D01*
X9969500D02*
Y2533802D01*
X10916447Y2108199D02*
Y2171699D01*
Y2108199D02*
X11064483D01*
Y2171699D01*
X11067140Y2349499D02*
Y2412999D01*
X10919103D02*
X11067140D01*
X10919103Y2349499D02*
Y2412999D01*
X11887200Y1511300D02*
Y3187700D01*
X9321800D02*
X11887200D01*
X9321800Y1511300D02*
X11887200D01*
X9321800D02*
Y3187700D01*
X9982150Y4826000D02*
Y4953000D01*
X9728150D02*
X9982150D01*
X9728150Y4826000D02*
Y4953000D01*
Y4419600D02*
Y4546600D01*
Y4419600D02*
X9982150D01*
Y4546600D01*
X9639300Y4826002D02*
Y4953002D01*
X9385300D02*
X9639300D01*
X9385300Y4826002D02*
Y4953002D01*
Y4419602D02*
Y4546602D01*
Y4419602D02*
X9639300D01*
Y4546602D01*
X11435440Y3801100D02*
Y3864600D01*
X11287403D02*
X11435440D01*
X11287403Y3801100D02*
Y3864600D01*
X11284747Y3559800D02*
Y3623300D01*
Y3559800D02*
X11432783D01*
Y3623300D01*
X9931400Y4001353D02*
X9994900D01*
Y4149390D01*
X9931400D02*
X9994900D01*
X9690100Y4152047D02*
X9753600D01*
X9690100Y4004010D02*
Y4152047D01*
Y4004010D02*
X9753600D01*
X9321800Y5422900D02*
X11887200D01*
X6769100Y5418303D02*
X8458200D01*
Y3873500D02*
Y5418303D01*
X9133698Y5219700D02*
X9209898D01*
Y4991100D02*
Y5219700D01*
X9133698Y4991100D02*
X9209898D01*
X8752698D02*
X8828898D01*
X8752698D02*
Y5060798D01*
Y5219700D02*
X8828898D01*
X8752698Y5200802D02*
Y5219700D01*
X9144000Y2984500D02*
X9220200D01*
Y2755900D02*
Y2984500D01*
X9144000Y2755900D02*
X9220200D01*
X8763000D02*
X8839200D01*
X8763000D02*
Y2825598D01*
Y2984500D02*
X8839200D01*
X8763000Y2965602D02*
Y2984500D01*
X9144000Y2709799D02*
X9220200D01*
Y2481199D02*
Y2709799D01*
X9144000Y2481199D02*
X9220200D01*
X8763000D02*
X8839200D01*
X8763000D02*
Y2550902D01*
Y2709799D02*
X8839200D01*
X8763000Y2690901D02*
Y2709799D01*
X4595048Y1447800D02*
Y1524000D01*
X4823648D01*
Y1447800D02*
Y1524000D01*
Y1066800D02*
Y1143000D01*
X4753950Y1066800D02*
X4823648D01*
X4595048D02*
Y1143000D01*
Y1066800D02*
X4613951D01*
X2791648Y2349500D02*
X2867848D01*
X2791648D02*
Y2501900D01*
X2867848D01*
X2994848D02*
X3071048D01*
Y2349500D02*
Y2501900D01*
X2994848Y2349500D02*
X3071048D01*
X1054100Y50800D02*
X4902200D01*
X6769100Y3873500D02*
Y5418303D01*
X6762501Y3272003D02*
X8451601D01*
Y2065503D02*
Y3272003D01*
X6762501Y2065503D02*
X8451601D01*
X6762501D02*
Y3272003D01*
X3810000Y5080000D02*
X3886200D01*
X3810000D02*
Y5308600D01*
X3886200D01*
X4191000D02*
X4267200D01*
Y5238902D02*
Y5308600D01*
X4191000Y5080000D02*
X4267200D01*
Y5098898D01*
X4379148Y4013200D02*
Y5435600D01*
Y4013200D02*
X6068248D01*
Y5435600D01*
X4379148D02*
X6068248D01*
X7943601Y2147250D02*
X8007101D01*
Y2339355D01*
X7943601D02*
X8007101D01*
X7651501Y2338969D02*
X7715001D01*
X7651501Y2146864D02*
Y2338969D01*
Y2146864D02*
X7715001D01*
X7473701Y2147250D02*
X7537201D01*
Y2339355D01*
X7473701D02*
X7537201D01*
X7181601Y2338969D02*
X7245101D01*
X7181601Y2146864D02*
Y2338969D01*
Y2146864D02*
X7245101D01*
X7937500Y2655250D02*
X8001000D01*
Y2847355D01*
X7937500D02*
X8001000D01*
X7645400Y2846969D02*
X7708900D01*
X7645400Y2654864D02*
Y2846969D01*
Y2654864D02*
X7708900D01*
X7480300Y2655250D02*
X7543800D01*
Y2847355D01*
X7480300D02*
X7543800D01*
X7188200Y2846969D02*
X7251700D01*
X7188200Y2654864D02*
Y2846969D01*
Y2654864D02*
X7251700D01*
X7479802Y2401250D02*
X7543302D01*
Y2593355D01*
X7479802D02*
X7543302D01*
X7187702Y2592969D02*
X7251202D01*
X7187702Y2400864D02*
Y2592969D01*
Y2400864D02*
X7251202D01*
X7943601Y2401250D02*
X8007101D01*
Y2593355D01*
X7943601D02*
X8007101D01*
X7651501Y2592969D02*
X7715001D01*
X7651501Y2400864D02*
Y2592969D01*
Y2400864D02*
X7715001D01*
X4735932Y4061450D02*
X4812132D01*
X4735932D02*
Y4213850D01*
X4812132D01*
X4939132D02*
X5015332D01*
Y4061450D02*
Y4213850D01*
X4939132Y4061450D02*
X5015332D01*
X4684801Y4343400D02*
Y4406900D01*
Y4343400D02*
X4832838D01*
Y4406900D01*
X4835495Y4584700D02*
Y4648200D01*
X4687463D02*
X4835495D01*
X4687463Y4584700D02*
Y4648200D01*
X6553200Y5181600D02*
X6629400D01*
Y4953000D02*
Y5181600D01*
X6553200Y4953000D02*
X6629400D01*
X6172200D02*
X6248400D01*
X6172200D02*
Y5022698D01*
Y5181600D02*
X6248400D01*
X6172200Y5162702D02*
Y5181600D01*
X2187595Y1346200D02*
Y1409700D01*
Y1346200D02*
X2379701D01*
Y1409700D01*
X2379315Y1638300D02*
Y1701800D01*
X2187209D02*
X2379315D01*
X2187209Y1638300D02*
Y1701800D01*
X2160448Y1905853D02*
X2223948D01*
Y2053890D01*
X2160448D02*
X2223948D01*
X1919148Y2056547D02*
X1982648D01*
X1919148Y1908510D02*
Y2056547D01*
Y1908510D02*
X1982648D01*
X2125106Y221452D02*
X2188606D01*
X2125106Y73416D02*
Y221452D01*
Y73416D02*
X2188606D01*
X2366406Y70759D02*
X2429906D01*
Y218796D01*
X2366406D02*
X2429906D01*
X2346295Y1117600D02*
Y1181100D01*
X2198263D02*
X2346295D01*
X2198263Y1117600D02*
Y1181100D01*
X2195601Y876300D02*
Y939800D01*
Y876300D02*
X2343638D01*
Y939800D01*
X1318448Y1002447D02*
X1381948D01*
X1318448Y854410D02*
Y1002447D01*
Y854410D02*
X1381948D01*
X1559748Y851753D02*
X1623248D01*
Y999790D01*
X1559748D02*
X1623248D01*
X1648648Y1308100D02*
Y1358900D01*
X1623248Y1333500D02*
X1674048D01*
X1648648Y1625600D02*
Y1676400D01*
X1623248Y1651000D02*
X1674048D01*
X1381948Y3009900D02*
Y3136900D01*
X1127948D02*
X1381948D01*
X1127948Y3009900D02*
Y3136900D01*
Y2603500D02*
Y2730500D01*
Y2603500D02*
X1381948D01*
Y2730500D01*
X1585148Y3054502D02*
Y3130702D01*
X1737548D01*
Y3054502D02*
Y3130702D01*
Y2851302D02*
Y2927502D01*
X1585148Y2851302D02*
X1737548D01*
X1585148D02*
Y2927502D01*
X2601148Y2744180D02*
Y2794980D01*
X2574991Y2768600D02*
X2625791D01*
X5709138Y4254500D02*
Y4318000D01*
X5561101Y4254500D02*
X5709138D01*
X5561101D02*
Y4318000D01*
X5563763Y4495800D02*
Y4559300D01*
X5711795D01*
Y4495800D02*
Y4559300D01*
X2779050Y1854901D02*
X2839049D01*
Y1922399D01*
Y2197400D02*
Y2257400D01*
X2771551D02*
X2839049D01*
X2419050D02*
X2479050D01*
X2419050Y2189902D02*
Y2257400D01*
Y1852402D02*
Y1912402D01*
Y1852402D02*
X2486548D01*
X6172200Y4603900D02*
Y4622803D01*
X6248400D01*
X6172200Y4394203D02*
Y4463900D01*
Y4394203D02*
X6248400D01*
X6553200D02*
X6629400D01*
Y4622803D01*
X6553200D02*
X6629400D01*
D65*
X10264278Y5047432D02*
G03*
X10254278Y5047432I-5000J0D01*
G01*
D02*
G03*
X10264278Y5047432I5000J0D01*
G01*
X7251700Y4432300D02*
G03*
X7251700Y4422300I0J-5000D01*
G01*
D02*
G03*
X7251700Y4432300I0J5000D01*
G01*
X7373067Y4983990D02*
G03*
X7363067Y4983990I-5000J0D01*
G01*
D02*
G03*
X7373067Y4983990I5000J0D01*
G01*
X1731850Y698500D02*
G03*
X1721850Y698500I-5000J0D01*
G01*
D02*
G03*
X1731850Y698500I5000J0D01*
G01*
X5213350Y4917500D02*
G03*
X5203350Y4917500I-5000J0D01*
G01*
D02*
G03*
X5213350Y4917500I5000J0D01*
G01*
X5379517Y5242589D02*
G03*
X5389517Y5242589I5000J0D01*
G01*
D02*
G03*
X5379517Y5242589I-5000J0D01*
G01*
X2841150Y2002400D02*
G03*
X2851150Y2002400I5000J0D01*
G01*
D02*
G03*
X2841150Y2002400I-5000J0D01*
G01*
X4144950Y2250603D02*
X4419951D01*
Y1000603D02*
Y2250603D01*
X4144950Y1000603D02*
X4419951D01*
X3169950Y2250603D02*
X3444951D01*
X3169950Y1000603D02*
X3444951D01*
X3169950D02*
Y2250603D01*
X10377500Y2198700D02*
Y2396200D01*
Y2198700D02*
Y2396200D01*
X10447498Y2198700D02*
X10457500D01*
X10447498D02*
X10457500D01*
X10422499Y2398700D02*
X10427498D01*
X10422499D02*
X10427498D01*
X10497500Y2198700D02*
X10502499D01*
X10497500D02*
X10502499D01*
X10557500D02*
X10577500D01*
X10557500D02*
X10577500D01*
Y2398700D01*
Y2198700D02*
Y2398700D01*
X10527497D02*
X10532501D01*
X10527497D02*
X10532501D01*
X10377500Y2198700D02*
X10387498D01*
X10377500D02*
X10387498D01*
D66*
X11648300Y5181600D02*
G03*
X11648300Y5181600I-5000J0D01*
G01*
Y4800600D02*
G03*
X11648300Y4800600I-5000J0D01*
G01*
Y4419600D02*
G03*
X11648300Y4419600I-5000J0D01*
G01*
X4627800Y2667000D02*
G03*
X4627800Y2667000I-5000J0D01*
G01*
X10417500Y2128700D02*
G03*
X10417500Y2138700I0J5000D01*
G01*
D02*
G03*
X10417500Y2128700I0J-5000D01*
G01*
D02*
G03*
X10417500Y2138700I0J5000D01*
G01*
X11818804Y2320747D02*
G03*
X11818804Y2320747I-5000J0D01*
G01*
X11820070Y1995348D02*
G03*
X11820070Y1995348I-5000J0D01*
G01*
X11825764Y2646147D02*
G03*
X11825764Y2646147I-5000J0D01*
G01*
X9745900Y2854901D02*
G03*
X9745900Y2854901I-5000J0D01*
G01*
X10025250Y4940300D02*
G03*
X10025250Y4940300I-5000J0D01*
G01*
X9682400D02*
G03*
X9682400Y4940300I-5000J0D01*
G01*
X1425050Y3124200D02*
G03*
X1425050Y3124200I-5000J0D01*
G01*
X5231550Y4259600D02*
X5351550D01*
X5196550Y4274600D02*
Y4564600D01*
X5136550D02*
X5196550D01*
X5136550Y4274600D02*
Y4564600D01*
Y4274600D02*
X5196550D01*
X7763300Y2916800D02*
X7768300D01*
X7763300D02*
Y3119200D01*
X7768300D01*
Y2916800D02*
Y3119200D01*
X7803300Y2908000D02*
X7918300D01*
X10296400Y2466200D02*
X10596400D01*
X10296400Y2766200D02*
X10596400D01*
X10314278Y4847432D02*
Y5247432D01*
Y4847432D02*
X10714278D01*
Y5247432D01*
X10314278D02*
X10714278D01*
X1290800Y2110600D02*
X1350800D01*
X10742500Y2260600D02*
X10847500D01*
X6438900Y2846400D02*
Y2986400D01*
X6210300Y2871800D02*
Y3011800D01*
X7192899Y4327799D02*
Y4857801D01*
X6827901Y4327799D02*
Y4857801D01*
X7581900Y4503900D02*
Y4563900D01*
X7422469Y4668987D02*
X7727467D01*
X7422469Y4973991D02*
X7727467D01*
X1060450Y4362450D02*
X3702050D01*
Y3346450D02*
Y4362450D01*
X1060450Y3346450D02*
X3702050D01*
X1060450D02*
Y4362450D01*
X2777500Y1074900D02*
Y1134900D01*
Y871700D02*
Y931700D01*
X8750229Y4786102D02*
Y4926101D01*
X8978829Y4760702D02*
Y4900701D01*
X742798Y3276600D02*
X882802D01*
X717398Y3048000D02*
X857402D01*
X1793850Y818500D02*
X2163851D01*
X1793850Y578500D02*
X2163851D01*
X1901200Y909599D02*
Y969599D01*
X10961796Y2260599D02*
X11021796D01*
X11330091Y3712200D02*
X11390091D01*
X9842500Y4046698D02*
Y4106697D01*
X8752698Y5060798D02*
Y5200802D01*
X8981298Y5035398D02*
Y5175402D01*
X8763000Y2825598D02*
Y2965602D01*
X8991600Y2800198D02*
Y2940202D01*
X8763000Y2550902D02*
Y2690901D01*
X8991600Y2525502D02*
Y2665501D01*
X4613951Y1066800D02*
X4753950D01*
X4639351Y1295400D02*
X4779350D01*
X4267200Y5098898D02*
Y5238902D01*
X4038600Y5124298D02*
Y5264302D01*
X7829301Y2190801D02*
Y2295799D01*
X7359401Y2190801D02*
Y2295799D01*
X7823200Y2698801D02*
Y2803799D01*
X7366000Y2698801D02*
Y2803799D01*
X7365502Y2444801D02*
Y2549799D01*
X7829301Y2444801D02*
Y2549799D01*
X4848951Y4927498D02*
X5153950D01*
X4848951Y5232502D02*
X5153950D01*
X5438917Y5232588D02*
X5743915D01*
X5438917Y4927590D02*
X5743915D01*
X4730151Y4495800D02*
X4790150D01*
X6172200Y5022698D02*
Y5162702D01*
X6400800Y4997298D02*
Y5137302D01*
X2231151Y1524000D02*
X2336150D01*
X2071548Y1951203D02*
Y2011202D01*
X2277506Y116108D02*
Y176108D01*
X2240951Y1028700D02*
X2300950D01*
X1470848Y897103D02*
Y957102D01*
X1308552Y1101501D02*
X1578549D01*
X1308552D02*
Y1311499D01*
X1578549D01*
X1308552Y1419001D02*
X1578549D01*
X1308552D02*
Y1628999D01*
X1578549D01*
X1035050Y4451350D02*
Y5467350D01*
Y4451350D02*
X3676650D01*
Y5467350D01*
X1035050D02*
X3676650D01*
X2005950Y2751201D02*
X2535951D01*
X2005950Y3116199D02*
X2535951D01*
X5606451Y4406900D02*
X5666450D01*
X6400800Y4438500D02*
Y4578500D01*
X6172200Y4463900D02*
Y4603900D01*
D67*
X10715600Y4382400D02*
G03*
X10715600Y4382400I-12500J0D01*
G01*
D68*
X597901Y4646198D02*
D03*
D69*
Y3541298D02*
D03*
D70*
X12447001Y2360198D02*
D03*
D71*
Y4595398D02*
D03*
D72*
X679501Y4733402D02*
Y5473400D01*
X104501D02*
X679501D01*
X104501Y4733402D02*
X679501D01*
X104501D02*
Y5473400D01*
Y3628502D02*
X679501D01*
X104501D02*
Y4368500D01*
X679501D01*
Y3628502D02*
Y4368500D01*
X12528601Y2447402D02*
Y3187400D01*
X11953601D02*
X12528601D01*
X11953601Y2447402D02*
Y3187400D01*
Y2447402D02*
X12528601D01*
Y4682597D02*
Y5422600D01*
X11953601D02*
X12528601D01*
X11953601Y4682597D02*
Y5422600D01*
Y4682597D02*
X12528601D01*
D73*
X787400Y3898900D02*
Y3797333D01*
X825500Y5257817D02*
X723933D01*
X774717Y5207033D02*
Y5308600D01*
X787400Y5016500D02*
Y4914933D01*
X825500Y4140217D02*
X723933D01*
X774717Y4089433D02*
Y4191000D01*
X12611100Y2603500D02*
Y2705067D01*
X12611100Y4953000D02*
Y4851433D01*
X12560300Y2959083D02*
X12661867D01*
X12611083Y3009867D02*
Y2908300D01*
X12661900Y5219717D02*
X12560333D01*
X12611117Y5168933D02*
Y5270500D01*
X11976100Y4406859D02*
X12001492Y4432251D01*
X12052275D01*
X12077667Y4406859D01*
Y4381467D01*
X12052275Y4356075D01*
X12026883D01*
X12052275D01*
X12077667Y4330683D01*
Y4305292D01*
X12052275Y4279900D01*
X12001492D01*
X11976100Y4305292D01*
X12128451Y4432251D02*
Y4330683D01*
X12179234Y4279900D01*
X12230018Y4330683D01*
Y4432251D01*
X12280801Y4406859D02*
X12306193Y4432251D01*
X12356977D01*
X12382369Y4406859D01*
Y4381467D01*
X12356977Y4356075D01*
X12331585D01*
X12356977D01*
X12382369Y4330683D01*
Y4305292D01*
X12356977Y4279900D01*
X12306193D01*
X12280801Y4305292D01*
X12077667Y2197051D02*
X11976100D01*
Y2120875D01*
X12026883Y2146267D01*
X12052275D01*
X12077667Y2120875D01*
Y2070092D01*
X12052275Y2044700D01*
X12001492D01*
X11976100Y2070092D01*
X12128451Y2197051D02*
Y2095483D01*
X12179234Y2044700D01*
X12230018Y2095483D01*
Y2197051D01*
X9677400Y419056D02*
X9684656Y411801D01*
X9691911Y419056D01*
X9684656Y426312D01*
X9677400Y419056D01*
X9684656Y368267D02*
Y266689D01*
X9798568Y346500D02*
X9791313Y361012D01*
X9769546Y368267D01*
X9747779D01*
X9726012Y361012D01*
X9718757Y346500D01*
X9726012Y331989D01*
X9740524Y324734D01*
X9776801Y317478D01*
X9791313Y310223D01*
X9798568Y295711D01*
Y288456D01*
X9791313Y273945D01*
X9769546Y266689D01*
X9747779D01*
X9726012Y273945D01*
X9718757Y288456D01*
X9830493Y368267D02*
Y266689D01*
Y339245D02*
X9852260Y361012D01*
X9866771Y368267D01*
X9888537D01*
X9903049Y361012D01*
X9910304Y339245D01*
Y266689D01*
Y339245D02*
X9932071Y361012D01*
X9946582Y368267D01*
X9968349D01*
X9982860Y361012D01*
X9990116Y339245D01*
Y266689D01*
X10125070Y368267D02*
Y266689D01*
Y346500D02*
X10110559Y361012D01*
X10096047Y368267D01*
X10074281D01*
X10059770Y361012D01*
X10045258Y346500D01*
X10038003Y324734D01*
Y310223D01*
X10045258Y288456D01*
X10059770Y273945D01*
X10074281Y266689D01*
X10096047D01*
X10110559Y273945D01*
X10125070Y288456D01*
X10165701Y324734D02*
X10252768D01*
Y339245D01*
X10245512Y353756D01*
X10238257Y361012D01*
X10223746Y368267D01*
X10201979D01*
X10187468Y361012D01*
X10172957Y346500D01*
X10165701Y324734D01*
Y310223D01*
X10172957Y288456D01*
X10187468Y273945D01*
X10201979Y266689D01*
X10223746D01*
X10238257Y273945D01*
X10252768Y288456D01*
X10285418Y419056D02*
Y266689D01*
X10324598Y281200D02*
X10317343Y273945D01*
X10324598Y266689D01*
X10331854Y273945D01*
X10324598Y281200D01*
X10365230Y368267D02*
Y215900D01*
Y346500D02*
X10379741Y361012D01*
X10394252Y368267D01*
X10416019D01*
X10430530Y361012D01*
X10445041Y346500D01*
X10452297Y324734D01*
Y310223D01*
X10445041Y288456D01*
X10430530Y273945D01*
X10416019Y266689D01*
X10394252D01*
X10379741Y273945D01*
X10365230Y288456D01*
X10484947Y419056D02*
Y266689D01*
Y346500D02*
X10499458Y361012D01*
X10513969Y368267D01*
X10535736D01*
X10550247Y361012D01*
X10564758Y346500D01*
X10572014Y324734D01*
Y310223D01*
X10564758Y288456D01*
X10550247Y273945D01*
X10535736Y266689D01*
X10513969D01*
X10499458Y273945D01*
X10484947Y288456D01*
X10626431Y419056D02*
Y295711D01*
X10633687Y273945D01*
X10648198Y266689D01*
X10662709D01*
X10604664Y368267D02*
X10655453D01*
X9771723Y660356D02*
X9677400D01*
Y507989D01*
X9771723D01*
X9677400Y587800D02*
X9735445D01*
X9797117Y609567D02*
Y507989D01*
Y580545D02*
X9818884Y602312D01*
X9833395Y609567D01*
X9855162D01*
X9869673Y602312D01*
X9876929Y580545D01*
Y507989D01*
X9916835Y566034D02*
X10003902D01*
Y580545D01*
X9996646Y595056D01*
X9989390Y602312D01*
X9974879Y609567D01*
X9953113D01*
X9938601Y602312D01*
X9924090Y587800D01*
X9916835Y566034D01*
Y551523D01*
X9924090Y529756D01*
X9938601Y515245D01*
X9953113Y507989D01*
X9974879D01*
X9989390Y515245D01*
X10003902Y529756D01*
X10036552Y609567D02*
Y507989D01*
Y566034D02*
X10043807Y587800D01*
X10058319Y602312D01*
X10072830Y609567D01*
X10094597D01*
X10195450D02*
Y493478D01*
X10188194Y471711D01*
X10180938Y464456D01*
X10166427Y457200D01*
X10144660D01*
X10130149Y464456D01*
X10195450Y587800D02*
X10180938Y602312D01*
X10166427Y609567D01*
X10144660D01*
X10130149Y602312D01*
X10115638Y587800D01*
X10108382Y566034D01*
Y551523D01*
X10115638Y529756D01*
X10130149Y515245D01*
X10144660Y507989D01*
X10166427D01*
X10180938Y515245D01*
X10195450Y529756D01*
X10243336Y609567D02*
X10286870Y507989D01*
X10330403Y609567D02*
X10286870Y507989D01*
X10272359Y478967D01*
X10257847Y464456D01*
X10243336Y457200D01*
X10236081D01*
X10577093Y638590D02*
X10562582Y653101D01*
X10540816Y660356D01*
X10511793D01*
X10490027Y653101D01*
X10475515Y638590D01*
Y624079D01*
X10482771Y609567D01*
X10490027Y602312D01*
X10504538Y595056D01*
X10548071Y580545D01*
X10562582Y573289D01*
X10569838Y566034D01*
X10577093Y551523D01*
Y529756D01*
X10562582Y515245D01*
X10540816Y507989D01*
X10511793D01*
X10490027Y515245D01*
X10475515Y529756D01*
X10647473Y609567D02*
X10632961Y602312D01*
X10618450Y587800D01*
X10611195Y566034D01*
Y551523D01*
X10618450Y529756D01*
X10632961Y515245D01*
X10647473Y507989D01*
X10669239D01*
X10683751Y515245D01*
X10698262Y529756D01*
X10705517Y551523D01*
Y566034D01*
X10698262Y587800D01*
X10683751Y602312D01*
X10669239Y609567D01*
X10647473D01*
X10738893Y660356D02*
Y507989D01*
X10770817Y609567D02*
Y537011D01*
X10778073Y515245D01*
X10792584Y507989D01*
X10814351D01*
X10828862Y515245D01*
X10850629Y537011D01*
Y609567D02*
Y507989D01*
X10912302Y660356D02*
Y537011D01*
X10919557Y515245D01*
X10934068Y507989D01*
X10948579D01*
X10890535Y609567D02*
X10941324D01*
X10984857Y660356D02*
X10992113Y653101D01*
X10999368Y660356D01*
X10992113Y667612D01*
X10984857Y660356D01*
X10992113Y609567D02*
Y507989D01*
X11062492Y609567D02*
X11047981Y602312D01*
X11033470Y587800D01*
X11026214Y566034D01*
Y551523D01*
X11033470Y529756D01*
X11047981Y515245D01*
X11062492Y507989D01*
X11084259D01*
X11098770Y515245D01*
X11113281Y529756D01*
X11120537Y551523D01*
Y566034D01*
X11113281Y587800D01*
X11098770Y602312D01*
X11084259Y609567D01*
X11062492D01*
X11153912D02*
Y507989D01*
Y580545D02*
X11175679Y602312D01*
X11190190Y609567D01*
X11211957D01*
X11226468Y602312D01*
X11233724Y580545D01*
Y507989D01*
X11494925Y638590D02*
X11480414Y653101D01*
X11458647Y660356D01*
X11429625D01*
X11407858Y653101D01*
X11393347Y638590D01*
Y624079D01*
X11400603Y609567D01*
X11407858Y602312D01*
X11422369Y595056D01*
X11465903Y580545D01*
X11480414Y573289D01*
X11487670Y566034D01*
X11494925Y551523D01*
Y529756D01*
X11480414Y515245D01*
X11458647Y507989D01*
X11429625D01*
X11407858Y515245D01*
X11393347Y529756D01*
X11572560Y660356D02*
X11550793Y653101D01*
X11536282Y631334D01*
X11529026Y595056D01*
Y573289D01*
X11536282Y537011D01*
X11550793Y515245D01*
X11572560Y507989D01*
X11587071D01*
X11608838Y515245D01*
X11623349Y537011D01*
X11630605Y573289D01*
Y595056D01*
X11623349Y631334D01*
X11608838Y653101D01*
X11587071Y660356D01*
X11572560D01*
X11664706Y631334D02*
X11679217Y638590D01*
X11700984Y660356D01*
Y507989D01*
X9766278Y1070401D02*
X9751767Y1084912D01*
X9730000Y1092167D01*
X9700978D01*
X9679211Y1084912D01*
X9664700Y1070401D01*
Y1055889D01*
X9671956Y1041378D01*
X9679211Y1034123D01*
X9693722Y1026867D01*
X9737256Y1012356D01*
X9751767Y1005100D01*
X9759023Y997845D01*
X9766278Y983334D01*
Y961567D01*
X9751767Y947056D01*
X9730000Y939800D01*
X9700978D01*
X9679211Y947056D01*
X9664700Y961567D01*
X9800379Y1092167D02*
Y939800D01*
Y1092167D02*
X9858424Y939800D01*
X9916469Y1092167D02*
X9858424Y939800D01*
X9916469Y1092167D02*
Y939800D01*
X10054325Y1092167D02*
X9960002D01*
Y939800D01*
X10054325D01*
X9960002Y1019611D02*
X10018047D01*
X9677400Y876267D02*
Y723900D01*
Y876267D02*
X9742700D01*
X9764467Y869012D01*
X9771723Y861756D01*
X9778978Y847245D01*
Y832734D01*
X9771723Y818223D01*
X9764467Y810967D01*
X9742700Y803711D01*
X9677400D01*
X9728189D02*
X9778978Y723900D01*
X9813079Y781945D02*
X9900147D01*
Y796456D01*
X9892891Y810967D01*
X9885635Y818223D01*
X9871124Y825478D01*
X9849357D01*
X9834846Y818223D01*
X9820335Y803711D01*
X9813079Y781945D01*
Y767434D01*
X9820335Y745667D01*
X9834846Y731156D01*
X9849357Y723900D01*
X9871124D01*
X9885635Y731156D01*
X9900147Y745667D01*
X9932797Y825478D02*
X9976330Y723900D01*
X10019864Y825478D02*
X9976330Y723900D01*
X10164250Y847245D02*
X10178761Y854501D01*
X10200528Y876267D01*
Y723900D01*
X10283242Y738411D02*
X10275986Y731156D01*
X10283242Y723900D01*
X10290498Y731156D01*
X10283242Y738411D01*
X10367407Y876267D02*
X10345640Y869012D01*
X10331129Y847245D01*
X10323873Y810967D01*
Y789200D01*
X10331129Y752922D01*
X10345640Y731156D01*
X10367407Y723900D01*
X10381918D01*
X10403685Y731156D01*
X10418196Y752922D01*
X10425451Y789200D01*
Y810967D01*
X10418196Y847245D01*
X10403685Y869012D01*
X10381918Y876267D01*
X10367407D01*
X114341Y3390925D02*
Y3543275D01*
X190517D01*
X215908Y3517883D01*
Y3467100D01*
X190517Y3441708D01*
X114341D01*
X266692Y3517883D02*
X292084Y3543275D01*
X342867D01*
X368259Y3517883D01*
Y3492492D01*
X342867Y3467100D01*
X317475D01*
X342867D01*
X368259Y3441708D01*
Y3416317D01*
X342867Y3390925D01*
X292084D01*
X266692Y3416317D01*
X2628962Y1219225D02*
Y1371575D01*
X2705137D01*
X2730529Y1346183D01*
Y1295400D01*
X2705137Y1270008D01*
X2628962D01*
X2679745D02*
X2730529Y1219225D01*
X2781312D02*
X2832096D01*
X2806704D01*
Y1371575D01*
X2781312Y1346183D01*
X2908271D02*
X2933663Y1371575D01*
X2984447D01*
X3009839Y1346183D01*
Y1320792D01*
X2984447Y1295400D01*
X3009839Y1270008D01*
Y1244617D01*
X2984447Y1219225D01*
X2933663D01*
X2908271Y1244617D01*
Y1270008D01*
X2933663Y1295400D01*
X2908271Y1320792D01*
Y1346183D01*
X2933663Y1295400D02*
X2984447D01*
X2628962Y622325D02*
Y774675D01*
X2705137D01*
X2730529Y749283D01*
Y698500D01*
X2705137Y673108D01*
X2628962D01*
X2679745D02*
X2730529Y622325D01*
X2781312D02*
X2832096D01*
X2806704D01*
Y774675D01*
X2781312Y749283D01*
X3009839Y774675D02*
X2959055Y749283D01*
X2908271Y698500D01*
Y647717D01*
X2933663Y622325D01*
X2984447D01*
X3009839Y647717D01*
Y673108D01*
X2984447Y698500D01*
X2908271D01*
X8788394Y4487825D02*
Y4640175D01*
X8864569D01*
X8889961Y4614784D01*
Y4564000D01*
X8864569Y4538608D01*
X8788394D01*
X8839177D02*
X8889961Y4487825D01*
X9042312D02*
X8940745D01*
X9042312Y4589392D01*
Y4614784D01*
X9016920Y4640175D01*
X8966136D01*
X8940745Y4614784D01*
X9093095D02*
X9118487Y4640175D01*
X9169271D01*
X9194663Y4614784D01*
Y4589392D01*
X9169271Y4564000D01*
X9143879D01*
X9169271D01*
X9194663Y4538608D01*
Y4513217D01*
X9169271Y4487825D01*
X9118487D01*
X9093095Y4513217D01*
X7797866Y4470425D02*
Y4622775D01*
X7874041D01*
X7899433Y4597383D01*
Y4546600D01*
X7874041Y4521208D01*
X7797866D01*
X7848649D02*
X7899433Y4470425D01*
X7950217Y4597383D02*
X7975608Y4622775D01*
X8026392D01*
X8051784Y4597383D01*
Y4571992D01*
X8026392Y4546600D01*
X8001000D01*
X8026392D01*
X8051784Y4521208D01*
Y4495817D01*
X8026392Y4470425D01*
X7975608D01*
X7950217Y4495817D01*
X8204134Y4470425D02*
X8102567D01*
X8204134Y4571992D01*
Y4597383D01*
X8178743Y4622775D01*
X8127959D01*
X8102567Y4597383D01*
X4175991Y2451075D02*
Y2298725D01*
X4277558D01*
X4429909D02*
X4328342D01*
X4429909Y2400292D01*
Y2425683D01*
X4404517Y2451075D01*
X4353734D01*
X4328342Y2425683D01*
X863608Y3530575D02*
X762041D01*
Y3454400D01*
X812825D01*
X762041D01*
Y3378225D01*
X1015959D02*
X914392D01*
X1015959Y3479792D01*
Y3505183D01*
X990567Y3530575D01*
X939784D01*
X914392Y3505183D01*
X876300Y4622775D02*
X774733D01*
Y4546600D01*
X825517D01*
X774733D01*
Y4470425D01*
X927084D02*
X977867D01*
X952476D01*
Y4622775D01*
X927084Y4597383D01*
X4978400Y4831031D02*
Y4704072D01*
X5003792Y4678680D01*
X5054575D01*
X5079967Y4704072D01*
Y4831031D01*
X5232318D02*
X5130751D01*
Y4754855D01*
X5181534Y4780247D01*
X5206926D01*
X5232318Y4754855D01*
Y4704072D01*
X5206926Y4678680D01*
X5156143D01*
X5130751Y4704072D01*
X4607758Y4965717D02*
Y5067283D01*
X4582367Y5092675D01*
X4531583D01*
X4506191Y5067283D01*
Y4965717D01*
X4531583Y4940325D01*
X4582367D01*
X4556975Y4991108D02*
X4607758Y4940325D01*
X4582367D02*
X4607758Y4965717D01*
X4760109Y4940325D02*
X4658542D01*
X4760109Y5041892D01*
Y5067283D01*
X4734717Y5092675D01*
X4683934D01*
X4658542Y5067283D01*
X5941250Y4978417D02*
Y5079983D01*
X5915858Y5105375D01*
X5865075D01*
X5839683Y5079983D01*
Y4978417D01*
X5865075Y4953025D01*
X5915858D01*
X5890467Y5003808D02*
X5941250Y4953025D01*
X5915858D02*
X5941250Y4978417D01*
X5992034Y4953025D02*
X6042817D01*
X6017426D01*
Y5105375D01*
X5992034Y5079983D01*
X2587725Y1359662D02*
X2435375D01*
Y1435837D01*
X2460766Y1461229D01*
X2511550D01*
X2536942Y1435837D01*
Y1359662D01*
Y1410445D02*
X2587725Y1461229D01*
Y1512012D02*
Y1562796D01*
Y1537404D01*
X2435375D01*
X2460766Y1512012D01*
X2435375Y1740539D02*
Y1638971D01*
X2511550D01*
X2486158Y1689755D01*
Y1715147D01*
X2511550Y1740539D01*
X2562333D01*
X2587725Y1715147D01*
Y1664363D01*
X2562333Y1638971D01*
X1919212Y2108225D02*
Y2260575D01*
X1995387D01*
X2020779Y2235183D01*
Y2184400D01*
X1995387Y2159008D01*
X1919212D01*
X1969995D02*
X2020779Y2108225D01*
X2071563D02*
X2122346D01*
X2096954D01*
Y2260575D01*
X2071563Y2235183D01*
X2274697Y2108225D02*
Y2260575D01*
X2198521Y2184400D01*
X2300089D01*
X10922025Y2857434D02*
X11074375D01*
Y2781259D01*
X11048983Y2755867D01*
X10998200D01*
X10972808Y2781259D01*
Y2857434D01*
Y2806651D02*
X10922025Y2755867D01*
Y2603516D02*
Y2705083D01*
X11023592Y2603516D01*
X11048983D01*
X11074375Y2628908D01*
Y2679692D01*
X11048983Y2705083D01*
Y2552733D02*
X11074375Y2527341D01*
Y2476557D01*
X11048983Y2451166D01*
X10947417D01*
X10922025Y2476557D01*
Y2527341D01*
X10947417Y2552733D01*
X11048983D01*
X3784621Y2870183D02*
X3759229Y2895575D01*
X3708445D01*
X3683054Y2870183D01*
Y2768617D01*
X3708445Y2743225D01*
X3759229D01*
X3784621Y2768617D01*
X3835404Y2743225D02*
X3886188D01*
X3860796D01*
Y2895575D01*
X3835404Y2870183D01*
X3962363Y2743225D02*
X4013147D01*
X3987755D01*
Y2895575D01*
X3962363Y2870183D01*
X1242258Y2514583D02*
X1216867Y2539975D01*
X1166083D01*
X1140691Y2514583D01*
Y2413017D01*
X1166083Y2387625D01*
X1216867D01*
X1242258Y2413017D01*
X1293042Y2539975D02*
X1394609D01*
Y2514583D01*
X1293042Y2413017D01*
Y2387625D01*
X9842458Y4330683D02*
X9817066Y4356075D01*
X9766283D01*
X9740891Y4330683D01*
Y4229117D01*
X9766283Y4203725D01*
X9817066D01*
X9842458Y4229117D01*
X9994809Y4203725D02*
X9893242D01*
X9994809Y4305292D01*
Y4330683D01*
X9969417Y4356075D01*
X9918634D01*
X9893242Y4330683D01*
X9512300Y4347383D02*
X9486908Y4372775D01*
X9436125D01*
X9410733Y4347383D01*
Y4245817D01*
X9436125Y4220425D01*
X9486908D01*
X9512300Y4245817D01*
X9563084Y4220425D02*
X9613867D01*
X9588476D01*
Y4372775D01*
X9563084Y4347383D01*
X7264433Y4381475D02*
X7366000D01*
Y4356083D01*
X7264433Y4254517D01*
Y4229125D01*
X7366000D01*
X7416784D02*
X7467567D01*
X7442176D01*
Y4381475D01*
X7416784Y4356083D01*
X10337841Y2082775D02*
Y1955817D01*
X10363233Y1930425D01*
X10414017D01*
X10439408Y1955817D01*
Y2082775D01*
X10566367Y1930425D02*
Y2082775D01*
X10490192Y2006600D01*
X10591759D01*
X2430970Y2499311D02*
Y2372352D01*
X2456362Y2346960D01*
X2507145D01*
X2532537Y2372352D01*
Y2499311D01*
X2583321Y2473919D02*
X2608713Y2499311D01*
X2659496D01*
X2684888Y2473919D01*
Y2448527D01*
X2659496Y2423135D01*
X2634104D01*
X2659496D01*
X2684888Y2397743D01*
Y2372352D01*
X2659496Y2346960D01*
X2608713D01*
X2583321Y2372352D01*
X10337841Y4356075D02*
Y4229117D01*
X10363233Y4203725D01*
X10414017D01*
X10439408Y4229117D01*
Y4356075D01*
X10591759Y4203725D02*
X10490192D01*
X10591759Y4305292D01*
Y4330683D01*
X10566367Y4356075D01*
X10515584D01*
X10490192Y4330683D01*
X7969033Y3094175D02*
Y2967217D01*
X7994425Y2941825D01*
X8045208D01*
X8070600Y2967217D01*
Y3094175D01*
X8121384Y2941825D02*
X8172167D01*
X8146776D01*
Y3094175D01*
X8121384Y3068784D01*
X1803458Y393725D02*
Y546075D01*
X1879633D01*
X1905025Y520683D01*
Y469900D01*
X1879633Y444508D01*
X1803458D01*
X1854241D02*
X1905025Y393725D01*
X1955808Y546075D02*
X2057376D01*
X2006592D01*
Y393725D01*
X2108159D02*
X2158943D01*
X2133551D01*
Y546075D01*
X2108159Y520683D01*
X8801158Y2273325D02*
Y2425675D01*
X8877333D01*
X8902725Y2400283D01*
Y2349500D01*
X8877333Y2324108D01*
X8801158D01*
X8851941D02*
X8902725Y2273325D01*
X8953508Y2400283D02*
X8978900Y2425675D01*
X9029684D01*
X9055076Y2400283D01*
Y2374892D01*
X9029684Y2349500D01*
X9004292D01*
X9029684D01*
X9055076Y2324108D01*
Y2298717D01*
X9029684Y2273325D01*
X8978900D01*
X8953508Y2298717D01*
X9105859Y2273325D02*
X9156643D01*
X9131251D01*
Y2425675D01*
X9105859Y2400283D01*
X8750366Y3048025D02*
Y3200375D01*
X8826541D01*
X8851933Y3174983D01*
Y3124200D01*
X8826541Y3098808D01*
X8750366D01*
X8801149D02*
X8851933Y3048025D01*
X8902717Y3174983D02*
X8928108Y3200375D01*
X8978892D01*
X9004284Y3174983D01*
Y3149592D01*
X8978892Y3124200D01*
X8953500D01*
X8978892D01*
X9004284Y3098808D01*
Y3073417D01*
X8978892Y3048025D01*
X8928108D01*
X8902717Y3073417D01*
X9055067Y3174983D02*
X9080459Y3200375D01*
X9131243D01*
X9156634Y3174983D01*
Y3073417D01*
X9131243Y3048025D01*
X9080459D01*
X9055067Y3073417D01*
Y3174983D01*
X3835466Y4889525D02*
Y5041875D01*
X3911641D01*
X3937033Y5016483D01*
Y4965700D01*
X3911641Y4940308D01*
X3835466D01*
X3886249D02*
X3937033Y4889525D01*
X4089384D02*
X3987817D01*
X4089384Y4991092D01*
Y5016483D01*
X4063992Y5041875D01*
X4013208D01*
X3987817Y5016483D01*
X4140167Y4914917D02*
X4165559Y4889525D01*
X4216343D01*
X4241734Y4914917D01*
Y5016483D01*
X4216343Y5041875D01*
X4165559D01*
X4140167Y5016483D01*
Y4991092D01*
X4165559Y4965700D01*
X4241734D01*
X6182566Y5219725D02*
Y5372075D01*
X6258741D01*
X6284133Y5346683D01*
Y5295900D01*
X6258741Y5270508D01*
X6182566D01*
X6233349D02*
X6284133Y5219725D01*
X6436484D02*
X6334916D01*
X6436484Y5321292D01*
Y5346683D01*
X6411092Y5372075D01*
X6360308D01*
X6334916Y5346683D01*
X6487267D02*
X6512659Y5372075D01*
X6563443D01*
X6588834Y5346683D01*
Y5321292D01*
X6563443Y5295900D01*
X6588834Y5270508D01*
Y5245117D01*
X6563443Y5219725D01*
X6512659D01*
X6487267Y5245117D01*
Y5270508D01*
X6512659Y5295900D01*
X6487267Y5321292D01*
Y5346683D01*
X6512659Y5295900D02*
X6563443D01*
X609575Y2832166D02*
X457224D01*
Y2908341D01*
X482616Y2933733D01*
X533400D01*
X558792Y2908341D01*
Y2832166D01*
Y2882949D02*
X609575Y2933733D01*
Y3086083D02*
Y2984516D01*
X508008Y3086083D01*
X482616D01*
X457224Y3060692D01*
Y3009908D01*
X482616Y2984516D01*
X457224Y3136867D02*
Y3238434D01*
X482616D01*
X584183Y3136867D01*
X609575D01*
X6223066Y3098825D02*
Y3251175D01*
X6299241D01*
X6324633Y3225783D01*
Y3175000D01*
X6299241Y3149608D01*
X6223066D01*
X6273849D02*
X6324633Y3098825D01*
X6476984D02*
X6375417D01*
X6476984Y3200392D01*
Y3225783D01*
X6451592Y3251175D01*
X6400808D01*
X6375417Y3225783D01*
X6629334Y3251175D02*
X6578551Y3225783D01*
X6527767Y3175000D01*
Y3124217D01*
X6553159Y3098825D01*
X6603943D01*
X6629334Y3124217D01*
Y3149608D01*
X6603943Y3175000D01*
X6527767D01*
X8768080Y5306060D02*
Y5458411D01*
X8844255D01*
X8869647Y5433019D01*
Y5382235D01*
X8844255Y5356843D01*
X8768080D01*
X8818863D02*
X8869647Y5306060D01*
X9021998D02*
X8920431D01*
X9021998Y5407627D01*
Y5433019D01*
X8996606Y5458411D01*
X8945823D01*
X8920431Y5433019D01*
X9174349Y5458411D02*
X9072781D01*
Y5382235D01*
X9123565Y5407627D01*
X9148957D01*
X9174349Y5382235D01*
Y5331452D01*
X9148957Y5306060D01*
X9098173D01*
X9072781Y5331452D01*
X6187440Y4709160D02*
Y4861511D01*
X6263615D01*
X6289007Y4836119D01*
Y4785335D01*
X6263615Y4759943D01*
X6187440D01*
X6238223D02*
X6289007Y4709160D01*
X6441358D02*
X6339791D01*
X6441358Y4810727D01*
Y4836119D01*
X6415966Y4861511D01*
X6365183D01*
X6339791Y4836119D01*
X6568317Y4709160D02*
Y4861511D01*
X6492141Y4785335D01*
X6593709D01*
X5575300Y4645660D02*
Y4798011D01*
X5651475D01*
X5676867Y4772619D01*
Y4721835D01*
X5651475Y4696443D01*
X5575300D01*
X5626083D02*
X5676867Y4645660D01*
X5829218D02*
X5727651D01*
X5829218Y4747227D01*
Y4772619D01*
X5803826Y4798011D01*
X5753043D01*
X5727651Y4772619D01*
X5981569Y4645660D02*
X5880001D01*
X5981569Y4747227D01*
Y4772619D01*
X5956177Y4798011D01*
X5905393D01*
X5880001Y4772619D01*
X4645825Y4381558D02*
X4493475D01*
Y4457733D01*
X4518867Y4483125D01*
X4569650D01*
X4595042Y4457733D01*
Y4381558D01*
Y4432341D02*
X4645825Y4483125D01*
Y4635476D02*
Y4533908D01*
X4544258Y4635476D01*
X4518867D01*
X4493475Y4610084D01*
Y4559300D01*
X4518867Y4533908D01*
X4645825Y4686259D02*
Y4737043D01*
Y4711651D01*
X4493475D01*
X4518867Y4686259D01*
X10718825Y2857438D02*
X10871176D01*
Y2781263D01*
X10845784Y2755871D01*
X10795000D01*
X10769608Y2781263D01*
Y2857438D01*
Y2806655D02*
X10718825Y2755871D01*
Y2705087D02*
Y2654304D01*
Y2679695D01*
X10871176D01*
X10845784Y2705087D01*
X10744217Y2578128D02*
X10718825Y2552737D01*
Y2501953D01*
X10744217Y2476561D01*
X10845784D01*
X10871176Y2501953D01*
Y2552737D01*
X10845784Y2578128D01*
X10820392D01*
X10795000Y2552737D01*
Y2476561D01*
X2197125Y838138D02*
X2349476D01*
Y761963D01*
X2324084Y736571D01*
X2273300D01*
X2247908Y761963D01*
Y838138D01*
Y787355D02*
X2197125Y736571D01*
Y685787D02*
Y635004D01*
Y660395D01*
X2349476D01*
X2324084Y685787D01*
X2349476Y558828D02*
Y457261D01*
X2324084D01*
X2222517Y558828D01*
X2197125D01*
X1676462Y76225D02*
Y228575D01*
X1752637D01*
X1778029Y203183D01*
Y152400D01*
X1752637Y127008D01*
X1676462D01*
X1727245D02*
X1778029Y76225D01*
X1828812D02*
X1879596D01*
X1854204D01*
Y228575D01*
X1828812Y203183D01*
X1955771D02*
X1981163Y228575D01*
X2031947D01*
X2057339Y203183D01*
Y177792D01*
X2031947Y152400D01*
X2006555D01*
X2031947D01*
X2057339Y127008D01*
Y101617D01*
X2031947Y76225D01*
X1981163D01*
X1955771Y101617D01*
X1625575Y1892362D02*
X1473225D01*
Y1968537D01*
X1498617Y1993929D01*
X1549400D01*
X1574792Y1968537D01*
Y1892362D01*
Y1943145D02*
X1625575Y1993929D01*
Y2044712D02*
Y2095496D01*
Y2070104D01*
X1473225D01*
X1498617Y2044712D01*
X1625575Y2273239D02*
Y2171671D01*
X1524008Y2273239D01*
X1498617D01*
X1473225Y2247847D01*
Y2197063D01*
X1498617Y2171671D01*
X1769705Y1054125D02*
Y1206475D01*
X1845881D01*
X1871273Y1181083D01*
Y1130300D01*
X1845881Y1104908D01*
X1769705D01*
X1820489D02*
X1871273Y1054125D01*
X1922056D02*
X1972840D01*
X1947448D01*
Y1206475D01*
X1922056Y1181083D01*
X2049015Y1054125D02*
X2099798D01*
X2074407D01*
Y1206475D01*
X2049015Y1181083D01*
X4760125Y1587561D02*
X4607774D01*
Y1663737D01*
X4633166Y1689129D01*
X4683950D01*
X4709342Y1663737D01*
Y1587561D01*
Y1638345D02*
X4760125Y1689129D01*
Y1739912D02*
Y1790696D01*
Y1765304D01*
X4607774D01*
X4633166Y1739912D01*
Y1866871D02*
X4607774Y1892263D01*
Y1943046D01*
X4633166Y1968438D01*
X4734733D01*
X4760125Y1943046D01*
Y1892263D01*
X4734733Y1866871D01*
X4633166D01*
X1397041Y647725D02*
Y800075D01*
X1473217D01*
X1498608Y774683D01*
Y723900D01*
X1473217Y698508D01*
X1397041D01*
X1447825D02*
X1498608Y647725D01*
X1549392Y673117D02*
X1574784Y647725D01*
X1625567D01*
X1650959Y673117D01*
Y774683D01*
X1625567Y800075D01*
X1574784D01*
X1549392Y774683D01*
Y749292D01*
X1574784Y723900D01*
X1650959D01*
X9690141Y3810025D02*
Y3962375D01*
X9766317D01*
X9791708Y3936983D01*
Y3886200D01*
X9766317Y3860808D01*
X9690141D01*
X9740925D02*
X9791708Y3810025D01*
X9842492Y3936983D02*
X9867884Y3962375D01*
X9918667D01*
X9944059Y3936983D01*
Y3911592D01*
X9918667Y3886200D01*
X9944059Y3860808D01*
Y3835417D01*
X9918667Y3810025D01*
X9867884D01*
X9842492Y3835417D01*
Y3860808D01*
X9867884Y3886200D01*
X9842492Y3911592D01*
Y3936983D01*
X9867884Y3886200D02*
X9918667D01*
X11277641Y3365525D02*
Y3517875D01*
X11353817D01*
X11379208Y3492483D01*
Y3441700D01*
X11353817Y3416308D01*
X11277641D01*
X11328425D02*
X11379208Y3365525D01*
X11429992Y3517875D02*
X11531559D01*
Y3492483D01*
X11429992Y3390917D01*
Y3365525D01*
X8096041Y2167125D02*
Y2319475D01*
X8172217D01*
X8197608Y2294084D01*
Y2243300D01*
X8172217Y2217908D01*
X8096041D01*
X8146825D02*
X8197608Y2167125D01*
X8349959Y2319475D02*
X8299175Y2294084D01*
X8248392Y2243300D01*
Y2192517D01*
X8273784Y2167125D01*
X8324567D01*
X8349959Y2192517D01*
Y2217908D01*
X8324567Y2243300D01*
X8248392D01*
X6851441Y2167125D02*
Y2319475D01*
X6927617D01*
X6953008Y2294084D01*
Y2243300D01*
X6927617Y2217908D01*
X6851441D01*
X6902225D02*
X6953008Y2167125D01*
X7105359Y2319475D02*
X7003792D01*
Y2243300D01*
X7054575Y2268692D01*
X7079967D01*
X7105359Y2243300D01*
Y2192517D01*
X7079967Y2167125D01*
X7029184D01*
X7003792Y2192517D01*
X8096041Y2421125D02*
Y2573475D01*
X8172217D01*
X8197608Y2548084D01*
Y2497300D01*
X8172217Y2471908D01*
X8096041D01*
X8146825D02*
X8197608Y2421125D01*
X8324567D02*
Y2573475D01*
X8248392Y2497300D01*
X8349959D01*
X6851441Y2421125D02*
Y2573475D01*
X6927617D01*
X6953008Y2548084D01*
Y2497300D01*
X6927617Y2471908D01*
X6851441D01*
X6902225D02*
X6953008Y2421125D01*
X7003792Y2548084D02*
X7029184Y2573475D01*
X7079967D01*
X7105359Y2548084D01*
Y2522692D01*
X7079967Y2497300D01*
X7054575D01*
X7079967D01*
X7105359Y2471908D01*
Y2446517D01*
X7079967Y2421125D01*
X7029184D01*
X7003792Y2446517D01*
X8089941Y2675125D02*
Y2827475D01*
X8166117D01*
X8191508Y2802084D01*
Y2751300D01*
X8166117Y2725908D01*
X8089941D01*
X8140725D02*
X8191508Y2675125D01*
X8343859D02*
X8242292D01*
X8343859Y2776692D01*
Y2802084D01*
X8318467Y2827475D01*
X8267684D01*
X8242292Y2802084D01*
X6902233Y2687825D02*
Y2840175D01*
X6978408D01*
X7003800Y2814784D01*
Y2764000D01*
X6978408Y2738608D01*
X6902233D01*
X6953017D02*
X7003800Y2687825D01*
X7054584D02*
X7105367D01*
X7079976D01*
Y2840175D01*
X7054584Y2814784D01*
X7467567Y5105392D02*
Y5206959D01*
X7442175Y5232351D01*
X7391392D01*
X7366000Y5206959D01*
Y5105392D01*
X7391392Y5080000D01*
X7442175D01*
X7416783Y5130783D02*
X7467567Y5080000D01*
X7442175D02*
X7467567Y5105392D01*
X7518351Y5206959D02*
X7543743Y5232351D01*
X7594526D01*
X7619918Y5206959D01*
Y5181567D01*
X7594526Y5156175D01*
X7569134D01*
X7594526D01*
X7619918Y5130783D01*
Y5105392D01*
X7594526Y5080000D01*
X7543743D01*
X7518351Y5105392D01*
X11963441Y2247925D02*
Y2400275D01*
X12039617D01*
X12065008Y2374883D01*
Y2324100D01*
X12039617Y2298708D01*
X11963441D01*
X12191967Y2247925D02*
Y2400275D01*
X12115792Y2324100D01*
X12217359D01*
X11982697Y4483473D02*
Y4635824D01*
X12058872D01*
X12084264Y4610432D01*
Y4559648D01*
X12058872Y4534257D01*
X11982697D01*
X12236615Y4483473D02*
X12135048D01*
X12236615Y4585040D01*
Y4610432D01*
X12211223Y4635824D01*
X12160439D01*
X12135048Y4610432D01*
X152433Y4483125D02*
Y4635475D01*
X228608D01*
X254000Y4610083D01*
Y4559300D01*
X228608Y4533908D01*
X152433D01*
X304784Y4483125D02*
X355567D01*
X330176D01*
Y4635475D01*
X304784Y4610083D01*
X10236241Y2971775D02*
Y2819425D01*
X10337808D01*
X10388592Y2946383D02*
X10413984Y2971775D01*
X10464767D01*
X10490159Y2946383D01*
Y2920992D01*
X10464767Y2895600D01*
X10439375D01*
X10464767D01*
X10490159Y2870208D01*
Y2844817D01*
X10464767Y2819425D01*
X10413984D01*
X10388592Y2844817D01*
X1092224Y1422466D02*
X1244575D01*
Y1524033D01*
X1092224Y1574816D02*
X1244575D01*
Y1650992D01*
X1219183Y1676383D01*
X1117616D01*
X1092224Y1650992D01*
Y1574816D01*
X1244575Y1828734D02*
Y1727167D01*
X1143008Y1828734D01*
X1117616D01*
X1092224Y1803342D01*
Y1752559D01*
X1117616Y1727167D01*
X1092224Y977957D02*
X1244575D01*
Y1079525D01*
X1092224Y1130308D02*
X1244575D01*
Y1206483D01*
X1219183Y1231875D01*
X1117616D01*
X1092224Y1206483D01*
Y1130308D01*
X1244575Y1282659D02*
Y1333442D01*
Y1308051D01*
X1092224D01*
X1117616Y1282659D01*
X10756933Y5003775D02*
Y4851425D01*
X10858500D01*
X10909284D02*
X10960067D01*
X10934676D01*
Y5003775D01*
X10909284Y4978383D01*
X6832641Y4178275D02*
Y4025925D01*
X6908817D01*
X6934208Y4051317D01*
Y4152883D01*
X6908817Y4178275D01*
X6832641D01*
X7086559Y4025925D02*
X6984992D01*
X7086559Y4127492D01*
Y4152883D01*
X7061167Y4178275D01*
X7010384D01*
X6984992Y4152883D01*
X1978883Y2679675D02*
Y2527325D01*
X2055058D01*
X2080450Y2552717D01*
Y2654283D01*
X2055058Y2679675D01*
X1978883D01*
X2131234Y2527325D02*
X2182017D01*
X2156626D01*
Y2679675D01*
X2131234Y2654283D01*
X5166579Y4190983D02*
X5141187Y4216375D01*
X5090404D01*
X5065012Y4190983D01*
Y4089417D01*
X5090404Y4064025D01*
X5141187D01*
X5166579Y4089417D01*
X5217362Y4064025D02*
X5268146D01*
X5242754D01*
Y4216375D01*
X5217362Y4190983D01*
X5344321D02*
X5369713Y4216375D01*
X5420497D01*
X5445889Y4190983D01*
Y4165592D01*
X5420497Y4140200D01*
X5445889Y4114808D01*
Y4089417D01*
X5420497Y4064025D01*
X5369713D01*
X5344321Y4089417D01*
Y4114808D01*
X5369713Y4140200D01*
X5344321Y4165592D01*
Y4190983D01*
X5369713Y4140200D02*
X5420497D01*
X11436519Y1812731D02*
X11411127Y1838123D01*
X11360344D01*
X11334952Y1812731D01*
Y1711164D01*
X11360344Y1685772D01*
X11411127D01*
X11436519Y1711164D01*
X11487302Y1685772D02*
X11538086D01*
X11512694D01*
Y1838123D01*
X11487302Y1812731D01*
X11614261Y1838123D02*
X11715828D01*
Y1812731D01*
X11614261Y1711164D01*
Y1685772D01*
X11233274Y2435018D02*
X11258666Y2460410D01*
Y2511194D01*
X11233274Y2536585D01*
X11131707D01*
X11106315Y2511194D01*
Y2460410D01*
X11131707Y2435018D01*
X11106315Y2384235D02*
Y2333451D01*
Y2358843D01*
X11258666D01*
X11233274Y2384235D01*
X11258666Y2155709D02*
X11233274Y2206492D01*
X11182490Y2257276D01*
X11131707D01*
X11106315Y2231884D01*
Y2181101D01*
X11131707Y2155709D01*
X11157098D01*
X11182490Y2181101D01*
Y2257276D01*
X11639661Y2828764D02*
X11665053Y2803372D01*
X11715836D01*
X11741228Y2828764D01*
Y2930331D01*
X11715836Y2955723D01*
X11665053D01*
X11639661Y2930331D01*
X11588878Y2955723D02*
X11538094D01*
X11563486D01*
Y2803372D01*
X11588878Y2828764D01*
X11360351Y2803372D02*
X11461919D01*
Y2879547D01*
X11411135Y2854156D01*
X11385743D01*
X11360351Y2879547D01*
Y2930331D01*
X11385743Y2955723D01*
X11436527D01*
X11461919Y2930331D01*
X10083784Y2311371D02*
X10109176Y2336763D01*
Y2387546D01*
X10083784Y2412938D01*
X9982217D01*
X9956825Y2387546D01*
Y2336763D01*
X9982217Y2311371D01*
X9956825Y2260587D02*
Y2209804D01*
Y2235195D01*
X10109176D01*
X10083784Y2260587D01*
X9956825Y2057453D02*
X10109176D01*
X10033000Y2133628D01*
Y2032061D01*
X9461517Y2425729D02*
X9436125Y2400337D01*
Y2349554D01*
X9461517Y2324162D01*
X9563083D01*
X9588475Y2349554D01*
Y2400337D01*
X9563083Y2425729D01*
X9588475Y2476512D02*
Y2527296D01*
Y2501904D01*
X9436125D01*
X9461517Y2476512D01*
Y2603471D02*
X9436125Y2628863D01*
Y2679647D01*
X9461517Y2705039D01*
X9486908D01*
X9512300Y2679647D01*
Y2654255D01*
Y2679647D01*
X9537692Y2705039D01*
X9563083D01*
X9588475Y2679647D01*
Y2628863D01*
X9563083Y2603471D01*
X2539984Y736571D02*
X2565376Y761963D01*
Y812746D01*
X2539984Y838138D01*
X2438417D01*
X2413025Y812746D01*
Y761963D01*
X2438417Y736571D01*
X2413025Y685787D02*
Y635004D01*
Y660395D01*
X2565376D01*
X2539984Y685787D01*
X2413025Y457261D02*
Y558828D01*
X2514592Y457261D01*
X2539984D01*
X2565376Y482653D01*
Y533437D01*
X2539984Y558828D01*
X2880579Y2666983D02*
X2855187Y2692375D01*
X2804404D01*
X2779012Y2666983D01*
Y2565417D01*
X2804404Y2540025D01*
X2855187D01*
X2880579Y2565417D01*
X2931362Y2540025D02*
X2982146D01*
X2956754D01*
Y2692375D01*
X2931362Y2666983D01*
X3058321D02*
X3083713Y2692375D01*
X3134497D01*
X3159889Y2666983D01*
Y2565417D01*
X3134497Y2540025D01*
X3083713D01*
X3058321Y2565417D01*
Y2666983D01*
X3352808Y3009883D02*
X3327417Y3035275D01*
X3276633D01*
X3251241Y3009883D01*
Y2908317D01*
X3276633Y2882925D01*
X3327417D01*
X3352808Y2908317D01*
X3403592D02*
X3428984Y2882925D01*
X3479767D01*
X3505159Y2908317D01*
Y3009883D01*
X3479767Y3035275D01*
X3428984D01*
X3403592Y3009883D01*
Y2984492D01*
X3428984Y2959100D01*
X3505159D01*
X1686758Y2781283D02*
X1661367Y2806675D01*
X1610583D01*
X1585191Y2781283D01*
Y2679717D01*
X1610583Y2654325D01*
X1661367D01*
X1686758Y2679717D01*
X1737542Y2781283D02*
X1762934Y2806675D01*
X1813717D01*
X1839109Y2781283D01*
Y2755892D01*
X1813717Y2730500D01*
X1839109Y2705108D01*
Y2679717D01*
X1813717Y2654325D01*
X1762934D01*
X1737542Y2679717D01*
Y2705108D01*
X1762934Y2730500D01*
X1737542Y2755892D01*
Y2781283D01*
X1762934Y2730500D02*
X1813717D01*
X10452108Y3924283D02*
X10426717Y3949675D01*
X10375933D01*
X10350541Y3924283D01*
Y3822717D01*
X10375933Y3797325D01*
X10426717D01*
X10452108Y3822717D01*
X10604459Y3949675D02*
X10553675Y3924283D01*
X10502892Y3873500D01*
Y3822717D01*
X10528284Y3797325D01*
X10579067D01*
X10604459Y3822717D01*
Y3848108D01*
X10579067Y3873500D01*
X10502892D01*
X11823683Y4444992D02*
X11849075Y4470383D01*
Y4521167D01*
X11823683Y4546559D01*
X11722117D01*
X11696725Y4521167D01*
Y4470383D01*
X11722117Y4444992D01*
X11849075Y4292641D02*
Y4394208D01*
X11772900D01*
X11798292Y4343425D01*
Y4318033D01*
X11772900Y4292641D01*
X11722117D01*
X11696725Y4318033D01*
Y4368816D01*
X11722117Y4394208D01*
X11836383Y4813292D02*
X11861775Y4838683D01*
Y4889467D01*
X11836383Y4914859D01*
X11734817D01*
X11709425Y4889467D01*
Y4838683D01*
X11734817Y4813292D01*
X11709425Y4686333D02*
X11861775D01*
X11785600Y4762508D01*
Y4660941D01*
X11836383Y5206992D02*
X11861775Y5232383D01*
Y5283167D01*
X11836383Y5308559D01*
X11734817D01*
X11709425Y5283167D01*
Y5232383D01*
X11734817Y5206992D01*
X11836383Y5156208D02*
X11861775Y5130816D01*
Y5080033D01*
X11836383Y5054641D01*
X11810992D01*
X11785600Y5080033D01*
Y5105425D01*
Y5080033D01*
X11760208Y5054641D01*
X11734817D01*
X11709425Y5080033D01*
Y5130816D01*
X11734817Y5156208D01*
D74*
X9362200Y3128683D02*
Y3075700D01*
X9388691D01*
X9397521Y3084530D01*
Y3093361D01*
X9388691Y3102191D01*
X9362200D01*
X9388691D01*
X9397521Y3111021D01*
Y3119852D01*
X9388691Y3128683D01*
X9362200D01*
X9424013Y3075700D02*
X9441674D01*
X9450504Y3084530D01*
Y3102191D01*
X9441674Y3111021D01*
X9424013D01*
X9415183Y3102191D01*
Y3084530D01*
X9424013Y3075700D01*
X9476996D02*
X9494657D01*
X9503487Y3084530D01*
Y3102191D01*
X9494657Y3111021D01*
X9476996D01*
X9468165Y3102191D01*
Y3084530D01*
X9476996Y3075700D01*
X9521148D02*
X9547640D01*
X9556470Y3084530D01*
X9547640Y3093361D01*
X9529979D01*
X9521148Y3102191D01*
X9529979Y3111021D01*
X9556470D01*
X9582962Y3119852D02*
Y3111021D01*
X9574131D01*
X9591792D01*
X9582962D01*
Y3084530D01*
X9591792Y3075700D01*
X9706588Y3119852D02*
X9697758Y3128683D01*
X9680097D01*
X9671266Y3119852D01*
Y3084530D01*
X9680097Y3075700D01*
X9697758D01*
X9706588Y3084530D01*
X9733080Y3075700D02*
X9750741D01*
X9759571Y3084530D01*
Y3102191D01*
X9750741Y3111021D01*
X9733080D01*
X9724249Y3102191D01*
Y3084530D01*
X9733080Y3075700D01*
X9777232D02*
Y3111021D01*
X9803724D01*
X9812554Y3102191D01*
Y3075700D01*
X9830215Y3111021D02*
X9847876Y3075700D01*
X9865537Y3111021D01*
X9909689Y3075700D02*
X9892028D01*
X9883198Y3084530D01*
Y3102191D01*
X9892028Y3111021D01*
X9909689D01*
X9918520Y3102191D01*
Y3093361D01*
X9883198D01*
X9936181Y3111021D02*
Y3075700D01*
Y3093361D01*
X9945011Y3102191D01*
X9953842Y3111021D01*
X9962672D01*
X9997994Y3119852D02*
Y3111021D01*
X9989164D01*
X10006825D01*
X9997994D01*
Y3084530D01*
X10006825Y3075700D01*
X10059807D02*
X10042147D01*
X10033316Y3084530D01*
Y3102191D01*
X10042147Y3111021D01*
X10059807D01*
X10068638Y3102191D01*
Y3093361D01*
X10033316D01*
X10086299Y3111021D02*
Y3075700D01*
Y3093361D01*
X10095129Y3102191D01*
X10103960Y3111021D01*
X10112790D01*
X10227586Y3128683D02*
X10192265D01*
Y3102191D01*
X10209925Y3111021D01*
X10218756D01*
X10227586Y3102191D01*
Y3084530D01*
X10218756Y3075700D01*
X10201095D01*
X10192265Y3084530D01*
X10245247Y3128683D02*
Y3093361D01*
X10262908Y3075700D01*
X10280569Y3093361D01*
Y3128683D01*
X10360044Y3075700D02*
Y3119852D01*
Y3102191D01*
X10351213D01*
X10368874D01*
X10360044D01*
Y3119852D01*
X10368874Y3128683D01*
X10395366Y3075700D02*
X10413026D01*
X10404196D01*
Y3111021D01*
X10395366D01*
X10439518D02*
X10474840Y3075700D01*
X10457179Y3093361D01*
X10474840Y3111021D01*
X10439518Y3075700D01*
X10518992D02*
X10501331D01*
X10492501Y3084530D01*
Y3102191D01*
X10501331Y3111021D01*
X10518992D01*
X10527822Y3102191D01*
Y3093361D01*
X10492501D01*
X10580805Y3128683D02*
Y3075700D01*
X10554314D01*
X10545484Y3084530D01*
Y3102191D01*
X10554314Y3111021D01*
X10580805D01*
X9400300Y5376583D02*
Y5323600D01*
X9426791D01*
X9435621Y5332430D01*
Y5341261D01*
X9426791Y5350091D01*
X9400300D01*
X9426791D01*
X9435621Y5358921D01*
Y5367752D01*
X9426791Y5376583D01*
X9400300D01*
X9453283Y5358921D02*
Y5332430D01*
X9462113Y5323600D01*
X9488604D01*
Y5358921D01*
X9541587D02*
X9515096D01*
X9506265Y5350091D01*
Y5332430D01*
X9515096Y5323600D01*
X9541587D01*
X9559248D02*
Y5376583D01*
Y5341261D02*
X9585740Y5358921D01*
X9559248Y5341261D02*
X9585740Y5323600D01*
X9612231Y5350091D02*
X9647553D01*
X9665214Y5376583D02*
Y5323600D01*
X9691706D01*
X9700536Y5332430D01*
Y5341261D01*
X9691706Y5350091D01*
X9665214D01*
X9691706D01*
X9700536Y5358921D01*
Y5367752D01*
X9691706Y5376583D01*
X9665214D01*
X9727028Y5323600D02*
X9744688D01*
X9753519Y5332430D01*
Y5350091D01*
X9744688Y5358921D01*
X9727028D01*
X9718197Y5350091D01*
Y5332430D01*
X9727028Y5323600D01*
X9780010D02*
X9797671D01*
X9806502Y5332430D01*
Y5350091D01*
X9797671Y5358921D01*
X9780010D01*
X9771180Y5350091D01*
Y5332430D01*
X9780010Y5323600D01*
X9824163D02*
X9850654D01*
X9859484Y5332430D01*
X9850654Y5341261D01*
X9832993D01*
X9824163Y5350091D01*
X9832993Y5358921D01*
X9859484D01*
X9885976Y5367752D02*
Y5358921D01*
X9877146D01*
X9894806D01*
X9885976D01*
Y5332430D01*
X9894806Y5323600D01*
X9974281Y5367752D02*
X9983111Y5376583D01*
X10000772D01*
X10009603Y5367752D01*
Y5358921D01*
X10000772Y5350091D01*
X9991942D01*
X10000772D01*
X10009603Y5341261D01*
Y5332430D01*
X10000772Y5323600D01*
X9983111D01*
X9974281Y5332430D01*
X10027264Y5323600D02*
Y5332430D01*
X10036094D01*
Y5323600D01*
X10027264D01*
X10071416Y5367752D02*
X10080247Y5376583D01*
X10097907D01*
X10106738Y5367752D01*
Y5358921D01*
X10097907Y5350091D01*
X10089077D01*
X10097907D01*
X10106738Y5341261D01*
Y5332430D01*
X10097907Y5323600D01*
X10080247D01*
X10071416Y5332430D01*
X10124399Y5376583D02*
Y5341261D01*
X10142060Y5323600D01*
X10159721Y5341261D01*
Y5376583D01*
X10239195Y5323600D02*
Y5367752D01*
Y5350091D01*
X10230365D01*
X10248025D01*
X10239195D01*
Y5367752D01*
X10248025Y5376583D01*
X10274517Y5323600D02*
X10292178D01*
X10283347D01*
Y5358921D01*
X10274517D01*
X10318669D02*
X10353991Y5323600D01*
X10336330Y5341261D01*
X10353991Y5358921D01*
X10318669Y5323600D01*
X10398144D02*
X10380483D01*
X10371652Y5332430D01*
Y5350091D01*
X10380483Y5358921D01*
X10398144D01*
X10406974Y5350091D01*
Y5341261D01*
X10371652D01*
X10459957Y5376583D02*
Y5323600D01*
X10433466D01*
X10424635Y5332430D01*
Y5350091D01*
X10433466Y5358921D01*
X10459957D01*
X6809500Y5306300D02*
Y5359283D01*
X6835991D01*
X6844821Y5350452D01*
Y5332791D01*
X6835991Y5323961D01*
X6809500D01*
X6871313Y5306300D02*
X6888974D01*
X6897804Y5315130D01*
Y5332791D01*
X6888974Y5341622D01*
X6871313D01*
X6862483Y5332791D01*
Y5315130D01*
X6871313Y5306300D01*
X6915465Y5341622D02*
Y5315130D01*
X6924296Y5306300D01*
X6933126Y5315130D01*
X6941957Y5306300D01*
X6950787Y5315130D01*
Y5341622D01*
X6994940Y5306300D02*
X6977279D01*
X6968448Y5315130D01*
Y5332791D01*
X6977279Y5341622D01*
X6994940D01*
X7003770Y5332791D01*
Y5323961D01*
X6968448D01*
X7021431Y5341622D02*
Y5306300D01*
Y5323961D01*
X7030262Y5332791D01*
X7039092Y5341622D01*
X7047923D01*
X7127397Y5306300D02*
Y5359283D01*
X7153888D01*
X7162719Y5350452D01*
Y5332791D01*
X7153888Y5323961D01*
X7127397D01*
X7189210Y5341622D02*
X7206871D01*
X7215702Y5332791D01*
Y5306300D01*
X7189210D01*
X7180380Y5315130D01*
X7189210Y5323961D01*
X7215702D01*
X7242193Y5350452D02*
Y5341622D01*
X7233363D01*
X7251024D01*
X7242193D01*
Y5315130D01*
X7251024Y5306300D01*
X7277515Y5359283D02*
Y5306300D01*
Y5332791D01*
X7286346Y5341622D01*
X7304006D01*
X7312837Y5332791D01*
Y5306300D01*
X7418803Y5350452D02*
X7409972Y5359283D01*
X7392311D01*
X7383481Y5350452D01*
Y5341622D01*
X7392311Y5332791D01*
X7409972D01*
X7418803Y5323961D01*
Y5315130D01*
X7409972Y5306300D01*
X7392311D01*
X7383481Y5315130D01*
X7436464Y5341622D02*
Y5315130D01*
X7445294Y5306300D01*
X7454125Y5315130D01*
X7462955Y5306300D01*
X7471785Y5315130D01*
Y5341622D01*
X7489447Y5306300D02*
X7507107D01*
X7498277D01*
Y5341622D01*
X7489447D01*
X7542429Y5350452D02*
Y5341622D01*
X7533599D01*
X7551260D01*
X7542429D01*
Y5315130D01*
X7551260Y5306300D01*
X7613073Y5341622D02*
X7586582D01*
X7577751Y5332791D01*
Y5315130D01*
X7586582Y5306300D01*
X7613073D01*
X7630734Y5359283D02*
Y5306300D01*
Y5332791D01*
X7639565Y5341622D01*
X7657225D01*
X7666056Y5332791D01*
Y5306300D01*
X1107200Y3242983D02*
Y3190000D01*
X1133691D01*
X1142521Y3198830D01*
Y3207661D01*
X1133691Y3216491D01*
X1107200D01*
X1133691D01*
X1142521Y3225321D01*
Y3234152D01*
X1133691Y3242983D01*
X1107200D01*
X1160183Y3190000D02*
Y3225321D01*
X1177843Y3242983D01*
X1195504Y3225321D01*
Y3190000D01*
Y3216491D01*
X1160183D01*
X1213165Y3242983D02*
X1248487D01*
X1230826D01*
Y3190000D01*
X1266148Y3242983D02*
X1301470D01*
X1283809D01*
Y3190000D01*
X1354453Y3242983D02*
X1319131D01*
Y3190000D01*
X1354453D01*
X1319131Y3216491D02*
X1336792D01*
X1372114Y3190000D02*
Y3242983D01*
X1398606D01*
X1407436Y3234152D01*
Y3216491D01*
X1398606Y3207661D01*
X1372114D01*
X1389775D02*
X1407436Y3190000D01*
X1425097Y3242983D02*
Y3234152D01*
X1442758Y3216491D01*
X1460419Y3234152D01*
Y3242983D01*
X1442758Y3216491D02*
Y3190000D01*
X1566384Y3234152D02*
X1557554Y3242983D01*
X1539893D01*
X1531063Y3234152D01*
Y3198830D01*
X1539893Y3190000D01*
X1557554D01*
X1566384Y3198830D01*
X1584046Y3242983D02*
Y3190000D01*
Y3216491D01*
X1619367D01*
Y3242983D01*
Y3190000D01*
X1637028D02*
Y3225321D01*
X1654689Y3242983D01*
X1672350Y3225321D01*
Y3190000D01*
Y3216491D01*
X1637028D01*
X1690011Y3190000D02*
Y3242983D01*
X1716503D01*
X1725333Y3234152D01*
Y3216491D01*
X1716503Y3207661D01*
X1690011D01*
X1707672D02*
X1725333Y3190000D01*
X1778316Y3234152D02*
X1769486Y3242983D01*
X1751825D01*
X1742994Y3234152D01*
Y3198830D01*
X1751825Y3190000D01*
X1769486D01*
X1778316Y3198830D01*
Y3216491D01*
X1760655D01*
X1831299Y3242983D02*
X1795977D01*
Y3190000D01*
X1831299D01*
X1795977Y3216491D02*
X1813638D01*
X1848960Y3190000D02*
Y3242983D01*
X1875451D01*
X1884282Y3234152D01*
Y3216491D01*
X1875451Y3207661D01*
X1848960D01*
X1866621D02*
X1884282Y3190000D01*
X6802900Y3230644D02*
Y3177661D01*
X6838222D01*
X6864713D02*
X6882374D01*
X6891204Y3186491D01*
Y3204152D01*
X6882374Y3212982D01*
X6864713D01*
X6855883Y3204152D01*
Y3186491D01*
X6864713Y3177661D01*
X6908866Y3212982D02*
Y3186491D01*
X6917696Y3177661D01*
X6926526Y3186491D01*
X6935357Y3177661D01*
X6944187Y3186491D01*
Y3212982D01*
X7014831Y3230644D02*
Y3177661D01*
X7041323D01*
X7050153Y3186491D01*
Y3195322D01*
X7041323Y3204152D01*
X7014831D01*
X7041323D01*
X7050153Y3212982D01*
Y3221813D01*
X7041323Y3230644D01*
X7014831D01*
X7076645Y3212982D02*
X7094306D01*
X7103136Y3204152D01*
Y3177661D01*
X7076645D01*
X7067814Y3186491D01*
X7076645Y3195322D01*
X7103136D01*
X7129628Y3221813D02*
Y3212982D01*
X7120797D01*
X7138458D01*
X7129628D01*
Y3186491D01*
X7138458Y3177661D01*
X7173780Y3221813D02*
Y3212982D01*
X7164949D01*
X7182610D01*
X7173780D01*
Y3186491D01*
X7182610Y3177661D01*
X7235593D02*
X7217932D01*
X7209102Y3186491D01*
Y3204152D01*
X7217932Y3212982D01*
X7235593D01*
X7244423Y3204152D01*
Y3195322D01*
X7209102D01*
X7262085Y3212982D02*
Y3177661D01*
Y3195322D01*
X7270915Y3204152D01*
X7279745Y3212982D01*
X7288576D01*
X7315067D02*
Y3186491D01*
X7323898Y3177661D01*
X7350389D01*
Y3168830D01*
X7341559Y3160000D01*
X7332728D01*
X7350389Y3177661D02*
Y3212982D01*
X7421033Y3230644D02*
Y3177661D01*
X7447525D01*
X7456355Y3186491D01*
Y3221813D01*
X7447525Y3230644D01*
X7421033D01*
X7500507Y3177661D02*
X7482847D01*
X7474016Y3186491D01*
Y3204152D01*
X7482847Y3212982D01*
X7500507D01*
X7509338Y3204152D01*
Y3195322D01*
X7474016D01*
X7535829Y3221813D02*
Y3212982D01*
X7526999D01*
X7544660D01*
X7535829D01*
Y3186491D01*
X7544660Y3177661D01*
X7597643D02*
X7579982D01*
X7571151Y3186491D01*
Y3204152D01*
X7579982Y3212982D01*
X7597643D01*
X7606473Y3204152D01*
Y3195322D01*
X7571151D01*
X7659456Y3212982D02*
X7632965D01*
X7624134Y3204152D01*
Y3186491D01*
X7632965Y3177661D01*
X7659456D01*
X7685948Y3221813D02*
Y3212982D01*
X7677117D01*
X7694778D01*
X7685948D01*
Y3186491D01*
X7694778Y3177661D01*
X7730100D02*
X7747761D01*
X7756591Y3186491D01*
Y3204152D01*
X7747761Y3212982D01*
X7730100D01*
X7721269Y3204152D01*
Y3186491D01*
X7730100Y3177661D01*
X7774252Y3212982D02*
Y3177661D01*
Y3195322D01*
X7783083Y3204152D01*
X7791913Y3212982D01*
X7800744D01*
X4419550Y5394243D02*
Y5341261D01*
X4446041D01*
X4454871Y5350091D01*
Y5358921D01*
X4446041Y5367752D01*
X4419550D01*
X4446041D01*
X4454871Y5376582D01*
Y5385413D01*
X4446041Y5394243D01*
X4419550D01*
X4481363Y5376582D02*
X4499024D01*
X4507854Y5367752D01*
Y5341261D01*
X4481363D01*
X4472533Y5350091D01*
X4481363Y5358921D01*
X4507854D01*
X4534346Y5385413D02*
Y5376582D01*
X4525515D01*
X4543176D01*
X4534346D01*
Y5350091D01*
X4543176Y5341261D01*
X4578498Y5385413D02*
Y5376582D01*
X4569668D01*
X4587329D01*
X4578498D01*
Y5350091D01*
X4587329Y5341261D01*
X4640312D02*
X4622651D01*
X4613820Y5350091D01*
Y5367752D01*
X4622651Y5376582D01*
X4640312D01*
X4649142Y5367752D01*
Y5358921D01*
X4613820D01*
X4666803Y5376582D02*
Y5341261D01*
Y5358921D01*
X4675634Y5367752D01*
X4684464Y5376582D01*
X4693294D01*
X4719786D02*
Y5350091D01*
X4728616Y5341261D01*
X4755108D01*
Y5332430D01*
X4746277Y5323600D01*
X4737447D01*
X4755108Y5341261D02*
Y5376582D01*
X4825752Y5341261D02*
Y5394243D01*
X4852243D01*
X4861073Y5385413D01*
Y5367752D01*
X4852243Y5358921D01*
X4825752D01*
X4878734Y5376582D02*
Y5341261D01*
Y5358921D01*
X4887565Y5367752D01*
X4896395Y5376582D01*
X4905226D01*
X4940548Y5341261D02*
X4958209D01*
X4967039Y5350091D01*
Y5367752D01*
X4958209Y5376582D01*
X4940548D01*
X4931717Y5367752D01*
Y5350091D01*
X4940548Y5341261D01*
X4993531Y5385413D02*
Y5376582D01*
X4984700D01*
X5002361D01*
X4993531D01*
Y5350091D01*
X5002361Y5341261D01*
X5055344D02*
X5037683D01*
X5028853Y5350091D01*
Y5367752D01*
X5037683Y5376582D01*
X5055344D01*
X5064174Y5367752D01*
Y5358921D01*
X5028853D01*
X5117157Y5376582D02*
X5090666D01*
X5081835Y5367752D01*
Y5350091D01*
X5090666Y5341261D01*
X5117157D01*
X5143649Y5385413D02*
Y5376582D01*
X5134818D01*
X5152479D01*
X5143649D01*
Y5350091D01*
X5152479Y5341261D01*
X5178971D02*
X5196631D01*
X5187801D01*
Y5376582D01*
X5178971D01*
X5231953Y5341261D02*
X5249614D01*
X5258445Y5350091D01*
Y5367752D01*
X5249614Y5376582D01*
X5231953D01*
X5223123Y5367752D01*
Y5350091D01*
X5231953Y5341261D01*
X5276106D02*
Y5376582D01*
X5302597D01*
X5311428Y5367752D01*
Y5341261D01*
%TF.MD5,b82cbe59c98ced18f9137c7a3a68105c*%
M02*
