%TF.GenerationSoftware,Altium Limited,Altium Designer,25.7.1 (20)*%
G04 Layer_Color=8388736*
%FSLAX45Y45*%
%MOMM*%
%TF.SameCoordinates,9EBC04B8-5010-450C-815D-03E4C15FF4C1*%
%TF.FilePolarity,Negative*%
%TF.FileFunction,Soldermask,Top*%
%TF.Part,Single*%
G01*
G75*
%TA.AperFunction,SMDPad,CuDef*%
%ADD75R,1.35320X0.60320*%
%ADD76R,2.00320X2.43320*%
%ADD77R,1.88320X3.15320*%
%ADD78R,1.05320X0.50320*%
%ADD79R,1.43320X2.00320*%
%ADD80R,0.98320X1.19320*%
%ADD81R,1.15320X1.00320*%
%ADD82R,0.55320X1.35320*%
%ADD83R,1.19320X0.98320*%
%ADD84R,2.43320X2.00320*%
%ADD85R,1.15320X1.60320*%
%ADD86R,1.92820X2.43820*%
%ADD87R,0.71320X0.60820*%
%ADD88R,1.00320X1.15320*%
%ADD89R,2.00320X1.43320*%
%ADD90R,0.40320X1.00320*%
%ADD91R,1.60320X1.15320*%
%ADD92R,1.40320X0.80320*%
%ADD93R,2.00320X1.20320*%
%ADD94R,1.18320X3.60320*%
%ADD95R,1.20320X1.95320*%
%ADD96R,1.19320X0.60820*%
%ADD97R,0.90320X0.65320*%
%ADD98R,2.30320X2.50320*%
%ADD99R,2.50320X2.30320*%
%ADD100R,1.90320X0.45320*%
%ADD101R,1.95320X1.20320*%
%ADD102R,1.00320X0.40320*%
%ADD103R,1.10320X1.60320*%
%ADD104R,5.60320X3.10320*%
%ADD105R,0.40320X1.65320*%
%ADD106R,0.45320X0.65320*%
%TA.AperFunction,ComponentPad*%
%ADD107C,1.71120*%
%ADD108R,1.71120X1.71120*%
%ADD109O,2.70320X3.20320*%
%ADD110R,1.61920X1.61920*%
%ADD111C,1.61920*%
%TA.AperFunction,ViaPad*%
%ADD112C,0.80320*%
G36*
X2527881Y1967494D02*
X2529187Y1967234D01*
X2530448Y1966806D01*
X2531643Y1966217D01*
X2532750Y1965477D01*
X2533752Y1964599D01*
X2534630Y1963597D01*
X2535370Y1962490D01*
X2535959Y1961295D01*
X2536387Y1960034D01*
X2536647Y1958728D01*
X2536734Y1957399D01*
Y1877399D01*
X2536647Y1876070D01*
X2536387Y1874764D01*
X2535959Y1873503D01*
X2535370Y1872308D01*
X2534630Y1871201D01*
X2533752Y1870199D01*
X2532750Y1869321D01*
X2531643Y1868581D01*
X2530448Y1867992D01*
X2529187Y1867564D01*
X2527881Y1867304D01*
X2526552Y1867217D01*
X2506552D01*
X2505223Y1867304D01*
X2503917Y1867564D01*
X2503489Y1867709D01*
X2502656Y1867992D01*
X2501461Y1868581D01*
X2500354Y1869321D01*
X2499353Y1870199D01*
Y1870199D01*
X2499352D01*
X2498474Y1871201D01*
X2497734Y1872308D01*
X2497145Y1873503D01*
X2496862Y1874336D01*
X2496717Y1874764D01*
X2496457Y1876070D01*
X2496370Y1877399D01*
X2496369Y1917229D01*
X2495223Y1917304D01*
X2493917Y1917564D01*
X2492656Y1917992D01*
X2491461Y1918581D01*
X2490354Y1919321D01*
X2489352Y1920199D01*
X2488474Y1921201D01*
X2487734Y1922308D01*
X2487145Y1923503D01*
X2486717Y1924764D01*
X2486457Y1926070D01*
X2486382Y1927217D01*
X2446552D01*
X2445223Y1927304D01*
X2443917Y1927564D01*
X2442656Y1927992D01*
X2441461Y1928581D01*
X2440354Y1929321D01*
X2439353Y1930199D01*
X2438474Y1931201D01*
X2437735Y1932308D01*
X2437145Y1933503D01*
X2436717Y1934764D01*
X2436457Y1936070D01*
X2436370Y1937399D01*
Y1957399D01*
X2436457Y1958728D01*
X2436717Y1960034D01*
X2437145Y1961295D01*
X2437735Y1962490D01*
X2438474Y1963597D01*
X2439353Y1964599D01*
X2440354Y1965477D01*
X2441461Y1966217D01*
X2442656Y1966806D01*
X2443917Y1967234D01*
X2445223Y1967494D01*
X2446552Y1967581D01*
X2526552D01*
X2527881Y1967494D01*
D02*
G37*
G36*
X2807878D02*
X2809184Y1967234D01*
X2810445Y1966806D01*
X2811640Y1966217D01*
X2812747Y1965477D01*
X2813748Y1964599D01*
X2814627Y1963597D01*
X2815366Y1962490D01*
X2815956Y1961295D01*
X2816384Y1960034D01*
X2816644Y1958728D01*
X2816731Y1957399D01*
Y1937399D01*
X2816644Y1936070D01*
X2816384Y1934764D01*
X2816238Y1934336D01*
X2815956Y1933503D01*
X2815367Y1932308D01*
X2814627Y1931201D01*
X2813749Y1930200D01*
X2813748D01*
Y1930199D01*
X2812747Y1929321D01*
X2811640Y1928581D01*
X2810445Y1927992D01*
X2809612Y1927709D01*
X2809184Y1927564D01*
X2807878Y1927304D01*
X2806549Y1927217D01*
X2766719Y1927216D01*
X2766644Y1926070D01*
X2766384Y1924764D01*
X2765956Y1923503D01*
X2765367Y1922308D01*
X2764627Y1921201D01*
X2763749Y1920199D01*
X2762747Y1919321D01*
X2761640Y1918581D01*
X2760445Y1917992D01*
X2759184Y1917564D01*
X2757878Y1917304D01*
X2756731Y1917229D01*
Y1877399D01*
X2756644Y1876070D01*
X2756384Y1874764D01*
X2755956Y1873503D01*
X2755367Y1872308D01*
X2754627Y1871201D01*
X2753749Y1870199D01*
X2752747Y1869321D01*
X2751640Y1868581D01*
X2750445Y1867992D01*
X2749184Y1867564D01*
X2747878Y1867304D01*
X2746549Y1867217D01*
X2726549D01*
X2725220Y1867304D01*
X2723914Y1867564D01*
X2722653Y1867992D01*
X2721458Y1868581D01*
X2720351Y1869321D01*
X2719349Y1870199D01*
X2718471Y1871201D01*
X2717731Y1872308D01*
X2717142Y1873503D01*
X2716714Y1874764D01*
X2716454Y1876070D01*
X2716367Y1877399D01*
Y1957399D01*
X2716454Y1958728D01*
X2716714Y1960034D01*
X2717142Y1961295D01*
X2717731Y1962490D01*
X2718471Y1963597D01*
X2719349Y1964599D01*
X2720351Y1965477D01*
X2721458Y1966217D01*
X2722653Y1966806D01*
X2723914Y1967234D01*
X2725220Y1967494D01*
X2726549Y1967581D01*
X2806549D01*
X2807878Y1967494D01*
D02*
G37*
G36*
X2527881Y2247496D02*
X2529187Y2247236D01*
X2530448Y2246808D01*
X2531643Y2246219D01*
X2532750Y2245479D01*
X2533752Y2244601D01*
X2534630Y2243599D01*
X2535370Y2242492D01*
X2535959Y2241297D01*
X2536387Y2240036D01*
X2536647Y2238730D01*
X2536734Y2237401D01*
Y2157401D01*
X2536647Y2156072D01*
X2536387Y2154766D01*
X2535959Y2153505D01*
X2535370Y2152310D01*
X2534630Y2151203D01*
X2533752Y2150201D01*
X2532750Y2149323D01*
X2531643Y2148583D01*
X2530448Y2147994D01*
X2529187Y2147566D01*
X2527881Y2147306D01*
X2526552Y2147219D01*
X2446552D01*
X2445223Y2147306D01*
X2443917Y2147566D01*
X2442656Y2147994D01*
X2441461Y2148583D01*
X2440354Y2149323D01*
X2439353Y2150201D01*
X2438474Y2151203D01*
X2437735Y2152310D01*
X2437145Y2153505D01*
X2436717Y2154766D01*
X2436457Y2156072D01*
X2436370Y2157401D01*
Y2177401D01*
X2436457Y2178730D01*
X2436717Y2180036D01*
X2436863Y2180464D01*
X2437145Y2181297D01*
X2437734Y2182492D01*
X2438474Y2183599D01*
X2439352Y2184600D01*
X2439353D01*
Y2184601D01*
X2440354Y2185479D01*
X2441461Y2186219D01*
X2442656Y2186808D01*
X2443489Y2187091D01*
X2443917Y2187236D01*
X2445223Y2187496D01*
X2446552Y2187583D01*
X2486382Y2187584D01*
X2486457Y2188730D01*
X2486717Y2190036D01*
X2487145Y2191297D01*
X2487734Y2192492D01*
X2488474Y2193599D01*
X2489352Y2194601D01*
X2490354Y2195479D01*
X2491461Y2196219D01*
X2492656Y2196808D01*
X2493917Y2197236D01*
X2495223Y2197496D01*
X2496370Y2197571D01*
Y2237401D01*
X2496457Y2238730D01*
X2496717Y2240036D01*
X2497145Y2241297D01*
X2497734Y2242492D01*
X2498474Y2243599D01*
X2499352Y2244601D01*
X2500354Y2245479D01*
X2501461Y2246219D01*
X2502656Y2246808D01*
X2503917Y2247236D01*
X2505223Y2247496D01*
X2506552Y2247583D01*
X2526552D01*
X2527881Y2247496D01*
D02*
G37*
G36*
X2747878D02*
X2749184Y2247236D01*
X2749612Y2247091D01*
X2750445Y2246808D01*
X2751640Y2246219D01*
X2752747Y2245479D01*
X2753748Y2244601D01*
Y2244601D01*
X2753749D01*
X2754627Y2243599D01*
X2755367Y2242492D01*
X2755956Y2241297D01*
X2756239Y2240464D01*
X2756384Y2240036D01*
X2756644Y2238730D01*
X2756731Y2237401D01*
X2756732Y2197571D01*
X2757878Y2197496D01*
X2759184Y2197236D01*
X2760445Y2196808D01*
X2761640Y2196219D01*
X2762747Y2195479D01*
X2763749Y2194601D01*
X2764627Y2193599D01*
X2765367Y2192492D01*
X2765956Y2191297D01*
X2766384Y2190036D01*
X2766644Y2188730D01*
X2766719Y2187583D01*
X2806549D01*
X2807878Y2187496D01*
X2809184Y2187236D01*
X2810445Y2186808D01*
X2811640Y2186219D01*
X2812747Y2185479D01*
X2813748Y2184601D01*
X2814627Y2183599D01*
X2815366Y2182492D01*
X2815956Y2181297D01*
X2816384Y2180036D01*
X2816644Y2178730D01*
X2816731Y2177401D01*
Y2157401D01*
X2816644Y2156072D01*
X2816384Y2154766D01*
X2815956Y2153505D01*
X2815366Y2152310D01*
X2814627Y2151203D01*
X2813748Y2150201D01*
X2812747Y2149323D01*
X2811640Y2148583D01*
X2810445Y2147994D01*
X2809184Y2147566D01*
X2807878Y2147306D01*
X2806549Y2147219D01*
X2726549D01*
X2725220Y2147306D01*
X2723914Y2147566D01*
X2722653Y2147994D01*
X2721458Y2148583D01*
X2720351Y2149323D01*
X2719349Y2150201D01*
X2718471Y2151203D01*
X2717731Y2152310D01*
X2717142Y2153505D01*
X2716714Y2154766D01*
X2716454Y2156072D01*
X2716367Y2157401D01*
Y2237401D01*
X2716454Y2238730D01*
X2716714Y2240036D01*
X2717142Y2241297D01*
X2717731Y2242492D01*
X2718471Y2243599D01*
X2719349Y2244601D01*
X2720351Y2245479D01*
X2721458Y2246219D01*
X2722653Y2246808D01*
X2723914Y2247236D01*
X2725220Y2247496D01*
X2726549Y2247583D01*
X2746549D01*
X2747878Y2247496D01*
D02*
G37*
D75*
X7860800Y3018000D02*
D03*
Y2953000D02*
D03*
Y3083000D02*
D03*
X7670800D02*
D03*
Y2953000D02*
D03*
D76*
X11214202Y5181600D02*
D03*
Y4800600D02*
D03*
Y4419600D02*
D03*
X11391665Y2646147D02*
D03*
X11384705Y2320747D02*
D03*
X11385970Y1995348D02*
D03*
X11506200Y5181600D02*
D03*
Y4800600D02*
D03*
Y4419600D02*
D03*
X11677969Y1995348D02*
D03*
X11676703Y2320747D02*
D03*
X11683663Y2646147D02*
D03*
D77*
X10515600Y4597400D02*
D03*
D78*
X10660598Y4497400D02*
D03*
Y4447398D02*
D03*
Y4547398D02*
D03*
Y4597400D02*
D03*
Y4647397D02*
D03*
Y4697400D02*
D03*
Y4747402D02*
D03*
X10370602D02*
D03*
Y4697400D02*
D03*
Y4647397D02*
D03*
Y4597400D02*
D03*
Y4547398D02*
D03*
Y4497400D02*
D03*
Y4447398D02*
D03*
D79*
X9855150Y4555302D02*
D03*
X9512300Y4555299D02*
D03*
X1254948Y2739202D02*
D03*
Y3001198D02*
D03*
X9855150Y4817298D02*
D03*
X9512300Y4817300D02*
D03*
D80*
X10541300Y4076700D02*
D03*
X10401300D02*
D03*
X2861351Y2425700D02*
D03*
X3001350D02*
D03*
X4945634Y4137650D02*
D03*
X4805629D02*
D03*
D81*
X10991793Y2340599D02*
D03*
X5636448Y4486900D02*
D03*
X1320800Y2190600D02*
D03*
Y2030600D02*
D03*
X2270948Y1108700D02*
D03*
Y948700D02*
D03*
X10991793Y2180600D02*
D03*
X11360093Y3792200D02*
D03*
Y3632200D02*
D03*
X4760148Y4415800D02*
D03*
Y4575800D02*
D03*
X5636448Y4326900D02*
D03*
D82*
X10422499Y2236201D02*
D03*
X10532501D02*
D03*
D83*
X10045700Y2527300D02*
D03*
X1661348Y2921000D02*
D03*
X3340100Y2641295D02*
D03*
X2489200Y952195D02*
D03*
Y1092200D02*
D03*
X3340100Y2781300D02*
D03*
X1661348Y3061000D02*
D03*
X10045700Y2667305D02*
D03*
D84*
X9740900Y2425802D02*
D03*
Y2717800D02*
D03*
D85*
X7924302Y2243303D02*
D03*
X7734300D02*
D03*
X7264400D02*
D03*
X7454402D02*
D03*
X7728199Y2751303D02*
D03*
X7918201D02*
D03*
X7270999D02*
D03*
X7461001D02*
D03*
X7270501Y2497303D02*
D03*
X7460498D02*
D03*
X7734300D02*
D03*
X7924302D02*
D03*
D86*
X4943719Y5080091D02*
D03*
X7632700Y4821403D02*
D03*
X5649148Y5080000D02*
D03*
D87*
X4833950Y5178999D02*
D03*
Y5113000D02*
D03*
Y5047000D02*
D03*
Y4981001D02*
D03*
X7742469Y4920488D02*
D03*
Y4854489D02*
D03*
Y4788489D02*
D03*
Y4722490D02*
D03*
X5758917Y4981087D02*
D03*
Y5047092D02*
D03*
Y5113091D02*
D03*
Y5179090D02*
D03*
D88*
X7661900Y4533897D02*
D03*
X2697500Y1104900D02*
D03*
X2151553Y1981200D02*
D03*
X1821200Y939596D02*
D03*
X2357506Y146106D02*
D03*
X7501900Y4533897D02*
D03*
X2857500Y1104900D02*
D03*
Y901700D02*
D03*
X2697500D02*
D03*
X1981200Y939596D02*
D03*
X1550848Y927100D02*
D03*
X1991548Y1981200D02*
D03*
X2197506Y146106D02*
D03*
X9922500Y4076700D02*
D03*
X9762500D02*
D03*
X1390848Y927100D02*
D03*
D89*
X4237798Y2832100D02*
D03*
X4499799D02*
D03*
D90*
X2646548Y2197400D02*
D03*
X2606548D02*
D03*
X2686548D02*
D03*
X2616551Y1917400D02*
D03*
X2656550D02*
D03*
X2566548Y2197400D02*
D03*
Y1917400D02*
D03*
X2696550D02*
D03*
D91*
X2283648Y1428999D02*
D03*
X10795000Y2355600D02*
D03*
Y2165600D02*
D03*
X2283648Y1619001D02*
D03*
D92*
X5041550Y4324600D02*
D03*
Y4419600D02*
D03*
Y4514600D02*
D03*
X5291550D02*
D03*
Y4419600D02*
D03*
Y4324600D02*
D03*
D93*
X10566400Y2616200D02*
D03*
X10326400D02*
D03*
D94*
X10632778Y5047432D02*
D03*
X10395778D02*
D03*
D95*
X6588902Y2916398D02*
D03*
X6288898D02*
D03*
X8828827Y4830699D02*
D03*
X8841598Y2870200D02*
D03*
X6550802Y4508503D02*
D03*
Y5067300D02*
D03*
X6250798Y4508503D02*
D03*
Y5067300D02*
D03*
X3888598Y5194300D02*
D03*
X9128826Y4830699D02*
D03*
X9141602Y2870200D02*
D03*
Y2595499D02*
D03*
X9131300Y5105400D02*
D03*
X8831301D02*
D03*
X8841598Y2595499D02*
D03*
X4188602Y5194300D02*
D03*
D96*
X7431466Y4854489D02*
D03*
Y4788489D02*
D03*
Y4920488D02*
D03*
Y4722490D02*
D03*
X5144948Y4981001D02*
D03*
Y5047000D02*
D03*
Y5113000D02*
D03*
Y5178999D02*
D03*
X5447919Y5179090D02*
D03*
Y5113091D02*
D03*
Y5047092D02*
D03*
Y4981087D02*
D03*
D97*
X7289797Y4501398D02*
D03*
Y4566402D02*
D03*
D98*
X7010400Y4807798D02*
D03*
Y4377802D02*
D03*
D99*
X2485949Y2933700D02*
D03*
X2055952D02*
D03*
D100*
X2721549Y2057400D02*
D03*
Y2002399D02*
D03*
Y2112401D02*
D03*
D101*
X787400Y3198002D02*
D03*
X4709348Y1145398D02*
D03*
Y1445402D02*
D03*
X787400Y2897998D02*
D03*
D102*
X2486548Y2037400D02*
D03*
Y1997400D02*
D03*
Y2077400D02*
D03*
Y2117400D02*
D03*
D103*
X1578549Y1206500D02*
D03*
Y1524000D02*
D03*
X1388552Y1206500D02*
D03*
Y1524000D02*
D03*
D104*
X3794948Y1140602D02*
D03*
Y2110598D02*
D03*
D105*
X10477500Y2251202D02*
D03*
D106*
X10552501Y2396200D02*
D03*
X10502499D02*
D03*
X10452501D02*
D03*
X10402499D02*
D03*
D107*
X444500Y5232400D02*
D03*
X12293600Y5181600D02*
D03*
Y2946400D02*
D03*
X444500Y4127500D02*
D03*
D108*
Y4978400D02*
D03*
Y3873500D02*
D03*
X12293600Y2692400D02*
D03*
Y4927600D02*
D03*
D109*
X1200150Y4946650D02*
D03*
X3549650Y3854450D02*
D03*
X1225550Y3841750D02*
D03*
X3524250Y4959350D02*
D03*
D110*
X1851848Y698500D02*
D03*
D111*
X2105848D02*
D03*
D112*
X11163300Y4991100D02*
D03*
X11252200D02*
D03*
X11061700Y4813300D02*
D03*
Y5181600D02*
D03*
Y5092700D02*
D03*
Y5270500D02*
D03*
Y4991100D02*
D03*
Y4902200D02*
D03*
X11163300Y4622800D02*
D03*
X11252200D02*
D03*
X11061700Y4356100D02*
D03*
Y4711700D02*
D03*
Y4533900D02*
D03*
Y4445000D02*
D03*
Y4622800D02*
D03*
X10515600Y4699000D02*
D03*
X10515848Y4603057D02*
D03*
X10515600Y4508500D02*
D03*
X9461500Y4394200D02*
D03*
X9639300D02*
D03*
X9740900D02*
D03*
X9550400D02*
D03*
X9918700D02*
D03*
X9917763Y4295255D02*
D03*
X9829800Y4394200D02*
D03*
X9828863Y4295255D02*
D03*
X9739963D02*
D03*
X9550400Y4292600D02*
D03*
X9639300D02*
D03*
X9461500D02*
D03*
X11239500Y2641600D02*
D03*
X11341100Y2489200D02*
D03*
X11442700D02*
D03*
X11239500Y2552700D02*
D03*
Y2730500D02*
D03*
X11430000Y2159000D02*
D03*
X11328400D02*
D03*
X11239500Y1917700D02*
D03*
Y2006600D02*
D03*
Y2413000D02*
D03*
Y2324100D02*
D03*
Y2235200D02*
D03*
Y2095500D02*
D03*
X10172700Y2247900D02*
D03*
X10350500D02*
D03*
X10261600Y2159000D02*
D03*
Y2247900D02*
D03*
X10350500Y2159000D02*
D03*
Y2070100D02*
D03*
X10261600D02*
D03*
X10172700D02*
D03*
Y2159000D02*
D03*
X4737100Y5181600D02*
D03*
X4648200Y5080000D02*
D03*
X4737100D02*
D03*
Y4978400D02*
D03*
X4648200D02*
D03*
Y5181600D02*
D03*
X2590800Y2489200D02*
D03*
X2654300Y2425700D02*
D03*
X2501900Y2438400D02*
D03*
X2646548Y2293752D02*
D03*
X2578100Y2374900D02*
D03*
X1460500Y2006600D02*
D03*
X2519680Y1351280D02*
D03*
X2622103Y1807205D02*
D03*
X2914650Y1858010D02*
D03*
X2146300Y1701800D02*
D03*
X2463800Y1861010D02*
D03*
X2875926Y1213473D02*
D03*
X10680700Y4241800D02*
D03*
X10401300Y4244701D02*
D03*
X7130801Y2666502D02*
D03*
X6159500Y3619500D02*
D03*
X6248400D02*
D03*
X6159500Y3708400D02*
D03*
X6248400D02*
D03*
X6337300Y3619500D02*
D03*
Y3708400D02*
D03*
X6159500Y3797300D02*
D03*
X6337300D02*
D03*
X6248400D02*
D03*
X3289300Y2222500D02*
D03*
X3378200D02*
D03*
X3200400D02*
D03*
X3378200Y2133600D02*
D03*
Y2044700D02*
D03*
X3289300Y2133600D02*
D03*
X3200400D02*
D03*
X3289300Y2044700D02*
D03*
X3200400D02*
D03*
X3009900Y3073400D02*
D03*
X3098800D02*
D03*
X3009900Y2984500D02*
D03*
X3098800D02*
D03*
X2921000D02*
D03*
Y3073400D02*
D03*
X3098800Y2895600D02*
D03*
X2921000D02*
D03*
X3009900D02*
D03*
X2794000Y3238500D02*
D03*
X5030192Y3734840D02*
D03*
X5029200Y3848100D02*
D03*
X4851400Y3733800D02*
D03*
X4940300D02*
D03*
X4851400Y3848100D02*
D03*
X4940300D02*
D03*
X5295900Y5257800D02*
D03*
X2143948Y1370762D02*
D03*
X3086100Y1473200D02*
D03*
X1886250Y1270000D02*
D03*
X2885440Y1498600D02*
D03*
X1907743Y368503D02*
D03*
X838200Y2768600D02*
D03*
X5293223Y4648525D02*
D03*
X7130801Y2941803D02*
D03*
X8659343Y2593340D02*
D03*
X7536180Y3083001D02*
D03*
%TF.MD5,38df858d2d267ca8a89fa3ae930231c9*%
M02*
