%TF.GenerationSoftware,Altium Limited,Altium Designer,25.7.1 (20)*%
G04 Layer_Color=0*
%FSLAX45Y45*%
%MOMM*%
%TF.SameCoordinates,9EBC04B8-5010-450C-815D-03E4C15FF4C1*%
%TF.FilePolarity,Positive*%
%TF.FileFunction,Plated,1,2,PTH,Drill*%
%TF.Part,Single*%
G01*
G75*
%TA.AperFunction,ComponentDrill*%
%ADD114C,1.00000*%
%ADD115C,1.60000*%
%ADD116C,0.91000*%
%TA.AperFunction,ViaDrill,NotFilled*%
%ADD117C,0.30000*%
D114*
X444500Y5232400D02*
D03*
Y4978400D02*
D03*
X12293600Y5181600D02*
D03*
Y2946400D02*
D03*
X444500Y3873500D02*
D03*
Y4127500D02*
D03*
X12293600Y2692400D02*
D03*
Y4927600D02*
D03*
D115*
X1200150Y4946650D02*
D03*
X3549650Y3854450D02*
D03*
X1225550Y3841750D02*
D03*
X3524250Y4959350D02*
D03*
D116*
X1851848Y698500D02*
D03*
X2105848D02*
D03*
D117*
X12420600Y3136900D02*
D03*
X12103100Y3149600D02*
D03*
X12052300Y4826000D02*
D03*
X12082593Y2452696D02*
D03*
X12382592D02*
D03*
X12532592Y2752696D02*
D03*
X832596Y3952696D02*
D03*
Y4552695D02*
D03*
X6532594Y1552696D02*
D03*
X6382594Y2452696D02*
D03*
X1732596Y4552695D02*
D03*
X11182593Y652697D02*
D03*
X6232594Y352697D02*
D03*
X1282596Y652697D02*
D03*
X11632593Y3952696D02*
D03*
X1132596Y2152696D02*
D03*
X8182594Y2452696D02*
D03*
X3682595Y4852695D02*
D03*
X4132595Y952697D02*
D03*
X9682593Y652697D02*
D03*
X12232593Y2152696D02*
D03*
X11332593Y952697D02*
D03*
X10732593Y352697D02*
D03*
X1132596Y4552695D02*
D03*
X8482594Y1252697D02*
D03*
X2932595Y3952696D02*
D03*
X11482593Y3052696D02*
D03*
X10882593Y1252697D02*
D03*
X82596D02*
D03*
X4282595Y4852695D02*
D03*
X10582593Y3052696D02*
D03*
X7582594Y652697D02*
D03*
X6982594Y3052696D02*
D03*
X9082593Y2452696D02*
D03*
X232596Y1552696D02*
D03*
X11482593Y3652696D02*
D03*
X6532594Y952697D02*
D03*
X12082593Y4252696D02*
D03*
X10882593Y652697D02*
D03*
X12082593Y1252697D02*
D03*
X6682594Y2452696D02*
D03*
X6832594Y2152696D02*
D03*
X8182594Y1852696D02*
D03*
X5482595Y1252697D02*
D03*
X1432596Y5152695D02*
D03*
X8632594Y1552696D02*
D03*
X5332595Y2152696D02*
D03*
X7432594Y1552696D02*
D03*
X7882594Y1252697D02*
D03*
X5782594Y2452696D02*
D03*
X11932593Y952697D02*
D03*
X3382595Y652697D02*
D03*
X5182595Y1852696D02*
D03*
X9832593Y5152695D02*
D03*
X9232593Y352697D02*
D03*
X2632595Y2752696D02*
D03*
X82596Y2452696D02*
D03*
X11332593Y352697D02*
D03*
X7582594Y1852696D02*
D03*
X1432596Y4552695D02*
D03*
X6532594Y2752696D02*
D03*
X9382593Y4252696D02*
D03*
X232596Y352697D02*
D03*
X1432596Y2752696D02*
D03*
X11482593Y652697D02*
D03*
X682596D02*
D03*
X10744200Y3937000D02*
D03*
X7732594Y952697D02*
D03*
X7432594D02*
D03*
X9832593Y2152696D02*
D03*
X1882596Y4252696D02*
D03*
X10132593Y5152695D02*
D03*
X10432593Y1552696D02*
D03*
X3832595Y352697D02*
D03*
X2932595Y5152695D02*
D03*
X1282596Y4252696D02*
D03*
X6232594Y1552696D02*
D03*
X9382593Y3052696D02*
D03*
X6682594Y652697D02*
D03*
X3082595Y1252697D02*
D03*
X9232593Y2152696D02*
D03*
X12232593Y1552696D02*
D03*
X6232594Y3352696D02*
D03*
X6682594Y1252697D02*
D03*
X5482595Y1852696D02*
D03*
X9682593D02*
D03*
X11332593Y3352696D02*
D03*
X11932593Y352697D02*
D03*
X8782594Y652697D02*
D03*
X6382594D02*
D03*
X382596Y1852696D02*
D03*
X3532595Y4552695D02*
D03*
X532596Y952697D02*
D03*
X6232594Y2752696D02*
D03*
X9832593Y952697D02*
D03*
X1432596Y352697D02*
D03*
X7132594Y3352696D02*
D03*
X6532594Y3952696D02*
D03*
X5182595Y4852695D02*
D03*
X9532593Y952697D02*
D03*
X10882593Y4852695D02*
D03*
X532596Y1552696D02*
D03*
X11182593Y4252696D02*
D03*
X10882593Y2452696D02*
D03*
X9532593Y2152696D02*
D03*
X9682593Y3052696D02*
D03*
X9082593Y3652696D02*
D03*
X5182595Y3052696D02*
D03*
X6082594Y1852696D02*
D03*
X4582595Y3052696D02*
D03*
X4732595Y352697D02*
D03*
X5932594Y2152696D02*
D03*
X8032594Y1552696D02*
D03*
X2482595Y4852695D02*
D03*
X7432594Y352697D02*
D03*
X12532592Y3352696D02*
D03*
X7882594Y3652696D02*
D03*
X9382593Y1252697D02*
D03*
X12232593Y952697D02*
D03*
X4882595Y1852696D02*
D03*
X9082593Y1252697D02*
D03*
X9532593Y5152695D02*
D03*
X11782593Y652697D02*
D03*
X1882596Y4852695D02*
D03*
X9982593Y3052696D02*
D03*
X382596Y652697D02*
D03*
X6382594Y3052696D02*
D03*
X8782594Y2452696D02*
D03*
X12082593Y3652696D02*
D03*
X9232593Y1552696D02*
D03*
X8332594Y2752696D02*
D03*
X6982594Y1852696D02*
D03*
X6082594Y2452696D02*
D03*
X5638800Y4660900D02*
D03*
X382596Y1252697D02*
D03*
X5032595Y1552696D02*
D03*
X1282596Y1252697D02*
D03*
X5932594Y3952696D02*
D03*
X9082593Y652697D02*
D03*
X8332594Y5152695D02*
D03*
X8482594Y2452696D02*
D03*
X7732594Y352697D02*
D03*
X5782594Y3652696D02*
D03*
X232596Y952697D02*
D03*
X5632595Y2152696D02*
D03*
X12082593Y1852696D02*
D03*
X8182594Y3652696D02*
D03*
X832596Y2152696D02*
D03*
X10582593Y1252697D02*
D03*
X3232595Y2752696D02*
D03*
X8482594Y4852695D02*
D03*
X4282595Y1252697D02*
D03*
X5632595Y952697D02*
D03*
X6532594Y352697D02*
D03*
X10132593D02*
D03*
X9232593Y3952696D02*
D03*
X4432595Y352697D02*
D03*
X12232593Y3952696D02*
D03*
X982596Y1252697D02*
D03*
X4582595Y4252696D02*
D03*
X1432596Y3952696D02*
D03*
X7732594Y3352696D02*
D03*
X7132594Y4552695D02*
D03*
X5932594Y952697D02*
D03*
X382596Y3052696D02*
D03*
X4582595Y1852696D02*
D03*
X1582596Y2452696D02*
D03*
X8332594Y2152696D02*
D03*
X3382595Y1252697D02*
D03*
X7882594Y652697D02*
D03*
X6982594D02*
D03*
X4732595Y2752696D02*
D03*
X9082593Y3052696D02*
D03*
X9532593Y3352696D02*
D03*
X5482595Y3652696D02*
D03*
X6832594Y4552695D02*
D03*
X9532593Y3952696D02*
D03*
X3232595D02*
D03*
X2006600Y1689100D02*
D03*
X5486400Y4343400D02*
D03*
X10732593Y952697D02*
D03*
X1732596Y5152695D02*
D03*
X1882596Y2452696D02*
D03*
X3082595Y4252696D02*
D03*
X4132595Y3952696D02*
D03*
X10132593Y952697D02*
D03*
X2482595Y652697D02*
D03*
X8782594Y1852696D02*
D03*
Y4252696D02*
D03*
X232596Y4552695D02*
D03*
X11032593Y952697D02*
D03*
X4882595Y4852695D02*
D03*
X682596D02*
D03*
X1732596Y2752696D02*
D03*
X10515600Y4406900D02*
D03*
X982596Y2452696D02*
D03*
X2332596Y5152695D02*
D03*
X7732594Y1552696D02*
D03*
X10732593Y3352696D02*
D03*
X8782594Y3652696D02*
D03*
X6082594Y3052696D02*
D03*
X10132593Y3352696D02*
D03*
X11182593Y1252697D02*
D03*
X7882594Y1852696D02*
D03*
X5182595Y3652696D02*
D03*
X532596Y3352696D02*
D03*
X8632594Y952697D02*
D03*
X3082595Y652697D02*
D03*
X8182594D02*
D03*
X3532595Y352697D02*
D03*
X5032595Y952697D02*
D03*
X9532593Y1552696D02*
D03*
X10282593Y1852696D02*
D03*
Y4252696D02*
D03*
X10432593Y352697D02*
D03*
X7582594Y1252697D02*
D03*
X5032595Y2752696D02*
D03*
X9982593Y1852696D02*
D03*
X8482594Y652697D02*
D03*
X7282594Y4252696D02*
D03*
X6982594Y2452696D02*
D03*
X5932594Y2752696D02*
D03*
X3832595Y3352696D02*
D03*
X5632595Y1552696D02*
D03*
X232596Y3952696D02*
D03*
X11782593Y4252696D02*
D03*
X10882593Y3052696D02*
D03*
X10582593Y3652696D02*
D03*
X5182595Y652697D02*
D03*
X6082594Y1252697D02*
D03*
X11032593Y2752696D02*
D03*
X11632593Y1552696D02*
D03*
X12382592Y1852696D02*
D03*
X4132595Y4552695D02*
D03*
X982596Y652697D02*
D03*
X10582593D02*
D03*
X4132595Y3352696D02*
D03*
X532596Y352697D02*
D03*
X10432593Y952697D02*
D03*
X7882594Y4252696D02*
D03*
X10282593Y3052696D02*
D03*
X1132596Y952697D02*
D03*
X10282593Y3652696D02*
D03*
X9382593Y1852696D02*
D03*
X532596Y2152696D02*
D03*
X7282594Y1852696D02*
D03*
X8182594Y1252697D02*
D03*
X3232595Y352697D02*
D03*
X8632594Y5152695D02*
D03*
X382596Y2452696D02*
D03*
X4282595Y652697D02*
D03*
X9982593D02*
D03*
X9532593Y352697D02*
D03*
X5332595Y952697D02*
D03*
X82596Y4252696D02*
D03*
X5632595Y3352696D02*
D03*
X2032596Y2752696D02*
D03*
X82596Y3052696D02*
D03*
X1132596Y352697D02*
D03*
X82596Y4852695D02*
D03*
X5932594Y1552696D02*
D03*
X4732595Y3352696D02*
D03*
X11150600Y3670300D02*
D03*
X1132596Y2752696D02*
D03*
X12532592Y5152695D02*
D03*
X3382595Y4252696D02*
D03*
X3982595Y3052696D02*
D03*
X8032594Y3352696D02*
D03*
X10282593Y1252697D02*
D03*
X832596Y952697D02*
D03*
X1732596Y3952696D02*
D03*
X6682594Y3052696D02*
D03*
X6982594Y3652696D02*
D03*
X532596Y4552695D02*
D03*
X5782594Y1852696D02*
D03*
X8182594Y4252696D02*
D03*
X3532595Y3352696D02*
D03*
X7282594Y652697D02*
D03*
X3682595Y2452696D02*
D03*
X82596Y3652696D02*
D03*
X9982593Y1252697D02*
D03*
X232596Y2752696D02*
D03*
X8032594Y952697D02*
D03*
X5932594Y352697D02*
D03*
X5782594Y652697D02*
D03*
X6232594Y2152696D02*
D03*
X8932594Y1552696D02*
D03*
X7282594Y3652696D02*
D03*
X6832594Y352697D02*
D03*
X5032595Y3352696D02*
D03*
X2032596Y352697D02*
D03*
X9232593Y4552695D02*
D03*
X4132595Y352697D02*
D03*
X9832593D02*
D03*
X8032594D02*
D03*
X9232593Y5152695D02*
D03*
X6232594Y952697D02*
D03*
X6382594Y4852695D02*
D03*
X12382592Y3652696D02*
D03*
X6832594Y952697D02*
D03*
X1582596Y652697D02*
D03*
X9982593Y3652696D02*
D03*
X6682594Y4852695D02*
D03*
X2032596Y4552695D02*
D03*
X982596Y3052696D02*
D03*
X11482593Y1252697D02*
D03*
X8632594Y2152696D02*
D03*
X1582596Y4252696D02*
D03*
X7132594Y2152696D02*
D03*
X8032594Y5152695D02*
D03*
X3232595Y952697D02*
D03*
X5032595Y2152696D02*
D03*
X5632595Y3952696D02*
D03*
X9832593Y3352696D02*
D03*
X5332595Y352697D02*
D03*
X1732596D02*
D03*
X8332594Y3352696D02*
D03*
X11932593Y3952696D02*
D03*
X1132596Y1552696D02*
D03*
X11032593Y3352696D02*
D03*
X7582594Y4252696D02*
D03*
X12382592Y1252697D02*
D03*
X2932595Y352697D02*
D03*
X12232593Y4552695D02*
D03*
X8332594Y1552696D02*
D03*
X9382593Y3652696D02*
D03*
X4282595Y4252696D02*
D03*
X1132596Y3352696D02*
D03*
X7282594Y1252697D02*
D03*
X12382592Y4252696D02*
D03*
X6532594Y2152696D02*
D03*
X6082594Y4252696D02*
D03*
X7132594Y952697D02*
D03*
X8632594Y352697D02*
D03*
X5482595Y2452696D02*
D03*
X4882595Y3052696D02*
D03*
X682596Y1252697D02*
D03*
X3982595Y652697D02*
D03*
X9232593Y952697D02*
D03*
X4582595Y652697D02*
D03*
X12532592Y2152696D02*
D03*
X8932594Y952697D02*
D03*
X4582595Y4852695D02*
D03*
X8332594Y4552695D02*
D03*
X5632595Y352697D02*
D03*
X832596Y1552696D02*
D03*
X3682595Y652697D02*
D03*
X8932594Y2152696D02*
D03*
X7132594Y1552696D02*
D03*
X11632593Y952697D02*
D03*
X6382594Y1852696D02*
D03*
X3532595Y2752696D02*
D03*
X5182595Y1252697D02*
D03*
X12532592Y352697D02*
D03*
X11239500Y3924300D02*
D03*
X682596Y3052696D02*
D03*
X8332594Y352697D02*
D03*
X6832594Y3352696D02*
D03*
X4282595Y3052696D02*
D03*
X2632595Y352697D02*
D03*
X12532592Y952697D02*
D03*
X11782593Y1252697D02*
D03*
X11632593Y352697D02*
D03*
X232596Y3352696D02*
D03*
X11782593Y3652696D02*
D03*
X4432595Y3952696D02*
D03*
X11932593Y2152696D02*
D03*
X7432594Y3352696D02*
D03*
X4882595Y652697D02*
D03*
X232596Y5152695D02*
D03*
X10845800Y3657600D02*
D03*
X12232593Y3352696D02*
D03*
X10432593D02*
D03*
X5332595Y1552696D02*
D03*
X2032596Y5152695D02*
D03*
X2782595Y652697D02*
D03*
X4882595Y1252697D02*
D03*
X10732593Y2752696D02*
D03*
X2632595Y5152695D02*
D03*
X2182596Y4852695D02*
D03*
X8932594Y352697D02*
D03*
X232596Y2152696D02*
D03*
X10132593Y1552696D02*
D03*
X8782594Y1252697D02*
D03*
X2332596Y2752696D02*
D03*
X4432595Y3352696D02*
D03*
X5332595D02*
D03*
X11019640Y3932183D02*
D03*
X12532592Y4552695D02*
D03*
X5632595Y2752696D02*
D03*
X12532592Y3952696D02*
D03*
X11932593Y3352696D02*
D03*
X2332596Y352697D02*
D03*
X6682594Y1852696D02*
D03*
X5332595Y3952696D02*
D03*
X7582594Y3652696D02*
D03*
X6382594Y1252697D02*
D03*
X82596Y1852696D02*
D03*
X11182593Y3052696D02*
D03*
X11264900Y3530600D02*
D03*
X6082594Y652697D02*
D03*
X4432595Y5152695D02*
D03*
X1582596Y4852695D02*
D03*
X8482594Y1852696D02*
D03*
X12382592Y652697D02*
D03*
X832596Y352697D02*
D03*
X9082593Y1852696D02*
D03*
X11032593Y352697D02*
D03*
X8182594Y4852695D02*
D03*
X5638800Y4851400D02*
D03*
X9682593Y1252697D02*
D03*
X5482595Y652697D02*
D03*
X8032594Y2152696D02*
D03*
X12232593Y352697D02*
D03*
X5782594Y1252697D02*
D03*
X11782593Y3052696D02*
D03*
X6982594Y1252697D02*
D03*
X2032596Y1552696D02*
D03*
X9232593Y3352696D02*
D03*
X5032595Y352697D02*
D03*
X10432593Y3952696D02*
D03*
X2332596Y4552695D02*
D03*
X3832595Y3952696D02*
D03*
X2182596Y2452696D02*
D03*
X982596Y1852696D02*
D03*
X11932593Y4552695D02*
D03*
X12082593Y652697D02*
D03*
X682596Y2452696D02*
D03*
X3682595Y4252696D02*
D03*
X8632594Y2752696D02*
D03*
X8032594Y4552695D02*
D03*
X8332594Y952697D02*
D03*
X6832594Y1552696D02*
D03*
X4432595Y952697D02*
D03*
X82596Y652697D02*
D03*
X4582595Y1252697D02*
D03*
X982596Y4852695D02*
D03*
X11632593Y3352696D02*
D03*
X4732595Y952697D02*
D03*
X10282593Y652697D02*
D03*
X10132593Y3952696D02*
D03*
X9682593Y3652696D02*
D03*
X7132594Y352697D02*
D03*
X12532592Y1552696D02*
D03*
X11932593D02*
D03*
X9832593D02*
D03*
X6082594Y4852695D02*
D03*
X532596Y2752696D02*
D03*
X9832593Y3952696D02*
D03*
X682596Y1852696D02*
D03*
X9382593Y652697D02*
D03*
X11163300Y4991100D02*
D03*
X11252200D02*
D03*
X11061700Y4813300D02*
D03*
Y5181600D02*
D03*
Y5092700D02*
D03*
Y5270500D02*
D03*
Y4991100D02*
D03*
Y4902200D02*
D03*
X11163300Y4622800D02*
D03*
X11252200D02*
D03*
X11061700Y4356100D02*
D03*
Y4711700D02*
D03*
Y4533900D02*
D03*
Y4445000D02*
D03*
Y4622800D02*
D03*
X10515600Y4699000D02*
D03*
X10515848Y4603057D02*
D03*
X10515600Y4508500D02*
D03*
X9461500Y4394200D02*
D03*
X9639300D02*
D03*
X9740900D02*
D03*
X9550400D02*
D03*
X9918700D02*
D03*
X9917763Y4295255D02*
D03*
X9829800Y4394200D02*
D03*
X9828863Y4295255D02*
D03*
X9739963D02*
D03*
X9550400Y4292600D02*
D03*
X9639300D02*
D03*
X9461500D02*
D03*
X11239500Y2641600D02*
D03*
X11341100Y2489200D02*
D03*
X11442700D02*
D03*
X11239500Y2552700D02*
D03*
Y2730500D02*
D03*
X11430000Y2159000D02*
D03*
X11328400D02*
D03*
X11239500Y1917700D02*
D03*
Y2006600D02*
D03*
Y2413000D02*
D03*
Y2324100D02*
D03*
Y2235200D02*
D03*
Y2095500D02*
D03*
X10172700Y2247900D02*
D03*
X10350500D02*
D03*
X10261600Y2159000D02*
D03*
Y2247900D02*
D03*
X10350500Y2159000D02*
D03*
Y2070100D02*
D03*
X10261600D02*
D03*
X10172700D02*
D03*
Y2159000D02*
D03*
X4737100Y5181600D02*
D03*
X4648200Y5080000D02*
D03*
X4737100D02*
D03*
Y4978400D02*
D03*
X4648200D02*
D03*
Y5181600D02*
D03*
X2590800Y2489200D02*
D03*
X2654300Y2425700D02*
D03*
X2501900Y2438400D02*
D03*
X2646548Y2293752D02*
D03*
X2578100Y2374900D02*
D03*
X1460500Y2006600D02*
D03*
X2519680Y1351280D02*
D03*
X2622103Y1807205D02*
D03*
X2914650Y1858010D02*
D03*
X2146300Y1701800D02*
D03*
X2463800Y1861010D02*
D03*
X2875926Y1213473D02*
D03*
X10680700Y4241800D02*
D03*
X10401300Y4244701D02*
D03*
X7130801Y2666502D02*
D03*
X6159500Y3619500D02*
D03*
X6248400D02*
D03*
X6159500Y3708400D02*
D03*
X6248400D02*
D03*
X6337300Y3619500D02*
D03*
Y3708400D02*
D03*
X6159500Y3797300D02*
D03*
X6337300D02*
D03*
X6248400D02*
D03*
X3289300Y2222500D02*
D03*
X3378200D02*
D03*
X3200400D02*
D03*
X3378200Y2133600D02*
D03*
Y2044700D02*
D03*
X3289300Y2133600D02*
D03*
X3200400D02*
D03*
X3289300Y2044700D02*
D03*
X3200400D02*
D03*
X3009900Y3073400D02*
D03*
X3098800D02*
D03*
X3009900Y2984500D02*
D03*
X3098800D02*
D03*
X2921000D02*
D03*
Y3073400D02*
D03*
X3098800Y2895600D02*
D03*
X2921000D02*
D03*
X3009900D02*
D03*
X2794000Y3238500D02*
D03*
X5030192Y3734840D02*
D03*
X5029200Y3848100D02*
D03*
X4851400Y3733800D02*
D03*
X4940300D02*
D03*
X4851400Y3848100D02*
D03*
X4940300D02*
D03*
X5295900Y5257800D02*
D03*
X2143948Y1370762D02*
D03*
X3086100Y1473200D02*
D03*
X1886250Y1270000D02*
D03*
X2885440Y1498600D02*
D03*
X1907743Y368503D02*
D03*
X838200Y2768600D02*
D03*
X5293223Y4648525D02*
D03*
X7130801Y2941803D02*
D03*
X8659343Y2593340D02*
D03*
X7536180Y3083001D02*
D03*
%TF.MD5,e2116455d50b35a4c3b9f511d67cf055*%
M02*
