M48
;Layer_Color=9474304
;FILE_FORMAT=4:4
METRIC,LZ
;TYPE=PLATED
T01F00S00C0.3000
T02F00S00C0.9100
T03F00S00C1.0000
T04F00S00C1.6000
%
T01
X01412514Y0034292
X0142875Y0034036
X0146939Y0032131
X01492015Y0038608
X0150368Y0040767
X01510284Y0045593
X01532655Y0046355
X01473708Y00441198
X0145034Y0043942
X01436135Y00443146
Y0047879
X01410365Y0043307
X0241681Y00508
X0239522Y0058166
X0241173Y0067437
X0241046Y0071374
X0240665Y00732028
X0239141Y0075311
X0244729Y0071374
X0236101Y0072509
X0236601Y00732028
X0235839Y0073914
X0234569Y0074422
X0232791Y0073025
Y0070993
X0230759Y0072509
X0221996Y0071628
X0222377Y0068707
X0227165Y0066002
X02278126Y0056642
X0229362
X02299716Y00535178
X0232664Y0052578
X0225933Y0052197
X02242684Y00553466
X0219964Y0052324
X02160016Y00540768
X02087674Y00565404
X02092914Y0060787
X0202565Y0060833
X02027212Y00530307
X0201422Y0079756
X02134623Y00774192
X01975358Y0061437
X0193482Y0060025
Y0057272
X01852676Y00682752
X0177419Y0075438
X01751062Y00770922
Y0082397
X0169566Y00817199
X01713382Y0073853
X0162179Y0060071
X01530096Y0061279
X01518685Y0062484
X014986Y0059817
X01486395Y00535445
X0148395Y00486791
X0146812Y00491871
X01447407Y00504471
X0138986Y00485855
X0136652Y0058039
X0140081Y0059817
X0130556Y0058293
X01530096Y0051181
X01513205Y00491871
T02
X01406925Y0037592
X01432325
T03
X024511Y0056896
Y0059436
X02451714Y00794985
Y00820385
X0126619Y0082931
Y0080391
Y0071882
Y0069342
T04
X01341755Y00691515
Y00800735
X01574165Y00802005
Y00692785
M30
