M48
;Layer_Color=9474304
;FILE_FORMAT=4:4
METRIC,LZ
;TYPE=PLATED
T01F00S00C0.3000
T02F00S00C0.9100
T03F00S00C1.0000
T04F00S00C1.6000
%
T01
X01245Y0034134
X01275
X01305
X01335
X01365
X01395
X01412514Y0034292
X01425Y0034134
X01455
X01485
X01515
X01545
X01575
X0156Y0037134
X0153
X015
X0147
X01473708Y00441198
X01436135Y00443146
X01425Y0046134
X014224Y0047498
X0143637Y0047625
X01410365Y0043307
X0135Y0043134
X0132
X0129
X0126
X0123
X01245Y0046134
X01275
X01305
X01335
Y0040134
X01305
X01275
X01245
X0126Y0037134
X0129
X0132
X0135
X0138
X0123
X01509333Y00427417
X0153Y0043134
X0153035Y0045339
X01510284Y0045593
X0156Y0043134
X01545Y0040134
X0159Y0037134
X0162
X0165
X0168
X0171
X0174
X0177
X01799999
X01829999
X01859999
X01889999
X01919999
X01949999
X01979999
X01964999Y0040134
X01934999
X01904999
X01874999
X01844999
X01814999
X01785
X01755
X01725
X01695
X01665
X01635
X0165Y0043134
X0168
X0171
X0174
X0177
X01799999
X01829999
X01859999
X01889999
X01919999
X01949999
X01979999
X01964999Y0046134
X01934999
X01904999
X01874999
X01844999
X01814999
X01785
X01755
X01725
Y0034134
X01695
X01665
X01635
X01605
X01755
X01785
X01814999
X01844999
X01874999
X01904999
X01934999
X01964999
X01994999
X02024999
X02054999
X02084999
X02114999
X02144999
X02174999
X02204999
X02234999
X02264999
X02294999
X02324999
X02354999
X02339999Y0037134
X02309999
X02279999
X02249999
X02219999
X02189999
X02159999
X02129999
X02099999
X02069999
X02039999
X02009999
X01994999Y0040134
X02024999
X02054999
X02084999
X02114999
X02144999
X02174999
X02204999
X02234999
X02264999
X02294999
X02324999
X02354999
X02369999Y0037134
Y0043134
X02339999
X02309999
X02279999
X02249999
X02219999
X02189999
X02159999
X02129999
X02099999
X02069999
X02039999
X02009999
X02024999Y0046134
X01994999
X02054999
X02084999
X02114999
X02144999
X02174999
X02204999
X02234999
X02264999
X02384999
X02414999
X02444999
X02474999
X02459999Y0043134
X02429999
X02399999
X02414999Y0040134
X02444999
X02474999
X02459999Y0037134
X02429999
X02399999
X02414999Y0034134
X02384999
Y0040134
X02444999Y0034134
X02474999
X02459999Y0049134
X02429999
X02444999Y0052134
X02474999
X02459999Y0055134
X02429999
X02414999Y0052134
X02399999Y0061134
X0243205Y0062103
X024638Y0061976
X02474999Y0064134
X02444999
X02414999
X02384999
X02399999Y0067134
X02429999
X02459999
X02444999Y0070134
X02414999
X02384999
X02399999Y0073134
X02429999
X02459999
X02444999Y00761339
X02474999
Y00821339
X0242697Y0078867
X02414999Y00761339
X02474999Y0070134
Y0058134
X0234569Y0057912
Y0057023
Y0056134
Y0054737
Y0053848
Y0052959
Y0051562
Y0050673
Y0049784
X0235458Y0052197
X0236474
X0236601Y0055499
X0235585
X02309999Y0055134
X02324999Y0058134
X02294999
X02279999Y0061134
X02309999
X02339999
X02369999
X02354999Y0064134
X0234823Y0065913
X023368Y006731
X0230632Y0067183
X02279999Y0067134
X02249999
X02219999
X02189999
X02159999
X02129999
X02099999
X02039999
X02009999
X01994999Y0064134
X02024999
X02054999
Y0058134
X02084999
X02087674Y00565404
X02099999Y0055134
X02129999
X02144999Y0052134
X02174999
X02204999
X0223901Y0052197
Y0053086
X022479
X0225679
Y0052197
X022479
Y0051308
X0225679
X0223901
X02249999Y0049134
X02219999
X02189999
X02159999
X02129999
X02099999
X02069999
X02039999
X02009999
X02024999Y0052134
X02054999
X02084999
X02114999
X02069999Y0055134
X02039999
X02129999Y0061134
X02159999
X02189999
X02219999
X02249999
X02234999Y0064134
X02204999
X02174999
X02144999
Y0070134
X02174999
X02204999
X02234999
X02264999
X0226187Y0073054
X02249999Y0073134
X022733Y0074676
Y0075692
X02273325Y00766376
X022733Y0077597
X02309999Y00791339
X0232791Y007874
Y0079629
Y0080518
X0233807
X0234696
X0232791Y0081534
Y0082423
Y0083312
Y0077724
Y0076835
Y0075946
Y0075057
Y0074168
X02339999Y0073134
X0234569Y006985
X02323704Y00699288
X0229616Y0069977
X0228981Y0073025
X02213516Y00735595
X02204626
X02195736
X0219583Y0074549
X0220472
X0221361
X0218567
X0217678
X0216789
Y0073533
X0217678
X0218567
X02159999Y0073134
X02144999Y00761339
Y00821339
X02174999
X02204999
X02234999
X02084999
X02054999
X02024999
X02039999Y00791339
X02069999
X02054999Y00761339
X02024999
X02009999Y0073134
X02039999
X02099999
X02264999Y0064134
X02294999
X02324999
X02369999Y0067134
X0234696Y0076835
X0233807
X01979999Y0073134
X01949999
X01934999Y00761339
X01904999
X01889999Y00791339
X01859999
X01829999
X0178562Y0079121
Y0077216
X01751062Y00770922
X0174Y00791339
X0171
X0169545Y0080391
X0168656
Y0081407
X0169545
Y0082423
X0168656
X01665Y00821339
X0165Y00791339
X0168
Y0073134
X0165
X01635Y0070134
X01665
X0170688Y0069088
X0171577
X0172466
X01724759Y00679554
X0171577Y0067945
X0170688
X0174Y0067134
X0177
X01799999
X0183769Y0066802
X0184658
Y0067691
X0183769
Y006858
X0184658
X0185547
Y0067691
Y0066802
X01844999Y0064134
X01859999Y0061134
X01829999
X01844999Y0058134
X01874999
X01859999Y0055134
X01889999
X01919999
X0193482Y0057272
Y0060025
X01919999Y0061134
X01889999
X01904999Y0064134
X01934999
X01964999
X01975358Y0061437
X01979999Y0067134
X01949999
X01919999
X01874999Y0070134
X01814999
X01785
X01755
X0177038Y0074041
X01829999Y0073134
X01785Y0064134
X01755
X01725
X01695
X01665
X01635
X01605
X0162Y0061134
X0165
X0168
X0171
X0174
X01725Y0058134
X01695
X01725Y0052134
X01755
X01785
X01814999
X01844999
X01874999
X01904999
X01934999
X01919999Y0049134
X01949999
X01979999
X01889999
X01859999
X01829999
X01799999
X0177
X0174
X0171
X0168
X0159Y0055134
X01605Y0070134
X0159Y0073134
Y00791339
X01635Y00761339
X0175133Y0083185
X01785Y0058134
X01814999
X01799999Y0055134
X01829999
X0177
X01575Y0058134
X01545
X0153162Y0059563
Y0060452
Y0061341
X0152273
Y0060452
X0151384
Y0061341
Y0059563
X0152273
X01485Y0058134
X01455
X01425
X01395
X01365
X01335
X0130556Y0058293
X01275Y0058134
X01245
X0123Y0055134
X0126
X0129
X0132
X01335Y0052134
X01305
X01275
X01245
X0126Y0049134
X0123
X0129
X0132
X0136779Y0050673
X0138Y0055134
X0141
X0144
X0147193Y0054991
X0148082Y0055499
X0148717Y0054864
X0147955Y0054356
X01486395Y00535445
X0148395Y00486791
X0146812Y00492171
X01513205Y00491871
X0154178Y0051054
Y0051943
Y0052832
X0155067
X0155956
Y0051943
Y0051054
X0155067
Y0051943
X01575Y0064134
X0150114Y0062992
X01515Y0070134
X01545
X0153Y0073134
X0156
X01575Y00761339
X01515Y00821339
X01485
X01455
X01425
X01395
X01365
X0138Y00791339
X0141
X0144
X0147
X01455Y00761339
X01425
X01395
X01365
X01335
X01305
X01275
X01245
X0123Y0073134
X01245Y0070134
X0123Y0067134
X01245Y0064134
X01275
X0126Y0061134
X0123
X0129
X0132
X01335Y0064134
X01305Y0070134
X01365
X01395
X0141Y0073134
X0138
X0135
X0132Y00791339
X0129
X0123
X01245Y00821339
T02
X01406925Y0037592
X01432325
T03
X024511Y0057531
Y0060071
Y0079883
Y0082423
X0126619Y0082931
Y0080391
Y0071882
Y0069342
T04
X01344295Y00690245
X01341755Y00800735
X01574165Y00802005
X01576705Y00691515
M30
