M48
;Layer_Color=9474304
;FILE_FORMAT=4:4
METRIC,LZ
;TYPE=PLATED
T01F00S00C0.3000
T02F00S00C0.9100
T03F00S00C1.0000
T04F00S00C1.6000
%
T01
X0002326Y0003527
X0005326
X0008326
X0011326
X0014326
X0017326
X00190774Y0003685
X0020326Y0003527
X0023326
X0026326
X0029326
X0032326
X0035326
X0033826Y0006527
X0030826
X0027826
X0024826
X00251968Y00135128
X00214395Y00137076
X0020326Y0015527
X0020066Y0016891
X0021463Y0017018
X00188625Y00127
X0012826Y0012527
X0009826
X0006826
X0003826
X0000826
X0002326Y0015527
X0005326
X0008326
X0011326
Y0009527
X0008326
X0005326
X0002326
X0003826Y0006527
X0006826
X0009826
X0012826
X0015826
X0000826
X00287593Y00121347
X0030826Y0012527
X0030861Y0014732
X00288544Y0014986
X0033826Y0012527
X0032326Y0009527
X0036826Y0006527
X0039826
X0042826
X0045826
X0048826
X0051826
X0054826
X00578259
X00608259
X00638259
X00668259
X00698259
X00728259
X00758259
X00743259Y0009527
X00713259
X00683259
X00653259
X00623259
X00593259
X0056326
X0053326
X0050326
X0047326
X0044326
X0041326
X0042826Y0012527
X0045826
X0048826
X0051826
X0054826
X00578259
X00608259
X00638259
X00668259
X00698259
X00728259
X00758259
X00743259Y0015527
X00713259
X00683259
X00653259
X00623259
X00593259
X0056326
X0053326
X0050326
Y0003527
X0047326
X0044326
X0041326
X0038326
X0053326
X0056326
X00593259
X00623259
X00653259
X00683259
X00713259
X00743259
X00773259
X00803259
X00833259
X00863259
X00893259
X00923259
X00953259
X00983259
X01013259
X01043259
X01073259
X01103259
X01133259
X01118259Y0006527
X01088259
X01058259
X01028259
X00998259
X00968259
X00938259
X00908259
X00878259
X00848259
X00818259
X00788259
X00773259Y0009527
X00803259
X00833259
X00863259
X00893259
X00923259
X00953259
X00983259
X01013259
X01043259
X01073259
X01103259
X01133259
X01148259Y0006527
Y0012527
X01118259
X01088259
X01058259
X01028259
X00998259
X00968259
X00938259
X00908259
X00878259
X00848259
X00818259
X00788259
X00803259Y0015527
X00773259
X00833259
X00863259
X00893259
X00923259
X00953259
X00983259
X01013259
X01043259
X01163259
X01193259
X01223259
X01253259
X01238259Y0012527
X01208259
X01178259
X01193259Y0009527
X01223259
X01253259
X01238259Y0006527
X01208259
X01178259
X01193259Y0003527
X01163259
Y0009527
X01223259Y0003527
X01253259
X01238259Y0018527
X01208259
X01223259Y0021527
X01253259
X01238259Y0024527
X01208259
X01193259Y0021527
X01178259Y0030527
X0121031Y0031496
X0124206Y0031369
X01253259Y0033527
X01223259
X01193259
X01163259
X01178259Y0036527
X01208259
X01238259
X01223259Y0039527
X01193259
X01163259
X01178259Y0042527
X01208259
X01238259
X01223259Y0045527
X01253259
Y0051527
X0120523Y004826
X01193259Y0045527
X01253259Y0039527
Y0027527
X0112395Y0027305
Y0026416
Y0025527
Y002413
Y0023241
Y0022352
Y0020955
Y0020066
Y0019177
X0113284Y002159
X01143
X0114427Y0024892
X0113411
X01088259Y0024527
X01103259Y0027527
X01073259
X01058259Y0030527
X01088259
X01118259
X01148259
X01133259Y0033527
X0112649Y0035306
X0111506Y0036703
X0108458Y0036576
X01058259Y0036527
X01028259
X00998259
X00968259
X00938259
X00908259
X00878259
X00818259
X00788259
X00773259Y0033527
X00803259
X00833259
Y0027527
X00863259
X00865934Y00259334
X00878259Y0024527
X00908259
X00923259Y0021527
X00953259
X00983259
X0101727Y002159
Y0022479
X0102616
X0103505
Y002159
X0102616
Y0020701
X0103505
X0101727
X01028259Y0018527
X00998259
X00968259
X00938259
X00908259
X00878259
X00848259
X00818259
X00788259
X00803259Y0021527
X00833259
X00863259
X00893259
X00848259Y0024527
X00818259
X00908259Y0030527
X00938259
X00968259
X00998259
X01028259
X01013259Y0033527
X00983259
X00953259
X00923259
Y0039527
X00953259
X00983259
X01013259
X01043259
X0104013Y0042447
X01028259Y0042527
X0105156Y0044069
Y0045085
X01051585Y00460306
X0105156Y004699
X01088259Y0048527
X0110617Y0048133
Y0049022
Y0049911
X0111633
X0112522
X0110617Y0050927
Y0051816
Y0052705
Y0047117
Y0046228
Y0045339
Y004445
Y0043561
X01118259Y0042527
X0112395Y0039243
X01101964Y00393218
X0107442Y003937
X0106807Y0042418
X00991776Y00429525
X00982886
X00973996
X0097409Y0043942
X0098298
X0099187
X0096393
X0095504
X0094615
Y0042926
X0095504
X0096393
X00938259Y0042527
X00923259Y0045527
Y0051527
X00953259
X00983259
X01013259
X00863259
X00833259
X00803259
X00818259Y0048527
X00848259
X00833259Y0045527
X00803259
X00788259Y0042527
X00818259
X00878259
X01043259Y0033527
X01073259
X01103259
X01148259Y0036527
X0112522Y0046228
X0111633
X00758259Y0042527
X00728259
X00713259Y0045527
X00683259
X00668259Y0048527
X00638259
X00608259
X0056388Y0048514
Y0046609
X00529322Y00464852
X0051826Y0048527
X0048826
X0047371Y0049784
X0046482
Y00508
X0047371
Y0051816
X0046482
X0044326Y0051527
X0042826Y0048527
X0045826
Y0042527
X0042826
X0041326Y0039527
X0044326
X0048514Y0038481
X0049403
X0050292
X00503019Y00373484
X0049403Y0037338
X0048514
X0051826Y0036527
X0054826
X00578259
X0061595Y0036195
X0062484
Y0037084
X0061595
Y0037973
X0062484
X0063373
Y0037084
Y0036195
X00623259Y0033527
X00638259Y0030527
X00608259
X00623259Y0027527
X00653259
X00638259Y0024527
X00668259
X00698259
X0071308Y0026665
Y0029418
X00698259Y0030527
X00668259
X00683259Y0033527
X00713259
X00743259
X00753618Y003083
X00758259Y0036527
X00728259
X00698259
X00653259Y0039527
X00593259
X0056326
X0053326
X0054864Y0043434
X00608259Y0042527
X0056326Y0033527
X0053326
X0050326
X0047326
X0044326
X0041326
X0038326
X0039826Y0030527
X0042826
X0045826
X0048826
X0051826
X0050326Y0027527
X0047326
X0050326Y0021527
X0053326
X0056326
X00593259
X00623259
X00653259
X00683259
X00713259
X00698259Y0018527
X00728259
X00758259
X00668259
X00638259
X00608259
X00578259
X0054826
X0051826
X0048826
X0045826
X0036826Y0024527
X0038326Y0039527
X0036826Y0042527
Y0048527
X0041326Y0045527
X0052959Y0052578
X0056326Y0027527
X00593259
X00578259Y0024527
X00608259
X0054826
X0035326Y0027527
X0032326
X0030988Y0028956
Y0029845
Y0030734
X0030099
Y0029845
X002921
Y0030734
Y0028956
X0030099
X0026326Y0027527
X0023326
X0020326
X0017326
X0014326
X0011326
X0008382Y0027686
X0005326Y0027527
X0002326
X0000826Y0024527
X0003826
X0006826
X0009826
X0011326Y0021527
X0008326
X0005326
X0002326
X0003826Y0018527
X0000826
X0006826
X0009826
X0014605Y0020066
X0015826Y0024527
X0018826
X0021826
X0025019Y0024384
X0025908Y0024892
X0026543Y0024257
X0025781Y0023749
X00264655Y00229375
X0026221Y00180721
X0024638Y00186101
X00291465Y00185801
X0032004Y0020447
Y0021336
Y0022225
X0032893
X0033782
Y0021336
Y0020447
X0032893
Y0021336
X0035326Y0033527
X002794Y0032385
X0029326Y0039527
X0032326
X0030826Y0042527
X0033826
X0035326Y0045527
X0029326Y0051527
X0026326
X0023326
X0020326
X0017326
X0014326
X0015826Y0048527
X0018826
X0021826
X0024826
X0023326Y0045527
X0020326
X0017326
X0014326
X0011326
X0008326
X0005326
X0002326
X0000826Y0042527
X0002326Y0039527
X0000826Y0036527
X0002326Y0033527
X0005326
X0003826Y0030527
X0000826
X0006826
X0009826
X0011326Y0033527
X0008326Y0039527
X0014326
X0017326
X0018826Y0042527
X0015826
X0012826
X0009826Y0048527
X0006826
X0000826
X0002326Y0051527
T02
X00185185Y0006985
X00210585
T03
X0122936Y0026924
Y0029464
Y0049276
Y0051816
X0004445Y0052324
Y0049784
Y0041275
Y0038735
T04
X00122555Y00384175
X00120015Y00494665
X00352425Y00495935
X00354965Y00385445
M30
